%TF.GenerationSoftware,KiCad,Pcbnew,9.0.7*%
%TF.CreationDate,2026-09-06T12:18:28+09:00*%
%TF.ProjectId,SayoBot_O3C_RP2040_6Key,5361796f-426f-4745-9f4f-33435f525032,4*%
%TF.SameCoordinates,Original*%
%TF.FileFunction,Copper,L2,Bot*%
%TF.FilePolarity,Positive*%
%FSLAX46Y46*%
G04 Gerber Fmt 4.6, Leading zero omitted, Abs format (unit mm)*
G04 Created by KiCad (PCBNEW 9.0.7) date 2026-09-06 12:18:28*
%MOMM*%
%LPD*%
G01*
G04 APERTURE LIST*
%TA.AperFunction,ComponentPad*%
%ADD10R,1.600200X1.600200*%
%TD*%
%TA.AperFunction,ComponentPad*%
%ADD11C,1.600200*%
%TD*%
%TA.AperFunction,ComponentPad*%
%ADD12R,1.778000X1.778000*%
%TD*%
%TA.AperFunction,ComponentPad*%
%ADD13C,1.778000*%
%TD*%
%TA.AperFunction,ComponentPad*%
%ADD14O,2.000000X2.800000*%
%TD*%
%TA.AperFunction,ComponentPad*%
%ADD15C,1.800000*%
%TD*%
%TA.AperFunction,ComponentPad*%
%ADD16R,1.800000X1.800000*%
%TD*%
%TA.AperFunction,Conductor*%
%ADD17C,0.254000*%
%TD*%
G04 APERTURE END LIST*
D10*
%TO.P,J1,1*%
%TO.N,Net-(J1-GND)*%
X52110600Y-2499000D03*
D11*
%TO.P,J1,2*%
%TO.N,Net-(J1-VCC(3V3))*%
X54650600Y-2499000D03*
%TO.P,J1,3*%
%TO.N,Net-(J1-SCL{slash}SCK)*%
X57190600Y-2499000D03*
%TO.P,J1,4*%
%TO.N,Net-(J1-SDA{slash}MOSI)*%
X59730600Y-2499000D03*
%TO.P,J1,5*%
%TO.N,Net-(J1-RES)*%
X62270600Y-2499000D03*
%TO.P,J1,6*%
%TO.N,Net-(J1-DC)*%
X64810600Y-2499000D03*
%TO.P,J1,7*%
%TO.N,Net-(J1-CS)*%
X67350600Y-2499000D03*
%TO.P,J1,8*%
%TO.N,Net-(J1-BLK)*%
X69890600Y-2499000D03*
%TD*%
D12*
%TO.P,SW2,1*%
%TO.N,Net-(U1-GP26)*%
X19776000Y-57319800D03*
D13*
%TO.P,SW2,2*%
%TO.N,Net-(J1-GND)*%
X26126000Y-54779800D03*
%TD*%
D12*
%TO.P,SW4,1*%
%TO.N,Net-(U1-GP28)*%
X57874400Y-57319800D03*
D13*
%TO.P,SW4,2*%
%TO.N,Net-(J1-GND)*%
X64224400Y-54779800D03*
%TD*%
D12*
%TO.P,SW3,1*%
%TO.N,Net-(U1-GP27)*%
X38823900Y-57319800D03*
D13*
%TO.P,SW3,2*%
%TO.N,Net-(J1-GND)*%
X45173900Y-54779800D03*
%TD*%
D12*
%TO.P,SW7,1*%
%TO.N,Net-(U1-GP15)*%
X57874400Y-38269800D03*
D13*
%TO.P,SW7,2*%
%TO.N,Net-(J1-GND)*%
X64224400Y-35729800D03*
%TD*%
D12*
%TO.P,SW6,1*%
%TO.N,Net-(U1-GP14)*%
X38823900Y-38269800D03*
D13*
%TO.P,SW6,2*%
%TO.N,Net-(J1-GND)*%
X45173900Y-35729800D03*
%TD*%
D12*
%TO.P,SW5,1*%
%TO.N,Net-(U1-GP13)*%
X19776000Y-38269800D03*
D13*
%TO.P,SW5,2*%
%TO.N,Net-(J1-GND)*%
X26126000Y-35729800D03*
%TD*%
D14*
%TO.P,SW1,1*%
%TO.N,N/C*%
X10134300Y-13751200D03*
%TO.P,SW1,2*%
X21135100Y-13751200D03*
D15*
%TO.P,SW1,A*%
%TO.N,Net-(U1-GP10)*%
X13134100Y-21249200D03*
%TO.P,SW1,B*%
%TO.N,Net-(U1-GP11)*%
X18135300Y-21249200D03*
%TO.P,SW1,C*%
%TO.N,Net-(J1-GND)*%
X15636000Y-21249200D03*
%TO.P,SW1,D*%
%TO.N,Net-(U1-GP12)*%
X13134100Y-6750900D03*
%TO.P,SW1,E*%
%TO.N,Net-(J1-GND)*%
X18135300Y-6750900D03*
%TD*%
D16*
%TO.P,U1,1*%
%TO.N,unconnected-(U1-GP0-Pad1)*%
X24998800Y-1295000D03*
D15*
%TO.P,U1,2*%
%TO.N,unconnected-(U1-GP1-Pad2)*%
X24998800Y-3835000D03*
%TO.P,U1,3*%
%TO.N,Net-(J1-SCL{slash}SCK)*%
X24998800Y-6375000D03*
%TO.P,U1,4*%
%TO.N,Net-(J1-SDA{slash}MOSI)*%
X24998800Y-8915000D03*
%TO.P,U1,5*%
%TO.N,Net-(J1-DC)*%
X24998800Y-11455000D03*
%TO.P,U1,6*%
%TO.N,Net-(J1-CS)*%
X24998800Y-13995000D03*
%TO.P,U1,7*%
%TO.N,Net-(J1-RES)*%
X24998800Y-16535000D03*
%TO.P,U1,8*%
%TO.N,Net-(J1-BLK)*%
X24998800Y-19075000D03*
%TO.P,U1,9*%
%TO.N,unconnected-(U1-GP8-Pad9)*%
X24998800Y-21615000D03*
%TO.P,U1,10*%
%TO.N,unconnected-(U1-GP9-Pad10)*%
X28420200Y-22704600D03*
%TO.P,U1,11*%
%TO.N,Net-(U1-GP10)*%
X30960200Y-22704600D03*
%TO.P,U1,12*%
%TO.N,Net-(U1-GP11)*%
X33500200Y-22704600D03*
%TO.P,U1,13*%
%TO.N,Net-(U1-GP12)*%
X36040200Y-22704600D03*
%TO.P,U1,14*%
%TO.N,Net-(U1-GP13)*%
X38580200Y-22704600D03*
%TO.P,U1,15*%
%TO.N,Net-(U1-GP14)*%
X41999000Y-21615000D03*
%TO.P,U1,16*%
%TO.N,Net-(U1-GP15)*%
X41999000Y-19075000D03*
%TO.P,U1,17*%
%TO.N,Net-(U1-GP26)*%
X41999000Y-16535000D03*
%TO.P,U1,18*%
%TO.N,Net-(U1-GP27)*%
X41999000Y-13995000D03*
%TO.P,U1,19*%
%TO.N,Net-(U1-GP28)*%
X41999000Y-11455000D03*
%TO.P,U1,20*%
%TO.N,unconnected-(U1-GP29-Pad20)*%
X41999000Y-8915000D03*
%TO.P,U1,21*%
%TO.N,Net-(J1-VCC(3V3))*%
X41999000Y-6375000D03*
%TO.P,U1,22*%
%TO.N,Net-(J1-GND)*%
X41999000Y-3835000D03*
%TO.P,U1,23*%
%TO.N,unconnected-(U1-5V{slash}USB-Pad23)*%
X41999000Y-1295000D03*
%TD*%
D17*
%TO.N,Net-(J1-GND)*%
X26126000Y-31739200D02*
X26126000Y-35729800D01*
X18135300Y-6750900D02*
X18135300Y-18749900D01*
X45173900Y-35729800D02*
X45173900Y-54779800D01*
X64224400Y-35729800D02*
X64224400Y-54779800D01*
X18135300Y-18749900D02*
X15636000Y-21249200D01*
X15636000Y-21249200D02*
X26126000Y-31739200D01*
%TO.N,Net-(J1-VCC(3V3))*%
X50774600Y-6375000D02*
X41999000Y-6375000D01*
X54650600Y-2499000D02*
X50774600Y-6375000D01*
%TO.N,Net-(J1-SDA{slash}MOSI)*%
X54495700Y-7733900D02*
X59730600Y-2499000D01*
X24998800Y-8915000D02*
X26179900Y-7733900D01*
X26179900Y-7733900D02*
X54495700Y-7733900D01*
%TO.N,Net-(U1-GP12)*%
X13134100Y-6750900D02*
X14317500Y-5567500D01*
X25450900Y-10185000D02*
X36040200Y-20774300D01*
X36040200Y-20774300D02*
X36040200Y-22704600D01*
X23325200Y-10185000D02*
X25450900Y-10185000D01*
X18707700Y-5567500D02*
X23325200Y-10185000D01*
X14317500Y-5567500D02*
X18707700Y-5567500D01*
%TO.N,Net-(U1-GP26)*%
X43256600Y-13510100D02*
X42545900Y-12799400D01*
X37308700Y-16974100D02*
X37308700Y-36728800D01*
X19776000Y-57319800D02*
X19776000Y-56149700D01*
X41999000Y-16535000D02*
X43256600Y-15277400D01*
X19776000Y-54261500D02*
X19776000Y-56149700D01*
X41483400Y-12799400D02*
X37308700Y-16974100D01*
X37308700Y-36728800D02*
X19776000Y-54261500D01*
X43256600Y-15277400D02*
X43256600Y-13510100D01*
X42545900Y-12799400D02*
X41483400Y-12799400D01*
%TO.N,Net-(U1-GP27)*%
X38122700Y-39478000D02*
X37826600Y-39478000D01*
X38823900Y-57319800D02*
X38823900Y-56149700D01*
X37615000Y-37203000D02*
X40729000Y-34089000D01*
X38823900Y-56149700D02*
X38938200Y-56035400D01*
X37615000Y-39266400D02*
X37615000Y-37203000D01*
X40729000Y-34089000D02*
X40729000Y-15265000D01*
X37826600Y-39478000D02*
X37615000Y-39266400D01*
X38938200Y-56035400D02*
X38938200Y-40293500D01*
X38938200Y-40293500D02*
X38122700Y-39478000D01*
X40729000Y-15265000D02*
X41999000Y-13995000D01*
%TO.N,Net-(U1-GP28)*%
X57874400Y-57319800D02*
X57874400Y-56149700D01*
X52160100Y-21616100D02*
X41999000Y-11455000D01*
X57874400Y-56149700D02*
X52160100Y-50435400D01*
X52160100Y-50435400D02*
X52160100Y-21616100D01*
%TO.N,Net-(U1-GP14)*%
X41999000Y-21615000D02*
X41999000Y-33924600D01*
X41999000Y-33924600D02*
X38823900Y-37099700D01*
X38823900Y-38269800D02*
X38823900Y-37099700D01*
%TD*%
%TA.AperFunction,Conductor*%
%TO.N,Net-(J1-GND)*%
G36*
X23857491Y-318907D02*
G01*
X23893455Y-368407D01*
X23898300Y-399000D01*
X23898300Y-2214746D01*
X23898301Y-2214758D01*
X23909932Y-2273227D01*
X23909934Y-2273233D01*
X23954245Y-2339548D01*
X23954248Y-2339552D01*
X24020569Y-2383867D01*
X24065031Y-2392711D01*
X24079041Y-2395498D01*
X24079046Y-2395498D01*
X24079052Y-2395500D01*
X24079053Y-2395500D01*
X25918547Y-2395500D01*
X25918548Y-2395500D01*
X25977031Y-2383867D01*
X26043352Y-2339552D01*
X26087667Y-2273231D01*
X26099300Y-2214748D01*
X26099300Y-399000D01*
X26118207Y-340809D01*
X26167707Y-304845D01*
X26198300Y-300000D01*
X41198651Y-300000D01*
X41256842Y-318907D01*
X41292806Y-368407D01*
X41292806Y-429593D01*
X41268656Y-469001D01*
X41159586Y-578072D01*
X41159585Y-578073D01*
X41057766Y-718214D01*
X40979125Y-872558D01*
X40979123Y-872561D01*
X40925598Y-1037293D01*
X40925597Y-1037297D01*
X40898500Y-1208385D01*
X40898500Y-1381614D01*
X40925597Y-1552702D01*
X40925598Y-1552706D01*
X40979123Y-1717438D01*
X40979125Y-1717441D01*
X41030560Y-1818390D01*
X41057768Y-1871788D01*
X41159586Y-2011928D01*
X41282072Y-2134414D01*
X41422212Y-2236232D01*
X41576555Y-2314873D01*
X41576557Y-2314873D01*
X41576558Y-2314874D01*
X41576561Y-2314876D01*
X41741293Y-2368401D01*
X41741297Y-2368402D01*
X41912386Y-2395500D01*
X41912389Y-2395500D01*
X42085614Y-2395500D01*
X42256702Y-2368402D01*
X42256706Y-2368401D01*
X42421438Y-2314876D01*
X42421447Y-2314872D01*
X42439742Y-2305551D01*
X42439747Y-2305548D01*
X42503173Y-2273231D01*
X42575788Y-2236232D01*
X42715928Y-2134414D01*
X42838414Y-2011928D01*
X42940232Y-1871788D01*
X43018873Y-1717445D01*
X43018874Y-1717440D01*
X43018876Y-1717438D01*
X43072401Y-1552706D01*
X43072402Y-1552702D01*
X43099500Y-1381614D01*
X43099500Y-1208385D01*
X43072402Y-1037297D01*
X43072401Y-1037293D01*
X43018876Y-872561D01*
X43018874Y-872558D01*
X43018873Y-872557D01*
X43018873Y-872555D01*
X42940232Y-718212D01*
X42838414Y-578072D01*
X42729343Y-469001D01*
X42701568Y-414487D01*
X42711139Y-354055D01*
X42754404Y-310790D01*
X42799349Y-300000D01*
X83601000Y-300000D01*
X83659191Y-318907D01*
X83695155Y-368407D01*
X83700000Y-399000D01*
X83700000Y-72651000D01*
X83681093Y-72709191D01*
X83631593Y-72745155D01*
X83601000Y-72750000D01*
X399000Y-72750000D01*
X340809Y-72731093D01*
X304845Y-72681593D01*
X300000Y-72651000D01*
X300000Y-69431987D01*
X1699500Y-69431987D01*
X1699500Y-69668012D01*
X1730306Y-69902006D01*
X1730306Y-69902011D01*
X1791393Y-70129992D01*
X1881713Y-70348044D01*
X1999729Y-70552453D01*
X2143402Y-70739692D01*
X2143404Y-70739694D01*
X2143408Y-70739699D01*
X2310301Y-70906592D01*
X2310305Y-70906595D01*
X2310307Y-70906597D01*
X2497546Y-71050270D01*
X2497550Y-71050273D01*
X2701951Y-71168284D01*
X2701952Y-71168284D01*
X2701955Y-71168286D01*
X2920007Y-71258606D01*
X3147986Y-71319693D01*
X3381989Y-71350500D01*
X3381990Y-71350500D01*
X3618010Y-71350500D01*
X3618011Y-71350500D01*
X3852014Y-71319693D01*
X4079993Y-71258606D01*
X4298049Y-71168284D01*
X4502450Y-71050273D01*
X4689699Y-70906592D01*
X4856592Y-70739699D01*
X5000273Y-70552450D01*
X5118284Y-70348049D01*
X5208606Y-70129993D01*
X5269693Y-69902014D01*
X5300500Y-69668011D01*
X5300500Y-69431989D01*
X5300500Y-69431987D01*
X78699500Y-69431987D01*
X78699500Y-69668012D01*
X78730306Y-69902006D01*
X78730306Y-69902011D01*
X78791393Y-70129992D01*
X78881713Y-70348044D01*
X78999729Y-70552453D01*
X79143402Y-70739692D01*
X79143404Y-70739694D01*
X79143408Y-70739699D01*
X79310301Y-70906592D01*
X79310305Y-70906595D01*
X79310307Y-70906597D01*
X79497546Y-71050270D01*
X79497550Y-71050273D01*
X79701951Y-71168284D01*
X79701952Y-71168284D01*
X79701955Y-71168286D01*
X79920007Y-71258606D01*
X80147986Y-71319693D01*
X80381989Y-71350500D01*
X80381990Y-71350500D01*
X80618010Y-71350500D01*
X80618011Y-71350500D01*
X80852014Y-71319693D01*
X81079993Y-71258606D01*
X81298049Y-71168284D01*
X81502450Y-71050273D01*
X81689699Y-70906592D01*
X81856592Y-70739699D01*
X82000273Y-70552450D01*
X82118284Y-70348049D01*
X82208606Y-70129993D01*
X82269693Y-69902014D01*
X82300500Y-69668011D01*
X82300500Y-69431989D01*
X82269693Y-69197986D01*
X82208606Y-68970007D01*
X82118284Y-68751951D01*
X82000273Y-68547550D01*
X81856592Y-68360301D01*
X81689699Y-68193408D01*
X81689694Y-68193404D01*
X81689692Y-68193402D01*
X81502453Y-68049729D01*
X81298044Y-67931713D01*
X81079992Y-67841393D01*
X80924277Y-67799670D01*
X80852014Y-67780307D01*
X80852011Y-67780306D01*
X80852009Y-67780306D01*
X80618012Y-67749500D01*
X80618011Y-67749500D01*
X80381989Y-67749500D01*
X80381987Y-67749500D01*
X80147993Y-67780306D01*
X80147988Y-67780306D01*
X79920007Y-67841393D01*
X79701955Y-67931713D01*
X79497546Y-68049729D01*
X79310307Y-68193402D01*
X79143402Y-68360307D01*
X78999729Y-68547546D01*
X78881713Y-68751955D01*
X78791393Y-68970007D01*
X78730306Y-69197988D01*
X78730306Y-69197993D01*
X78699500Y-69431987D01*
X5300500Y-69431987D01*
X5269693Y-69197986D01*
X5208606Y-68970007D01*
X5118284Y-68751951D01*
X5000273Y-68547550D01*
X4856592Y-68360301D01*
X4689699Y-68193408D01*
X4689694Y-68193404D01*
X4689692Y-68193402D01*
X4502453Y-68049729D01*
X4298044Y-67931713D01*
X4079992Y-67841393D01*
X3924277Y-67799670D01*
X3852014Y-67780307D01*
X3852011Y-67780306D01*
X3852009Y-67780306D01*
X3618012Y-67749500D01*
X3618011Y-67749500D01*
X3381989Y-67749500D01*
X3381987Y-67749500D01*
X3147993Y-67780306D01*
X3147988Y-67780306D01*
X2920007Y-67841393D01*
X2701955Y-67931713D01*
X2497546Y-68049729D01*
X2310307Y-68193402D01*
X2143402Y-68360307D01*
X1999729Y-68547546D01*
X1881713Y-68751955D01*
X1791393Y-68970007D01*
X1730306Y-69197988D01*
X1730306Y-69197993D01*
X1699500Y-69431987D01*
X300000Y-69431987D01*
X300000Y-59756443D01*
X17453600Y-59756443D01*
X17453600Y-59963556D01*
X17494004Y-60166680D01*
X17573261Y-60358024D01*
X17573262Y-60358025D01*
X17688325Y-60530228D01*
X17834772Y-60676675D01*
X18006975Y-60791738D01*
X18198318Y-60870995D01*
X18401446Y-60911400D01*
X18401447Y-60911400D01*
X18608553Y-60911400D01*
X18608554Y-60911400D01*
X18811682Y-60870995D01*
X19003025Y-60791738D01*
X19175228Y-60676675D01*
X19321675Y-60530228D01*
X19436738Y-60358025D01*
X19515995Y-60166682D01*
X19556400Y-59963554D01*
X19556400Y-59756446D01*
X19556399Y-59756440D01*
X19551507Y-59731844D01*
X19548310Y-59715770D01*
X21384500Y-59715770D01*
X21384500Y-60004229D01*
X21422150Y-60290209D01*
X21422150Y-60290214D01*
X21496809Y-60568846D01*
X21607194Y-60835341D01*
X21607196Y-60835346D01*
X21751423Y-61085153D01*
X21927020Y-61313997D01*
X21927022Y-61313999D01*
X21927026Y-61314004D01*
X22130996Y-61517974D01*
X22131000Y-61517977D01*
X22131002Y-61517979D01*
X22228383Y-61592701D01*
X22359844Y-61693575D01*
X22609655Y-61837804D01*
X22876155Y-61948191D01*
X23154783Y-62022849D01*
X23440772Y-62060500D01*
X23440773Y-62060500D01*
X23729227Y-62060500D01*
X23729228Y-62060500D01*
X24015217Y-62022849D01*
X24293845Y-61948191D01*
X24560345Y-61837804D01*
X24810156Y-61693575D01*
X25039004Y-61517974D01*
X25242974Y-61314004D01*
X25418575Y-61085156D01*
X25562804Y-60835345D01*
X25673191Y-60568845D01*
X25747849Y-60290217D01*
X25785500Y-60004228D01*
X25785500Y-59756443D01*
X27613600Y-59756443D01*
X27613600Y-59963556D01*
X27654004Y-60166680D01*
X27733261Y-60358024D01*
X27733262Y-60358025D01*
X27848325Y-60530228D01*
X27994772Y-60676675D01*
X28166975Y-60791738D01*
X28358318Y-60870995D01*
X28561446Y-60911400D01*
X28561447Y-60911400D01*
X28768553Y-60911400D01*
X28768554Y-60911400D01*
X28971682Y-60870995D01*
X29163025Y-60791738D01*
X29335228Y-60676675D01*
X29481675Y-60530228D01*
X29596738Y-60358025D01*
X29675995Y-60166682D01*
X29716400Y-59963554D01*
X29716400Y-59756446D01*
X29716399Y-59756443D01*
X36501500Y-59756443D01*
X36501500Y-59963556D01*
X36541904Y-60166680D01*
X36621161Y-60358024D01*
X36621162Y-60358025D01*
X36736225Y-60530228D01*
X36882672Y-60676675D01*
X37054875Y-60791738D01*
X37246218Y-60870995D01*
X37449346Y-60911400D01*
X37449347Y-60911400D01*
X37656453Y-60911400D01*
X37656454Y-60911400D01*
X37859582Y-60870995D01*
X38050925Y-60791738D01*
X38223128Y-60676675D01*
X38369575Y-60530228D01*
X38484638Y-60358025D01*
X38563895Y-60166682D01*
X38604300Y-59963554D01*
X38604300Y-59756446D01*
X38604299Y-59756440D01*
X38599407Y-59731844D01*
X38596210Y-59715770D01*
X40432400Y-59715770D01*
X40432400Y-60004229D01*
X40470050Y-60290209D01*
X40470050Y-60290214D01*
X40544709Y-60568846D01*
X40655094Y-60835341D01*
X40655096Y-60835346D01*
X40799323Y-61085153D01*
X40974920Y-61313997D01*
X40974922Y-61313999D01*
X40974926Y-61314004D01*
X41178896Y-61517974D01*
X41178900Y-61517977D01*
X41178902Y-61517979D01*
X41276283Y-61592701D01*
X41407744Y-61693575D01*
X41657555Y-61837804D01*
X41924055Y-61948191D01*
X42202683Y-62022849D01*
X42488672Y-62060500D01*
X42488673Y-62060500D01*
X42777127Y-62060500D01*
X42777128Y-62060500D01*
X43063117Y-62022849D01*
X43341745Y-61948191D01*
X43608245Y-61837804D01*
X43858056Y-61693575D01*
X44086904Y-61517974D01*
X44290874Y-61314004D01*
X44466475Y-61085156D01*
X44610704Y-60835345D01*
X44721091Y-60568845D01*
X44795749Y-60290217D01*
X44833400Y-60004228D01*
X44833400Y-59756443D01*
X46661500Y-59756443D01*
X46661500Y-59963556D01*
X46701904Y-60166680D01*
X46781161Y-60358024D01*
X46781162Y-60358025D01*
X46896225Y-60530228D01*
X47042672Y-60676675D01*
X47214875Y-60791738D01*
X47406218Y-60870995D01*
X47609346Y-60911400D01*
X47609347Y-60911400D01*
X47816453Y-60911400D01*
X47816454Y-60911400D01*
X48019582Y-60870995D01*
X48210925Y-60791738D01*
X48383128Y-60676675D01*
X48529575Y-60530228D01*
X48644638Y-60358025D01*
X48723895Y-60166682D01*
X48764300Y-59963554D01*
X48764300Y-59756446D01*
X48764299Y-59756443D01*
X55552000Y-59756443D01*
X55552000Y-59963556D01*
X55592404Y-60166680D01*
X55671661Y-60358024D01*
X55671662Y-60358025D01*
X55786725Y-60530228D01*
X55933172Y-60676675D01*
X56105375Y-60791738D01*
X56296718Y-60870995D01*
X56499846Y-60911400D01*
X56499847Y-60911400D01*
X56706953Y-60911400D01*
X56706954Y-60911400D01*
X56910082Y-60870995D01*
X57101425Y-60791738D01*
X57273628Y-60676675D01*
X57420075Y-60530228D01*
X57535138Y-60358025D01*
X57614395Y-60166682D01*
X57654800Y-59963554D01*
X57654800Y-59756446D01*
X57654799Y-59756440D01*
X57649907Y-59731844D01*
X57646710Y-59715770D01*
X59482900Y-59715770D01*
X59482900Y-60004229D01*
X59520550Y-60290209D01*
X59520550Y-60290214D01*
X59595209Y-60568846D01*
X59705594Y-60835341D01*
X59705596Y-60835346D01*
X59849823Y-61085153D01*
X60025420Y-61313997D01*
X60025422Y-61313999D01*
X60025426Y-61314004D01*
X60229396Y-61517974D01*
X60229400Y-61517977D01*
X60229402Y-61517979D01*
X60326783Y-61592701D01*
X60458244Y-61693575D01*
X60708055Y-61837804D01*
X60974555Y-61948191D01*
X61253183Y-62022849D01*
X61539172Y-62060500D01*
X61539173Y-62060500D01*
X61827627Y-62060500D01*
X61827628Y-62060500D01*
X62113617Y-62022849D01*
X62392245Y-61948191D01*
X62658745Y-61837804D01*
X62908556Y-61693575D01*
X63137404Y-61517974D01*
X63341374Y-61314004D01*
X63516975Y-61085156D01*
X63661204Y-60835345D01*
X63771591Y-60568845D01*
X63846249Y-60290217D01*
X63883900Y-60004228D01*
X63883900Y-59756443D01*
X65712000Y-59756443D01*
X65712000Y-59963556D01*
X65752404Y-60166680D01*
X65831661Y-60358024D01*
X65831662Y-60358025D01*
X65946725Y-60530228D01*
X66093172Y-60676675D01*
X66265375Y-60791738D01*
X66456718Y-60870995D01*
X66659846Y-60911400D01*
X66659847Y-60911400D01*
X66866953Y-60911400D01*
X66866954Y-60911400D01*
X67070082Y-60870995D01*
X67261425Y-60791738D01*
X67433628Y-60676675D01*
X67580075Y-60530228D01*
X67695138Y-60358025D01*
X67774395Y-60166682D01*
X67814800Y-59963554D01*
X67814800Y-59756446D01*
X67774395Y-59553318D01*
X67695138Y-59361975D01*
X67580075Y-59189772D01*
X67433628Y-59043325D01*
X67261425Y-58928262D01*
X67261426Y-58928262D01*
X67261424Y-58928261D01*
X67070080Y-58849004D01*
X66866956Y-58808600D01*
X66866954Y-58808600D01*
X66659846Y-58808600D01*
X66659843Y-58808600D01*
X66456719Y-58849004D01*
X66265375Y-58928261D01*
X66093172Y-59043324D01*
X65946724Y-59189772D01*
X65831661Y-59361975D01*
X65752404Y-59553319D01*
X65712000Y-59756443D01*
X63883900Y-59756443D01*
X63883900Y-59715772D01*
X63846249Y-59429783D01*
X63771591Y-59151155D01*
X63661204Y-58884655D01*
X63617293Y-58808600D01*
X63516976Y-58634846D01*
X63516975Y-58634844D01*
X63416101Y-58503383D01*
X63341379Y-58406002D01*
X63341377Y-58406000D01*
X63341374Y-58405996D01*
X63137404Y-58202026D01*
X63137399Y-58202022D01*
X63137397Y-58202020D01*
X62908553Y-58026423D01*
X62658746Y-57882196D01*
X62658741Y-57882194D01*
X62392246Y-57771809D01*
X62269388Y-57738889D01*
X62113617Y-57697151D01*
X62113614Y-57697150D01*
X62113612Y-57697150D01*
X61827629Y-57659500D01*
X61827628Y-57659500D01*
X61539172Y-57659500D01*
X61539170Y-57659500D01*
X61253190Y-57697150D01*
X61253185Y-57697150D01*
X60974553Y-57771809D01*
X60708058Y-57882194D01*
X60708053Y-57882196D01*
X60458246Y-58026423D01*
X60229402Y-58202020D01*
X60025420Y-58406002D01*
X59849823Y-58634846D01*
X59705596Y-58884653D01*
X59705594Y-58884658D01*
X59595209Y-59151153D01*
X59520550Y-59429785D01*
X59520550Y-59429790D01*
X59482900Y-59715770D01*
X57646710Y-59715770D01*
X57614395Y-59553319D01*
X57535138Y-59361975D01*
X57420075Y-59189772D01*
X57273627Y-59043324D01*
X57101424Y-58928261D01*
X56910080Y-58849004D01*
X56706956Y-58808600D01*
X56706954Y-58808600D01*
X56499846Y-58808600D01*
X56499843Y-58808600D01*
X56296719Y-58849004D01*
X56105375Y-58928261D01*
X55933172Y-59043324D01*
X55786724Y-59189772D01*
X55671661Y-59361975D01*
X55592404Y-59553319D01*
X55552000Y-59756443D01*
X48764299Y-59756443D01*
X48723895Y-59553318D01*
X48644638Y-59361975D01*
X48529575Y-59189772D01*
X48383128Y-59043325D01*
X48210925Y-58928262D01*
X48210926Y-58928262D01*
X48210924Y-58928261D01*
X48019580Y-58849004D01*
X47816456Y-58808600D01*
X47816454Y-58808600D01*
X47609346Y-58808600D01*
X47609343Y-58808600D01*
X47406219Y-58849004D01*
X47214875Y-58928261D01*
X47042672Y-59043324D01*
X46896224Y-59189772D01*
X46781161Y-59361975D01*
X46701904Y-59553319D01*
X46661500Y-59756443D01*
X44833400Y-59756443D01*
X44833400Y-59715772D01*
X44795749Y-59429783D01*
X44721091Y-59151155D01*
X44610704Y-58884655D01*
X44566793Y-58808600D01*
X44466476Y-58634846D01*
X44466475Y-58634844D01*
X44365601Y-58503383D01*
X44290879Y-58406002D01*
X44290877Y-58406000D01*
X44290874Y-58405996D01*
X44086904Y-58202026D01*
X44086899Y-58202022D01*
X44086897Y-58202020D01*
X43858053Y-58026423D01*
X43608246Y-57882196D01*
X43608241Y-57882194D01*
X43341746Y-57771809D01*
X43218888Y-57738889D01*
X43063117Y-57697151D01*
X43063114Y-57697150D01*
X43063112Y-57697150D01*
X42777129Y-57659500D01*
X42777128Y-57659500D01*
X42488672Y-57659500D01*
X42488670Y-57659500D01*
X42202690Y-57697150D01*
X42202685Y-57697150D01*
X41924053Y-57771809D01*
X41657558Y-57882194D01*
X41657553Y-57882196D01*
X41407746Y-58026423D01*
X41178902Y-58202020D01*
X40974920Y-58406002D01*
X40799323Y-58634846D01*
X40655096Y-58884653D01*
X40655094Y-58884658D01*
X40544709Y-59151153D01*
X40470050Y-59429785D01*
X40470050Y-59429790D01*
X40432400Y-59715770D01*
X38596210Y-59715770D01*
X38563895Y-59553319D01*
X38484638Y-59361975D01*
X38369575Y-59189772D01*
X38223127Y-59043324D01*
X38050924Y-58928261D01*
X37859580Y-58849004D01*
X37656456Y-58808600D01*
X37656454Y-58808600D01*
X37449346Y-58808600D01*
X37449343Y-58808600D01*
X37246219Y-58849004D01*
X37054875Y-58928261D01*
X36882672Y-59043324D01*
X36736224Y-59189772D01*
X36621161Y-59361975D01*
X36541904Y-59553319D01*
X36501500Y-59756443D01*
X29716399Y-59756443D01*
X29675995Y-59553318D01*
X29596738Y-59361975D01*
X29481675Y-59189772D01*
X29335228Y-59043325D01*
X29163025Y-58928262D01*
X29163026Y-58928262D01*
X29163024Y-58928261D01*
X28971680Y-58849004D01*
X28768556Y-58808600D01*
X28768554Y-58808600D01*
X28561446Y-58808600D01*
X28561443Y-58808600D01*
X28358319Y-58849004D01*
X28166975Y-58928261D01*
X27994772Y-59043324D01*
X27848324Y-59189772D01*
X27733261Y-59361975D01*
X27654004Y-59553319D01*
X27613600Y-59756443D01*
X25785500Y-59756443D01*
X25785500Y-59715772D01*
X25747849Y-59429783D01*
X25673191Y-59151155D01*
X25562804Y-58884655D01*
X25518893Y-58808600D01*
X25418576Y-58634846D01*
X25418575Y-58634844D01*
X25317701Y-58503383D01*
X25242979Y-58406002D01*
X25242977Y-58406000D01*
X25242974Y-58405996D01*
X25039004Y-58202026D01*
X25038999Y-58202022D01*
X25038997Y-58202020D01*
X24810153Y-58026423D01*
X24560346Y-57882196D01*
X24560341Y-57882194D01*
X24293846Y-57771809D01*
X24170988Y-57738889D01*
X24015217Y-57697151D01*
X24015214Y-57697150D01*
X24015212Y-57697150D01*
X23729229Y-57659500D01*
X23729228Y-57659500D01*
X23440772Y-57659500D01*
X23440770Y-57659500D01*
X23154790Y-57697150D01*
X23154785Y-57697150D01*
X22876153Y-57771809D01*
X22609658Y-57882194D01*
X22609653Y-57882196D01*
X22359846Y-58026423D01*
X22131002Y-58202020D01*
X21927020Y-58406002D01*
X21751423Y-58634846D01*
X21607196Y-58884653D01*
X21607194Y-58884658D01*
X21496809Y-59151153D01*
X21422150Y-59429785D01*
X21422150Y-59429790D01*
X21384500Y-59715770D01*
X19548310Y-59715770D01*
X19515995Y-59553319D01*
X19436738Y-59361975D01*
X19321675Y-59189772D01*
X19175227Y-59043324D01*
X19003024Y-58928261D01*
X18811680Y-58849004D01*
X18608556Y-58808600D01*
X18608554Y-58808600D01*
X18401446Y-58808600D01*
X18401443Y-58808600D01*
X18198319Y-58849004D01*
X18006975Y-58928261D01*
X17834772Y-59043324D01*
X17688324Y-59189772D01*
X17573261Y-59361975D01*
X17494004Y-59553319D01*
X17453600Y-59756443D01*
X300000Y-59756443D01*
X300000Y-40706443D01*
X17453600Y-40706443D01*
X17453600Y-40913556D01*
X17494004Y-41116680D01*
X17573261Y-41308024D01*
X17662669Y-41441831D01*
X17688325Y-41480228D01*
X17834772Y-41626675D01*
X18006975Y-41741738D01*
X18198318Y-41820995D01*
X18401446Y-41861400D01*
X18401447Y-41861400D01*
X18608553Y-41861400D01*
X18608554Y-41861400D01*
X18811682Y-41820995D01*
X19003025Y-41741738D01*
X19175228Y-41626675D01*
X19321675Y-41480228D01*
X19436738Y-41308025D01*
X19515995Y-41116682D01*
X19556400Y-40913554D01*
X19556400Y-40706446D01*
X19556399Y-40706440D01*
X19551507Y-40681844D01*
X19548310Y-40665770D01*
X21384500Y-40665770D01*
X21384500Y-40954229D01*
X21422150Y-41240209D01*
X21422150Y-41240214D01*
X21496809Y-41518846D01*
X21607194Y-41785341D01*
X21607196Y-41785346D01*
X21751423Y-42035153D01*
X21927020Y-42263997D01*
X21927022Y-42263999D01*
X21927026Y-42264004D01*
X22130996Y-42467974D01*
X22131000Y-42467977D01*
X22131002Y-42467979D01*
X22228383Y-42542701D01*
X22359844Y-42643575D01*
X22609655Y-42787804D01*
X22876155Y-42898191D01*
X23154783Y-42972849D01*
X23440772Y-43010500D01*
X23440773Y-43010500D01*
X23729227Y-43010500D01*
X23729228Y-43010500D01*
X24015217Y-42972849D01*
X24293845Y-42898191D01*
X24560345Y-42787804D01*
X24810156Y-42643575D01*
X25039004Y-42467974D01*
X25242974Y-42264004D01*
X25418575Y-42035156D01*
X25562804Y-41785345D01*
X25673191Y-41518845D01*
X25747849Y-41240217D01*
X25785500Y-40954228D01*
X25785500Y-40706443D01*
X27613600Y-40706443D01*
X27613600Y-40913556D01*
X27654004Y-41116680D01*
X27733261Y-41308024D01*
X27822669Y-41441831D01*
X27848325Y-41480228D01*
X27994772Y-41626675D01*
X28166975Y-41741738D01*
X28358318Y-41820995D01*
X28561446Y-41861400D01*
X28561447Y-41861400D01*
X28768553Y-41861400D01*
X28768554Y-41861400D01*
X28971682Y-41820995D01*
X29163025Y-41741738D01*
X29335228Y-41626675D01*
X29481675Y-41480228D01*
X29596738Y-41308025D01*
X29675995Y-41116682D01*
X29716400Y-40913554D01*
X29716400Y-40706446D01*
X29675995Y-40503318D01*
X29596738Y-40311975D01*
X29481675Y-40139772D01*
X29335228Y-39993325D01*
X29163025Y-39878262D01*
X29163026Y-39878262D01*
X29163024Y-39878261D01*
X28971680Y-39799004D01*
X28768556Y-39758600D01*
X28768554Y-39758600D01*
X28561446Y-39758600D01*
X28561443Y-39758600D01*
X28358319Y-39799004D01*
X28166975Y-39878261D01*
X27994772Y-39993324D01*
X27848324Y-40139772D01*
X27733261Y-40311975D01*
X27654004Y-40503319D01*
X27613600Y-40706443D01*
X25785500Y-40706443D01*
X25785500Y-40665772D01*
X25747849Y-40379783D01*
X25673191Y-40101155D01*
X25562804Y-39834655D01*
X25518893Y-39758600D01*
X25456104Y-39649846D01*
X25418575Y-39584844D01*
X25286987Y-39413355D01*
X25242979Y-39356002D01*
X25242977Y-39356000D01*
X25242974Y-39355996D01*
X25039004Y-39152026D01*
X25038999Y-39152022D01*
X25038997Y-39152020D01*
X24810153Y-38976423D01*
X24560346Y-38832196D01*
X24560341Y-38832194D01*
X24293846Y-38721809D01*
X24170988Y-38688889D01*
X24015217Y-38647151D01*
X24015214Y-38647150D01*
X24015212Y-38647150D01*
X23729229Y-38609500D01*
X23729228Y-38609500D01*
X23440772Y-38609500D01*
X23440770Y-38609500D01*
X23154790Y-38647150D01*
X23154785Y-38647150D01*
X22876153Y-38721809D01*
X22609658Y-38832194D01*
X22609653Y-38832196D01*
X22359846Y-38976423D01*
X22131002Y-39152020D01*
X21927020Y-39356002D01*
X21751423Y-39584846D01*
X21607196Y-39834653D01*
X21607194Y-39834658D01*
X21496809Y-40101153D01*
X21422150Y-40379785D01*
X21422150Y-40379790D01*
X21384500Y-40665770D01*
X19548310Y-40665770D01*
X19515995Y-40503319D01*
X19485275Y-40429155D01*
X19436738Y-40311975D01*
X19321675Y-40139772D01*
X19175228Y-39993325D01*
X19003025Y-39878262D01*
X19003026Y-39878262D01*
X19003024Y-39878261D01*
X18811680Y-39799004D01*
X18608556Y-39758600D01*
X18608554Y-39758600D01*
X18401446Y-39758600D01*
X18401443Y-39758600D01*
X18198319Y-39799004D01*
X18006975Y-39878261D01*
X17834772Y-39993324D01*
X17688324Y-40139772D01*
X17573261Y-40311975D01*
X17494004Y-40503319D01*
X17453600Y-40706443D01*
X300000Y-40706443D01*
X300000Y-37361053D01*
X18686500Y-37361053D01*
X18686500Y-39178546D01*
X18686501Y-39178558D01*
X18698132Y-39237027D01*
X18698133Y-39237031D01*
X18742448Y-39303352D01*
X18808769Y-39347667D01*
X18850642Y-39355996D01*
X18867241Y-39359298D01*
X18867246Y-39359298D01*
X18867252Y-39359300D01*
X18867253Y-39359300D01*
X20684747Y-39359300D01*
X20684748Y-39359300D01*
X20743231Y-39347667D01*
X20809552Y-39303352D01*
X20853867Y-39237031D01*
X20865500Y-39178548D01*
X20865500Y-37361052D01*
X20853867Y-37302569D01*
X20809552Y-37236248D01*
X20809548Y-37236245D01*
X20743233Y-37191934D01*
X20743231Y-37191933D01*
X20743228Y-37191932D01*
X20743227Y-37191932D01*
X20684758Y-37180301D01*
X20684748Y-37180300D01*
X18867252Y-37180300D01*
X18867251Y-37180300D01*
X18867241Y-37180301D01*
X18808772Y-37191932D01*
X18808766Y-37191934D01*
X18742451Y-37236245D01*
X18742445Y-37236251D01*
X18698134Y-37302566D01*
X18698132Y-37302572D01*
X18686501Y-37361041D01*
X18686500Y-37361053D01*
X300000Y-37361053D01*
X300000Y-21162585D01*
X12033600Y-21162585D01*
X12033600Y-21335814D01*
X12060697Y-21506902D01*
X12060698Y-21506906D01*
X12114223Y-21671638D01*
X12114225Y-21671641D01*
X12114226Y-21671644D01*
X12114227Y-21671645D01*
X12192868Y-21825988D01*
X12294686Y-21966128D01*
X12417172Y-22088614D01*
X12557312Y-22190432D01*
X12711655Y-22269073D01*
X12711657Y-22269073D01*
X12711658Y-22269074D01*
X12711661Y-22269076D01*
X12876393Y-22322601D01*
X12876397Y-22322602D01*
X13047486Y-22349700D01*
X13047489Y-22349700D01*
X13220714Y-22349700D01*
X13391802Y-22322602D01*
X13391806Y-22322601D01*
X13556538Y-22269076D01*
X13556540Y-22269074D01*
X13556545Y-22269073D01*
X13710888Y-22190432D01*
X13851028Y-22088614D01*
X13973514Y-21966128D01*
X14075332Y-21825988D01*
X14153973Y-21671645D01*
X14153974Y-21671640D01*
X14153976Y-21671638D01*
X14207501Y-21506906D01*
X14207502Y-21506902D01*
X14234600Y-21335814D01*
X14234600Y-21162585D01*
X17034800Y-21162585D01*
X17034800Y-21335814D01*
X17061897Y-21506902D01*
X17061898Y-21506906D01*
X17115423Y-21671638D01*
X17115425Y-21671641D01*
X17115426Y-21671644D01*
X17115427Y-21671645D01*
X17194068Y-21825988D01*
X17295886Y-21966128D01*
X17418372Y-22088614D01*
X17558512Y-22190432D01*
X17712855Y-22269073D01*
X17712857Y-22269073D01*
X17712858Y-22269074D01*
X17712861Y-22269076D01*
X17877593Y-22322601D01*
X17877597Y-22322602D01*
X18048686Y-22349700D01*
X18048689Y-22349700D01*
X18221914Y-22349700D01*
X18393002Y-22322602D01*
X18393006Y-22322601D01*
X18557738Y-22269076D01*
X18557740Y-22269074D01*
X18557745Y-22269073D01*
X18712088Y-22190432D01*
X18852228Y-22088614D01*
X18974714Y-21966128D01*
X19076532Y-21825988D01*
X19155173Y-21671645D01*
X19155174Y-21671640D01*
X19155176Y-21671638D01*
X19201722Y-21528385D01*
X23898300Y-21528385D01*
X23898300Y-21701614D01*
X23925397Y-21872702D01*
X23925398Y-21872706D01*
X23978923Y-22037438D01*
X23978925Y-22037441D01*
X24056877Y-22190433D01*
X24057568Y-22191788D01*
X24159386Y-22331928D01*
X24281872Y-22454414D01*
X24422012Y-22556232D01*
X24576355Y-22634873D01*
X24576357Y-22634873D01*
X24576358Y-22634874D01*
X24576361Y-22634876D01*
X24741093Y-22688401D01*
X24741097Y-22688402D01*
X24912186Y-22715500D01*
X24912189Y-22715500D01*
X25085414Y-22715500D01*
X25256502Y-22688402D01*
X25256506Y-22688401D01*
X25421238Y-22634876D01*
X25421240Y-22634874D01*
X25421245Y-22634873D01*
X25454390Y-22617985D01*
X27319700Y-22617985D01*
X27319700Y-22791214D01*
X27346797Y-22962302D01*
X27346798Y-22962306D01*
X27400323Y-23127038D01*
X27400325Y-23127041D01*
X27476199Y-23275955D01*
X27478968Y-23281388D01*
X27580786Y-23421528D01*
X27703272Y-23544014D01*
X27843412Y-23645832D01*
X27997755Y-23724473D01*
X27997757Y-23724473D01*
X27997758Y-23724474D01*
X27997761Y-23724476D01*
X28162493Y-23778001D01*
X28162497Y-23778002D01*
X28333586Y-23805100D01*
X28333589Y-23805100D01*
X28506814Y-23805100D01*
X28677902Y-23778002D01*
X28677906Y-23778001D01*
X28842638Y-23724476D01*
X28842640Y-23724474D01*
X28842645Y-23724473D01*
X28996988Y-23645832D01*
X29137128Y-23544014D01*
X29259614Y-23421528D01*
X29361432Y-23281388D01*
X29440073Y-23127045D01*
X29440074Y-23127040D01*
X29440076Y-23127038D01*
X29493601Y-22962306D01*
X29493602Y-22962302D01*
X29520700Y-22791214D01*
X29520700Y-22617985D01*
X29859700Y-22617985D01*
X29859700Y-22791214D01*
X29886797Y-22962302D01*
X29886798Y-22962306D01*
X29940323Y-23127038D01*
X29940325Y-23127041D01*
X30016199Y-23275955D01*
X30018968Y-23281388D01*
X30120786Y-23421528D01*
X30243272Y-23544014D01*
X30383412Y-23645832D01*
X30537755Y-23724473D01*
X30537757Y-23724473D01*
X30537758Y-23724474D01*
X30537761Y-23724476D01*
X30702493Y-23778001D01*
X30702497Y-23778002D01*
X30873586Y-23805100D01*
X30873589Y-23805100D01*
X31046814Y-23805100D01*
X31217902Y-23778002D01*
X31217906Y-23778001D01*
X31382638Y-23724476D01*
X31382640Y-23724474D01*
X31382645Y-23724473D01*
X31536988Y-23645832D01*
X31677128Y-23544014D01*
X31799614Y-23421528D01*
X31901432Y-23281388D01*
X31980073Y-23127045D01*
X31980074Y-23127040D01*
X31980076Y-23127038D01*
X32033601Y-22962306D01*
X32033602Y-22962302D01*
X32060700Y-22791214D01*
X32060700Y-22617985D01*
X32399700Y-22617985D01*
X32399700Y-22791214D01*
X32426797Y-22962302D01*
X32426798Y-22962306D01*
X32480323Y-23127038D01*
X32480325Y-23127041D01*
X32556199Y-23275955D01*
X32558968Y-23281388D01*
X32660786Y-23421528D01*
X32783272Y-23544014D01*
X32923412Y-23645832D01*
X33077755Y-23724473D01*
X33077757Y-23724473D01*
X33077758Y-23724474D01*
X33077761Y-23724476D01*
X33242493Y-23778001D01*
X33242497Y-23778002D01*
X33413586Y-23805100D01*
X33413589Y-23805100D01*
X33586814Y-23805100D01*
X33757902Y-23778002D01*
X33757906Y-23778001D01*
X33922638Y-23724476D01*
X33922640Y-23724474D01*
X33922645Y-23724473D01*
X34076988Y-23645832D01*
X34217128Y-23544014D01*
X34339614Y-23421528D01*
X34441432Y-23281388D01*
X34520073Y-23127045D01*
X34520074Y-23127040D01*
X34520076Y-23127038D01*
X34573601Y-22962306D01*
X34573602Y-22962302D01*
X34600700Y-22791214D01*
X34600700Y-22617985D01*
X34573602Y-22446897D01*
X34573601Y-22446893D01*
X34520076Y-22282161D01*
X34520074Y-22282158D01*
X34520073Y-22282157D01*
X34520073Y-22282155D01*
X34441432Y-22127812D01*
X34339614Y-21987672D01*
X34217128Y-21865186D01*
X34076988Y-21763368D01*
X34076987Y-21763367D01*
X34076985Y-21763366D01*
X33922641Y-21684725D01*
X33922638Y-21684723D01*
X33757906Y-21631198D01*
X33757902Y-21631197D01*
X33586814Y-21604100D01*
X33586811Y-21604100D01*
X33413589Y-21604100D01*
X33413586Y-21604100D01*
X33242497Y-21631197D01*
X33242493Y-21631198D01*
X33077761Y-21684723D01*
X33077758Y-21684725D01*
X32923414Y-21763366D01*
X32783273Y-21865185D01*
X32660785Y-21987673D01*
X32558966Y-22127814D01*
X32480325Y-22282158D01*
X32480323Y-22282161D01*
X32426798Y-22446893D01*
X32426797Y-22446897D01*
X32399700Y-22617985D01*
X32060700Y-22617985D01*
X32033602Y-22446897D01*
X32033601Y-22446893D01*
X31980076Y-22282161D01*
X31980074Y-22282158D01*
X31980073Y-22282157D01*
X31980073Y-22282155D01*
X31901432Y-22127812D01*
X31799614Y-21987672D01*
X31677128Y-21865186D01*
X31536988Y-21763368D01*
X31536987Y-21763367D01*
X31536985Y-21763366D01*
X31382641Y-21684725D01*
X31382638Y-21684723D01*
X31217906Y-21631198D01*
X31217902Y-21631197D01*
X31046814Y-21604100D01*
X31046811Y-21604100D01*
X30873589Y-21604100D01*
X30873586Y-21604100D01*
X30702497Y-21631197D01*
X30702493Y-21631198D01*
X30537761Y-21684723D01*
X30537758Y-21684725D01*
X30383414Y-21763366D01*
X30243273Y-21865185D01*
X30120785Y-21987673D01*
X30018966Y-22127814D01*
X29940325Y-22282158D01*
X29940323Y-22282161D01*
X29886798Y-22446893D01*
X29886797Y-22446897D01*
X29859700Y-22617985D01*
X29520700Y-22617985D01*
X29493602Y-22446897D01*
X29493601Y-22446893D01*
X29440076Y-22282161D01*
X29440074Y-22282158D01*
X29440073Y-22282157D01*
X29440073Y-22282155D01*
X29361432Y-22127812D01*
X29259614Y-21987672D01*
X29137128Y-21865186D01*
X28996988Y-21763368D01*
X28996987Y-21763367D01*
X28996985Y-21763366D01*
X28842641Y-21684725D01*
X28842638Y-21684723D01*
X28677906Y-21631198D01*
X28677902Y-21631197D01*
X28506814Y-21604100D01*
X28506811Y-21604100D01*
X28333589Y-21604100D01*
X28333586Y-21604100D01*
X28162497Y-21631197D01*
X28162493Y-21631198D01*
X27997761Y-21684723D01*
X27997758Y-21684725D01*
X27843414Y-21763366D01*
X27703273Y-21865185D01*
X27580785Y-21987673D01*
X27478966Y-22127814D01*
X27400325Y-22282158D01*
X27400323Y-22282161D01*
X27346798Y-22446893D01*
X27346797Y-22446897D01*
X27319700Y-22617985D01*
X25454390Y-22617985D01*
X25575588Y-22556232D01*
X25715728Y-22454414D01*
X25838214Y-22331928D01*
X25940032Y-22191788D01*
X26018673Y-22037445D01*
X26018674Y-22037440D01*
X26018676Y-22037438D01*
X26072201Y-21872706D01*
X26072202Y-21872702D01*
X26099300Y-21701614D01*
X26099300Y-21528385D01*
X26072202Y-21357297D01*
X26072201Y-21357293D01*
X26018676Y-21192561D01*
X26018674Y-21192558D01*
X26018673Y-21192557D01*
X26018673Y-21192555D01*
X25940032Y-21038212D01*
X25838214Y-20898072D01*
X25715728Y-20775586D01*
X25575588Y-20673768D01*
X25575587Y-20673767D01*
X25575585Y-20673766D01*
X25421241Y-20595125D01*
X25421238Y-20595123D01*
X25256506Y-20541598D01*
X25256502Y-20541597D01*
X25085414Y-20514500D01*
X25085411Y-20514500D01*
X24912189Y-20514500D01*
X24912186Y-20514500D01*
X24741097Y-20541597D01*
X24741093Y-20541598D01*
X24576361Y-20595123D01*
X24576358Y-20595125D01*
X24422014Y-20673766D01*
X24281873Y-20775585D01*
X24159385Y-20898073D01*
X24057566Y-21038214D01*
X23978925Y-21192558D01*
X23978923Y-21192561D01*
X23925398Y-21357293D01*
X23925397Y-21357297D01*
X23898300Y-21528385D01*
X19201722Y-21528385D01*
X19208701Y-21506906D01*
X19208701Y-21506904D01*
X19208700Y-21506904D01*
X19208702Y-21506901D01*
X19235800Y-21335811D01*
X19235800Y-21162589D01*
X19235800Y-21162585D01*
X19208702Y-20991497D01*
X19208701Y-20991493D01*
X19155176Y-20826761D01*
X19155174Y-20826758D01*
X19155173Y-20826757D01*
X19155173Y-20826755D01*
X19076532Y-20672412D01*
X18974714Y-20532272D01*
X18852228Y-20409786D01*
X18712088Y-20307968D01*
X18712087Y-20307967D01*
X18712085Y-20307966D01*
X18557741Y-20229325D01*
X18557738Y-20229323D01*
X18393006Y-20175798D01*
X18393002Y-20175797D01*
X18221914Y-20148700D01*
X18221911Y-20148700D01*
X18048689Y-20148700D01*
X18048686Y-20148700D01*
X17877597Y-20175797D01*
X17877593Y-20175798D01*
X17712861Y-20229323D01*
X17712858Y-20229325D01*
X17558514Y-20307966D01*
X17418373Y-20409785D01*
X17295885Y-20532273D01*
X17194066Y-20672414D01*
X17115425Y-20826758D01*
X17115423Y-20826761D01*
X17061898Y-20991493D01*
X17061897Y-20991497D01*
X17034800Y-21162585D01*
X14234600Y-21162585D01*
X14207502Y-20991497D01*
X14207501Y-20991493D01*
X14153976Y-20826761D01*
X14153974Y-20826758D01*
X14153973Y-20826757D01*
X14153973Y-20826755D01*
X14075332Y-20672412D01*
X13973514Y-20532272D01*
X13851028Y-20409786D01*
X13710888Y-20307968D01*
X13710887Y-20307967D01*
X13710885Y-20307966D01*
X13556541Y-20229325D01*
X13556538Y-20229323D01*
X13391806Y-20175798D01*
X13391802Y-20175797D01*
X13220714Y-20148700D01*
X13220711Y-20148700D01*
X13047489Y-20148700D01*
X13047486Y-20148700D01*
X12876397Y-20175797D01*
X12876393Y-20175798D01*
X12711661Y-20229323D01*
X12711658Y-20229325D01*
X12557314Y-20307966D01*
X12417173Y-20409785D01*
X12294685Y-20532273D01*
X12192866Y-20672414D01*
X12114225Y-20826758D01*
X12114223Y-20826761D01*
X12060698Y-20991493D01*
X12060697Y-20991497D01*
X12033600Y-21162585D01*
X300000Y-21162585D01*
X300000Y-18988385D01*
X23898300Y-18988385D01*
X23898300Y-19161614D01*
X23925397Y-19332702D01*
X23925398Y-19332706D01*
X23978923Y-19497438D01*
X23978925Y-19497441D01*
X24056299Y-19649299D01*
X24057568Y-19651788D01*
X24159386Y-19791928D01*
X24281872Y-19914414D01*
X24422012Y-20016232D01*
X24576355Y-20094873D01*
X24576357Y-20094873D01*
X24576358Y-20094874D01*
X24576361Y-20094876D01*
X24741093Y-20148401D01*
X24741097Y-20148402D01*
X24912186Y-20175500D01*
X24912189Y-20175500D01*
X25085414Y-20175500D01*
X25256502Y-20148402D01*
X25256506Y-20148401D01*
X25421238Y-20094876D01*
X25421240Y-20094874D01*
X25421245Y-20094873D01*
X25575588Y-20016232D01*
X25715728Y-19914414D01*
X25838214Y-19791928D01*
X25940032Y-19651788D01*
X26018673Y-19497445D01*
X26018674Y-19497440D01*
X26018676Y-19497438D01*
X26072201Y-19332706D01*
X26072202Y-19332702D01*
X26099300Y-19161614D01*
X26099300Y-18988385D01*
X26072202Y-18817297D01*
X26072201Y-18817293D01*
X26018676Y-18652561D01*
X26018674Y-18652558D01*
X26018673Y-18652557D01*
X26018673Y-18652555D01*
X25940032Y-18498212D01*
X25838214Y-18358072D01*
X25715728Y-18235586D01*
X25575588Y-18133768D01*
X25575587Y-18133767D01*
X25575585Y-18133766D01*
X25421241Y-18055125D01*
X25421238Y-18055123D01*
X25256506Y-18001598D01*
X25256502Y-18001597D01*
X25085414Y-17974500D01*
X25085411Y-17974500D01*
X24912189Y-17974500D01*
X24912186Y-17974500D01*
X24741097Y-18001597D01*
X24741093Y-18001598D01*
X24576361Y-18055123D01*
X24576358Y-18055125D01*
X24422014Y-18133766D01*
X24281873Y-18235585D01*
X24159385Y-18358073D01*
X24057566Y-18498214D01*
X23978925Y-18652558D01*
X23978923Y-18652561D01*
X23925398Y-18817293D01*
X23925397Y-18817297D01*
X23898300Y-18988385D01*
X300000Y-18988385D01*
X300000Y-16448385D01*
X23898300Y-16448385D01*
X23898300Y-16621614D01*
X23925397Y-16792702D01*
X23925398Y-16792706D01*
X23978923Y-16957438D01*
X23978925Y-16957441D01*
X24056299Y-17109299D01*
X24057568Y-17111788D01*
X24159386Y-17251928D01*
X24281872Y-17374414D01*
X24422012Y-17476232D01*
X24576355Y-17554873D01*
X24576357Y-17554873D01*
X24576358Y-17554874D01*
X24576361Y-17554876D01*
X24741093Y-17608401D01*
X24741097Y-17608402D01*
X24912186Y-17635500D01*
X24912189Y-17635500D01*
X25085414Y-17635500D01*
X25256502Y-17608402D01*
X25256506Y-17608401D01*
X25421238Y-17554876D01*
X25421240Y-17554874D01*
X25421245Y-17554873D01*
X25575588Y-17476232D01*
X25715728Y-17374414D01*
X25838214Y-17251928D01*
X25940032Y-17111788D01*
X26018673Y-16957445D01*
X26018674Y-16957440D01*
X26018676Y-16957438D01*
X26072201Y-16792706D01*
X26072202Y-16792702D01*
X26099300Y-16621614D01*
X26099300Y-16448385D01*
X26072202Y-16277297D01*
X26072201Y-16277293D01*
X26018676Y-16112561D01*
X26018674Y-16112558D01*
X26018673Y-16112557D01*
X26018673Y-16112555D01*
X25940032Y-15958212D01*
X25838214Y-15818072D01*
X25715728Y-15695586D01*
X25575588Y-15593768D01*
X25575587Y-15593767D01*
X25575585Y-15593766D01*
X25421241Y-15515125D01*
X25421238Y-15515123D01*
X25256506Y-15461598D01*
X25256502Y-15461597D01*
X25085414Y-15434500D01*
X25085411Y-15434500D01*
X24912189Y-15434500D01*
X24912186Y-15434500D01*
X24741097Y-15461597D01*
X24741093Y-15461598D01*
X24576361Y-15515123D01*
X24576358Y-15515125D01*
X24422014Y-15593766D01*
X24281873Y-15695585D01*
X24159385Y-15818073D01*
X24057566Y-15958214D01*
X23978925Y-16112558D01*
X23978923Y-16112561D01*
X23925398Y-16277293D01*
X23925397Y-16277297D01*
X23898300Y-16448385D01*
X300000Y-16448385D01*
X300000Y-13256715D01*
X8933800Y-13256715D01*
X8933800Y-14245684D01*
X8963358Y-14432313D01*
X9021753Y-14612032D01*
X9098403Y-14762468D01*
X9107540Y-14780399D01*
X9218610Y-14933273D01*
X9352227Y-15066890D01*
X9505101Y-15177960D01*
X9673468Y-15263747D01*
X9853182Y-15322140D01*
X9853183Y-15322140D01*
X9853186Y-15322141D01*
X10039816Y-15351700D01*
X10039819Y-15351700D01*
X10228784Y-15351700D01*
X10415413Y-15322141D01*
X10415414Y-15322140D01*
X10415418Y-15322140D01*
X10595132Y-15263747D01*
X10763499Y-15177960D01*
X10916373Y-15066890D01*
X11049990Y-14933273D01*
X11161060Y-14780399D01*
X11246847Y-14612032D01*
X11305240Y-14432318D01*
X11305241Y-14432313D01*
X11334800Y-14245684D01*
X11334800Y-13256715D01*
X19934600Y-13256715D01*
X19934600Y-14245684D01*
X19964158Y-14432313D01*
X20022553Y-14612032D01*
X20099203Y-14762468D01*
X20108340Y-14780399D01*
X20219410Y-14933273D01*
X20353027Y-15066890D01*
X20505901Y-15177960D01*
X20674268Y-15263747D01*
X20853982Y-15322140D01*
X20853983Y-15322140D01*
X20853986Y-15322141D01*
X21040616Y-15351700D01*
X21040619Y-15351700D01*
X21229584Y-15351700D01*
X21416213Y-15322141D01*
X21416214Y-15322140D01*
X21416218Y-15322140D01*
X21595932Y-15263747D01*
X21764299Y-15177960D01*
X21917173Y-15066890D01*
X22050790Y-14933273D01*
X22161860Y-14780399D01*
X22247647Y-14612032D01*
X22306040Y-14432318D01*
X22306041Y-14432313D01*
X22335600Y-14245684D01*
X22335600Y-13908385D01*
X23898300Y-13908385D01*
X23898300Y-14081614D01*
X23925397Y-14252702D01*
X23925398Y-14252706D01*
X23978923Y-14417438D01*
X23978925Y-14417441D01*
X24050162Y-14557254D01*
X24057568Y-14571788D01*
X24159386Y-14711928D01*
X24281872Y-14834414D01*
X24422012Y-14936232D01*
X24576355Y-15014873D01*
X24576357Y-15014873D01*
X24576358Y-15014874D01*
X24576361Y-15014876D01*
X24741093Y-15068401D01*
X24741097Y-15068402D01*
X24912186Y-15095500D01*
X24912189Y-15095500D01*
X25085414Y-15095500D01*
X25256502Y-15068402D01*
X25256506Y-15068401D01*
X25421238Y-15014876D01*
X25421240Y-15014874D01*
X25421245Y-15014873D01*
X25575588Y-14936232D01*
X25715728Y-14834414D01*
X25838214Y-14711928D01*
X25940032Y-14571788D01*
X26018673Y-14417445D01*
X26018674Y-14417440D01*
X26018676Y-14417438D01*
X26072201Y-14252706D01*
X26072202Y-14252702D01*
X26099300Y-14081614D01*
X26099300Y-13908385D01*
X26072202Y-13737297D01*
X26072201Y-13737293D01*
X26018676Y-13572561D01*
X26018674Y-13572558D01*
X26018673Y-13572557D01*
X26018673Y-13572555D01*
X25940032Y-13418212D01*
X25838214Y-13278072D01*
X25715728Y-13155586D01*
X25575588Y-13053768D01*
X25575587Y-13053767D01*
X25575585Y-13053766D01*
X25421241Y-12975125D01*
X25421238Y-12975123D01*
X25256506Y-12921598D01*
X25256502Y-12921597D01*
X25085414Y-12894500D01*
X25085411Y-12894500D01*
X24912189Y-12894500D01*
X24912186Y-12894500D01*
X24741097Y-12921597D01*
X24741093Y-12921598D01*
X24576361Y-12975123D01*
X24576358Y-12975125D01*
X24422014Y-13053766D01*
X24281873Y-13155585D01*
X24159385Y-13278073D01*
X24057566Y-13418214D01*
X23978925Y-13572558D01*
X23978923Y-13572561D01*
X23925398Y-13737293D01*
X23925397Y-13737297D01*
X23898300Y-13908385D01*
X22335600Y-13908385D01*
X22335600Y-13256715D01*
X22306041Y-13070086D01*
X22300739Y-13053768D01*
X22247647Y-12890368D01*
X22161860Y-12722001D01*
X22050790Y-12569127D01*
X21917173Y-12435510D01*
X21764299Y-12324440D01*
X21764298Y-12324439D01*
X21764296Y-12324438D01*
X21595932Y-12238653D01*
X21416213Y-12180258D01*
X21229584Y-12150700D01*
X21229581Y-12150700D01*
X21040619Y-12150700D01*
X21040616Y-12150700D01*
X20853986Y-12180258D01*
X20674267Y-12238653D01*
X20505903Y-12324438D01*
X20353028Y-12435509D01*
X20219409Y-12569128D01*
X20108338Y-12722003D01*
X20022553Y-12890367D01*
X19964158Y-13070086D01*
X19934600Y-13256715D01*
X11334800Y-13256715D01*
X11305241Y-13070086D01*
X11299939Y-13053768D01*
X11246847Y-12890368D01*
X11161060Y-12722001D01*
X11049990Y-12569127D01*
X10916373Y-12435510D01*
X10763499Y-12324440D01*
X10763498Y-12324439D01*
X10763496Y-12324438D01*
X10595132Y-12238653D01*
X10415413Y-12180258D01*
X10228784Y-12150700D01*
X10228781Y-12150700D01*
X10039819Y-12150700D01*
X10039816Y-12150700D01*
X9853186Y-12180258D01*
X9673467Y-12238653D01*
X9505103Y-12324438D01*
X9352228Y-12435509D01*
X9218609Y-12569128D01*
X9107538Y-12722003D01*
X9021753Y-12890367D01*
X8963358Y-13070086D01*
X8933800Y-13256715D01*
X300000Y-13256715D01*
X300000Y-6664285D01*
X12033600Y-6664285D01*
X12033600Y-6837514D01*
X12060697Y-7008602D01*
X12060698Y-7008606D01*
X12114223Y-7173338D01*
X12114225Y-7173341D01*
X12187030Y-7316232D01*
X12192868Y-7327688D01*
X12294686Y-7467828D01*
X12417172Y-7590314D01*
X12557312Y-7692132D01*
X12711655Y-7770773D01*
X12711657Y-7770773D01*
X12711658Y-7770774D01*
X12711661Y-7770776D01*
X12876393Y-7824301D01*
X12876397Y-7824302D01*
X13047486Y-7851400D01*
X13047489Y-7851400D01*
X13220714Y-7851400D01*
X13391802Y-7824302D01*
X13391806Y-7824301D01*
X13556538Y-7770776D01*
X13556540Y-7770774D01*
X13556545Y-7770773D01*
X13710888Y-7692132D01*
X13851028Y-7590314D01*
X13973514Y-7467828D01*
X14075332Y-7327688D01*
X14153973Y-7173345D01*
X14153974Y-7173340D01*
X14153976Y-7173338D01*
X14207501Y-7008606D01*
X14207502Y-7008602D01*
X14234600Y-6837514D01*
X14234600Y-6664285D01*
X14207502Y-6493197D01*
X14207501Y-6493193D01*
X14153977Y-6328465D01*
X14153974Y-6328460D01*
X14153973Y-6328455D01*
X14141303Y-6303589D01*
X14131732Y-6243162D01*
X14159506Y-6188647D01*
X14424159Y-5923996D01*
X14478675Y-5896219D01*
X14494162Y-5895000D01*
X18531037Y-5895000D01*
X18589228Y-5913907D01*
X18601041Y-5923996D01*
X23124110Y-10447065D01*
X23198790Y-10490181D01*
X23198792Y-10490181D01*
X23198793Y-10490182D01*
X23240437Y-10501340D01*
X23282081Y-10512499D01*
X23282083Y-10512500D01*
X23282084Y-10512500D01*
X23368316Y-10512500D01*
X24145951Y-10512500D01*
X24204142Y-10531407D01*
X24240106Y-10580907D01*
X24240106Y-10642093D01*
X24215956Y-10681501D01*
X24159386Y-10738072D01*
X24159385Y-10738073D01*
X24057566Y-10878214D01*
X23978925Y-11032558D01*
X23978923Y-11032561D01*
X23925398Y-11197293D01*
X23925397Y-11197297D01*
X23898300Y-11368385D01*
X23898300Y-11541614D01*
X23925397Y-11712702D01*
X23925398Y-11712706D01*
X23978923Y-11877438D01*
X23978925Y-11877441D01*
X24022385Y-11962738D01*
X24057568Y-12031788D01*
X24159386Y-12171928D01*
X24281872Y-12294414D01*
X24422012Y-12396232D01*
X24576355Y-12474873D01*
X24576357Y-12474873D01*
X24576358Y-12474874D01*
X24576361Y-12474876D01*
X24741093Y-12528401D01*
X24741097Y-12528402D01*
X24912186Y-12555500D01*
X24912189Y-12555500D01*
X25085414Y-12555500D01*
X25256502Y-12528402D01*
X25256506Y-12528401D01*
X25421238Y-12474876D01*
X25421240Y-12474874D01*
X25421245Y-12474873D01*
X25575588Y-12396232D01*
X25715728Y-12294414D01*
X25838214Y-12171928D01*
X25940032Y-12031788D01*
X26018673Y-11877445D01*
X26018674Y-11877440D01*
X26018676Y-11877438D01*
X26072201Y-11712706D01*
X26072202Y-11712702D01*
X26099300Y-11541614D01*
X26099300Y-11535563D01*
X26118207Y-11477372D01*
X26167707Y-11441408D01*
X26228893Y-11441408D01*
X26268304Y-11465559D01*
X35683704Y-20880959D01*
X35711481Y-20935476D01*
X35712700Y-20950963D01*
X35712700Y-21581949D01*
X35693793Y-21640140D01*
X35644294Y-21676103D01*
X35617758Y-21684725D01*
X35463414Y-21763366D01*
X35323273Y-21865185D01*
X35200785Y-21987673D01*
X35098966Y-22127814D01*
X35020325Y-22282158D01*
X35020323Y-22282161D01*
X34966798Y-22446893D01*
X34966797Y-22446897D01*
X34939700Y-22617985D01*
X34939700Y-22791214D01*
X34966797Y-22962302D01*
X34966798Y-22962306D01*
X35020323Y-23127038D01*
X35020325Y-23127041D01*
X35096199Y-23275955D01*
X35098968Y-23281388D01*
X35200786Y-23421528D01*
X35323272Y-23544014D01*
X35463412Y-23645832D01*
X35617755Y-23724473D01*
X35617757Y-23724473D01*
X35617758Y-23724474D01*
X35617761Y-23724476D01*
X35782493Y-23778001D01*
X35782497Y-23778002D01*
X35953586Y-23805100D01*
X35953589Y-23805100D01*
X36126814Y-23805100D01*
X36297902Y-23778002D01*
X36297906Y-23778001D01*
X36462638Y-23724476D01*
X36462640Y-23724474D01*
X36462645Y-23724473D01*
X36616988Y-23645832D01*
X36757128Y-23544014D01*
X36812198Y-23488943D01*
X36866713Y-23461168D01*
X36927145Y-23470739D01*
X36970410Y-23514004D01*
X36981200Y-23558949D01*
X36981200Y-36552137D01*
X36962293Y-36610328D01*
X36952204Y-36622141D01*
X19574910Y-53999435D01*
X19574909Y-53999434D01*
X19513937Y-54060407D01*
X19470817Y-54135092D01*
X19470817Y-54135093D01*
X19448500Y-54218381D01*
X19448500Y-56131300D01*
X19429593Y-56189491D01*
X19380093Y-56225455D01*
X19349500Y-56230300D01*
X18867252Y-56230300D01*
X18867251Y-56230300D01*
X18867241Y-56230301D01*
X18808772Y-56241932D01*
X18808766Y-56241934D01*
X18742451Y-56286245D01*
X18742445Y-56286251D01*
X18698134Y-56352566D01*
X18698132Y-56352572D01*
X18686501Y-56411041D01*
X18686500Y-56411053D01*
X18686500Y-58228546D01*
X18686501Y-58228558D01*
X18698132Y-58287027D01*
X18698133Y-58287031D01*
X18742448Y-58353352D01*
X18808769Y-58397667D01*
X18850642Y-58405996D01*
X18867241Y-58409298D01*
X18867246Y-58409298D01*
X18867252Y-58409300D01*
X18867253Y-58409300D01*
X20684747Y-58409300D01*
X20684748Y-58409300D01*
X20743231Y-58397667D01*
X20809552Y-58353352D01*
X20853867Y-58287031D01*
X20865500Y-58228548D01*
X20865500Y-56411052D01*
X20853867Y-56352569D01*
X20809552Y-56286248D01*
X20809548Y-56286245D01*
X20743233Y-56241934D01*
X20743231Y-56241933D01*
X20743228Y-56241932D01*
X20743227Y-56241932D01*
X20684758Y-56230301D01*
X20684748Y-56230300D01*
X20684747Y-56230300D01*
X20202500Y-56230300D01*
X20144309Y-56211393D01*
X20108345Y-56161893D01*
X20103500Y-56131300D01*
X20103500Y-54438163D01*
X20122407Y-54379972D01*
X20132496Y-54368159D01*
X37118496Y-37382159D01*
X37173013Y-37354382D01*
X37233445Y-37363953D01*
X37276710Y-37407218D01*
X37287500Y-37452163D01*
X37287500Y-39309518D01*
X37309817Y-39392806D01*
X37309817Y-39392807D01*
X37323485Y-39416481D01*
X37352935Y-39467490D01*
X37480776Y-39595331D01*
X37508552Y-39649846D01*
X37498981Y-39710278D01*
X37455716Y-39753543D01*
X37430085Y-39762431D01*
X37246219Y-39799004D01*
X37054875Y-39878261D01*
X36882672Y-39993324D01*
X36736224Y-40139772D01*
X36621161Y-40311975D01*
X36541904Y-40503319D01*
X36501500Y-40706443D01*
X36501500Y-40913556D01*
X36541904Y-41116680D01*
X36621161Y-41308024D01*
X36710569Y-41441831D01*
X36736225Y-41480228D01*
X36882672Y-41626675D01*
X37054875Y-41741738D01*
X37246218Y-41820995D01*
X37449346Y-41861400D01*
X37449347Y-41861400D01*
X37656453Y-41861400D01*
X37656454Y-41861400D01*
X37859582Y-41820995D01*
X38050925Y-41741738D01*
X38223128Y-41626675D01*
X38369575Y-41480228D01*
X38429385Y-41390715D01*
X38477434Y-41352837D01*
X38538573Y-41350435D01*
X38589446Y-41384428D01*
X38610624Y-41441831D01*
X38610700Y-41445718D01*
X38610700Y-55858737D01*
X38591793Y-55916928D01*
X38581705Y-55928739D01*
X38561837Y-55948607D01*
X38518717Y-56023292D01*
X38518717Y-56023293D01*
X38496400Y-56106581D01*
X38496400Y-56131300D01*
X38477493Y-56189491D01*
X38427993Y-56225455D01*
X38397400Y-56230300D01*
X37915152Y-56230300D01*
X37915151Y-56230300D01*
X37915141Y-56230301D01*
X37856672Y-56241932D01*
X37856666Y-56241934D01*
X37790351Y-56286245D01*
X37790345Y-56286251D01*
X37746034Y-56352566D01*
X37746032Y-56352572D01*
X37734401Y-56411041D01*
X37734400Y-56411053D01*
X37734400Y-58228546D01*
X37734401Y-58228558D01*
X37746032Y-58287027D01*
X37746033Y-58287031D01*
X37790348Y-58353352D01*
X37856669Y-58397667D01*
X37898542Y-58405996D01*
X37915141Y-58409298D01*
X37915146Y-58409298D01*
X37915152Y-58409300D01*
X37915153Y-58409300D01*
X39732647Y-58409300D01*
X39732648Y-58409300D01*
X39791131Y-58397667D01*
X39857452Y-58353352D01*
X39901767Y-58287031D01*
X39913400Y-58228548D01*
X39913400Y-56411052D01*
X39901767Y-56352569D01*
X39857452Y-56286248D01*
X39857448Y-56286245D01*
X39791133Y-56241934D01*
X39791131Y-56241933D01*
X39791128Y-56241932D01*
X39791127Y-56241932D01*
X39732658Y-56230301D01*
X39732648Y-56230300D01*
X39732647Y-56230300D01*
X39354049Y-56230300D01*
X39295858Y-56211393D01*
X39259894Y-56161893D01*
X39258422Y-56105677D01*
X39265700Y-56078515D01*
X39265700Y-40665770D01*
X40432400Y-40665770D01*
X40432400Y-40954229D01*
X40470050Y-41240209D01*
X40470050Y-41240214D01*
X40544709Y-41518846D01*
X40655094Y-41785341D01*
X40655096Y-41785346D01*
X40799323Y-42035153D01*
X40974920Y-42263997D01*
X40974922Y-42263999D01*
X40974926Y-42264004D01*
X41178896Y-42467974D01*
X41178900Y-42467977D01*
X41178902Y-42467979D01*
X41276283Y-42542701D01*
X41407744Y-42643575D01*
X41657555Y-42787804D01*
X41924055Y-42898191D01*
X42202683Y-42972849D01*
X42488672Y-43010500D01*
X42488673Y-43010500D01*
X42777127Y-43010500D01*
X42777128Y-43010500D01*
X43063117Y-42972849D01*
X43341745Y-42898191D01*
X43608245Y-42787804D01*
X43858056Y-42643575D01*
X44086904Y-42467974D01*
X44290874Y-42264004D01*
X44466475Y-42035156D01*
X44610704Y-41785345D01*
X44721091Y-41518845D01*
X44795749Y-41240217D01*
X44833400Y-40954228D01*
X44833400Y-40706443D01*
X46661500Y-40706443D01*
X46661500Y-40913556D01*
X46701904Y-41116680D01*
X46781161Y-41308024D01*
X46870569Y-41441831D01*
X46896225Y-41480228D01*
X47042672Y-41626675D01*
X47214875Y-41741738D01*
X47406218Y-41820995D01*
X47609346Y-41861400D01*
X47609347Y-41861400D01*
X47816453Y-41861400D01*
X47816454Y-41861400D01*
X48019582Y-41820995D01*
X48210925Y-41741738D01*
X48383128Y-41626675D01*
X48529575Y-41480228D01*
X48644638Y-41308025D01*
X48723895Y-41116682D01*
X48764300Y-40913554D01*
X48764300Y-40706446D01*
X48723895Y-40503318D01*
X48644638Y-40311975D01*
X48529575Y-40139772D01*
X48383128Y-39993325D01*
X48210925Y-39878262D01*
X48210926Y-39878262D01*
X48210924Y-39878261D01*
X48019580Y-39799004D01*
X47816456Y-39758600D01*
X47816454Y-39758600D01*
X47609346Y-39758600D01*
X47609343Y-39758600D01*
X47406219Y-39799004D01*
X47214875Y-39878261D01*
X47042672Y-39993324D01*
X46896224Y-40139772D01*
X46781161Y-40311975D01*
X46701904Y-40503319D01*
X46661500Y-40706443D01*
X44833400Y-40706443D01*
X44833400Y-40665772D01*
X44795749Y-40379783D01*
X44721091Y-40101155D01*
X44610704Y-39834655D01*
X44566793Y-39758600D01*
X44504004Y-39649846D01*
X44466475Y-39584844D01*
X44334887Y-39413355D01*
X44290879Y-39356002D01*
X44290877Y-39356000D01*
X44290874Y-39355996D01*
X44086904Y-39152026D01*
X44086899Y-39152022D01*
X44086897Y-39152020D01*
X43858053Y-38976423D01*
X43608246Y-38832196D01*
X43608241Y-38832194D01*
X43341746Y-38721809D01*
X43218888Y-38688889D01*
X43063117Y-38647151D01*
X43063114Y-38647150D01*
X43063112Y-38647150D01*
X42777129Y-38609500D01*
X42777128Y-38609500D01*
X42488672Y-38609500D01*
X42488670Y-38609500D01*
X42202690Y-38647150D01*
X42202685Y-38647150D01*
X41924053Y-38721809D01*
X41657558Y-38832194D01*
X41657553Y-38832196D01*
X41407746Y-38976423D01*
X41178902Y-39152020D01*
X40974920Y-39356002D01*
X40799323Y-39584846D01*
X40655096Y-39834653D01*
X40655094Y-39834658D01*
X40544709Y-40101153D01*
X40470050Y-40379785D01*
X40470050Y-40379790D01*
X40432400Y-40665770D01*
X39265700Y-40665770D01*
X39265700Y-40250383D01*
X39265699Y-40250381D01*
X39243382Y-40167093D01*
X39243382Y-40167092D01*
X39227609Y-40139772D01*
X39200265Y-40092410D01*
X39200262Y-40092407D01*
X39139290Y-40031434D01*
X39139290Y-40031435D01*
X38636159Y-39528304D01*
X38608382Y-39473787D01*
X38617953Y-39413355D01*
X38661218Y-39370090D01*
X38706163Y-39359300D01*
X39732647Y-39359300D01*
X39732648Y-39359300D01*
X39791131Y-39347667D01*
X39857452Y-39303352D01*
X39901767Y-39237031D01*
X39913400Y-39178548D01*
X39913400Y-37361052D01*
X39901767Y-37302569D01*
X39857452Y-37236248D01*
X39857448Y-37236245D01*
X39791133Y-37191934D01*
X39791131Y-37191933D01*
X39791128Y-37191932D01*
X39791127Y-37191932D01*
X39732658Y-37180301D01*
X39732648Y-37180300D01*
X39732647Y-37180300D01*
X39445463Y-37180300D01*
X39387272Y-37161393D01*
X39351308Y-37111893D01*
X39351308Y-37050707D01*
X39375459Y-37011296D01*
X39907118Y-36479637D01*
X42261065Y-34125690D01*
X42261067Y-34125685D01*
X42261070Y-34125683D01*
X42304179Y-34051015D01*
X42304179Y-34051013D01*
X42304181Y-34051011D01*
X42326500Y-33967716D01*
X42326500Y-33881485D01*
X42326500Y-25397644D01*
X46499500Y-25397644D01*
X46499500Y-25602355D01*
X46531521Y-25804529D01*
X46594780Y-25999219D01*
X46687712Y-26181609D01*
X46687714Y-26181613D01*
X46808029Y-26347213D01*
X46808031Y-26347215D01*
X46808034Y-26347219D01*
X46952781Y-26491966D01*
X46952784Y-26491968D01*
X46952786Y-26491970D01*
X47118386Y-26612285D01*
X47118390Y-26612287D01*
X47300781Y-26705220D01*
X47495466Y-26768477D01*
X47495467Y-26768477D01*
X47495470Y-26768478D01*
X47697645Y-26800500D01*
X47697648Y-26800500D01*
X47902355Y-26800500D01*
X48104529Y-26768478D01*
X48104530Y-26768477D01*
X48104534Y-26768477D01*
X48299219Y-26705220D01*
X48481610Y-26612287D01*
X48647219Y-26491966D01*
X48791966Y-26347219D01*
X48912287Y-26181610D01*
X49005220Y-25999219D01*
X49068477Y-25804534D01*
X49100500Y-25602352D01*
X49100500Y-25397648D01*
X49100500Y-25397644D01*
X49068478Y-25195470D01*
X49068477Y-25195466D01*
X49005220Y-25000781D01*
X48912287Y-24818390D01*
X48912285Y-24818386D01*
X48791970Y-24652786D01*
X48791968Y-24652784D01*
X48791966Y-24652781D01*
X48647219Y-24508034D01*
X48647215Y-24508031D01*
X48647213Y-24508029D01*
X48481613Y-24387714D01*
X48481609Y-24387712D01*
X48299219Y-24294780D01*
X48104529Y-24231521D01*
X47902355Y-24199500D01*
X47902352Y-24199500D01*
X47697648Y-24199500D01*
X47697645Y-24199500D01*
X47495470Y-24231521D01*
X47300780Y-24294780D01*
X47118390Y-24387712D01*
X47118386Y-24387714D01*
X46952786Y-24508029D01*
X46808029Y-24652786D01*
X46687714Y-24818386D01*
X46687712Y-24818390D01*
X46594780Y-25000780D01*
X46531521Y-25195470D01*
X46499500Y-25397644D01*
X42326500Y-25397644D01*
X42326500Y-22737650D01*
X42345407Y-22679459D01*
X42394905Y-22643496D01*
X42421445Y-22634873D01*
X42575788Y-22556232D01*
X42715928Y-22454414D01*
X42838414Y-22331928D01*
X42940232Y-22191788D01*
X43018873Y-22037445D01*
X43018874Y-22037440D01*
X43018876Y-22037438D01*
X43072401Y-21872706D01*
X43072402Y-21872702D01*
X43099500Y-21701614D01*
X43099500Y-21528385D01*
X43072402Y-21357297D01*
X43072401Y-21357293D01*
X43018876Y-21192561D01*
X43018874Y-21192558D01*
X43018873Y-21192557D01*
X43018873Y-21192555D01*
X42940232Y-21038212D01*
X42838414Y-20898072D01*
X42715928Y-20775586D01*
X42575788Y-20673768D01*
X42575787Y-20673767D01*
X42575785Y-20673766D01*
X42421441Y-20595125D01*
X42421438Y-20595123D01*
X42256706Y-20541598D01*
X42256702Y-20541597D01*
X42085614Y-20514500D01*
X42085611Y-20514500D01*
X41912389Y-20514500D01*
X41912386Y-20514500D01*
X41741297Y-20541597D01*
X41741293Y-20541598D01*
X41576561Y-20595123D01*
X41576558Y-20595125D01*
X41422214Y-20673766D01*
X41282073Y-20775585D01*
X41282072Y-20775586D01*
X41225501Y-20832156D01*
X41170987Y-20859932D01*
X41110555Y-20850361D01*
X41067290Y-20807096D01*
X41056500Y-20762151D01*
X41056500Y-19927849D01*
X41075407Y-19869658D01*
X41124907Y-19833694D01*
X41186093Y-19833694D01*
X41225501Y-19857843D01*
X41282072Y-19914414D01*
X41422212Y-20016232D01*
X41576555Y-20094873D01*
X41576557Y-20094873D01*
X41576558Y-20094874D01*
X41576561Y-20094876D01*
X41741293Y-20148401D01*
X41741297Y-20148402D01*
X41912386Y-20175500D01*
X41912389Y-20175500D01*
X42085614Y-20175500D01*
X42256702Y-20148402D01*
X42256706Y-20148401D01*
X42421438Y-20094876D01*
X42421440Y-20094874D01*
X42421445Y-20094873D01*
X42575788Y-20016232D01*
X42715928Y-19914414D01*
X42838414Y-19791928D01*
X42940232Y-19651788D01*
X43018873Y-19497445D01*
X43018874Y-19497440D01*
X43018876Y-19497438D01*
X43072401Y-19332706D01*
X43072402Y-19332702D01*
X43099500Y-19161614D01*
X43099500Y-18988385D01*
X43072402Y-18817297D01*
X43072401Y-18817293D01*
X43018876Y-18652561D01*
X43018874Y-18652558D01*
X43018873Y-18652557D01*
X43018873Y-18652555D01*
X42940232Y-18498212D01*
X42838414Y-18358072D01*
X42715928Y-18235586D01*
X42575788Y-18133768D01*
X42575787Y-18133767D01*
X42575785Y-18133766D01*
X42421441Y-18055125D01*
X42421438Y-18055123D01*
X42256706Y-18001598D01*
X42256702Y-18001597D01*
X42085614Y-17974500D01*
X42085611Y-17974500D01*
X41912389Y-17974500D01*
X41912386Y-17974500D01*
X41741297Y-18001597D01*
X41741293Y-18001598D01*
X41576561Y-18055123D01*
X41576558Y-18055125D01*
X41422214Y-18133766D01*
X41282073Y-18235585D01*
X41282072Y-18235586D01*
X41225501Y-18292156D01*
X41170987Y-18319932D01*
X41110555Y-18310361D01*
X41067290Y-18267096D01*
X41056500Y-18222151D01*
X41056500Y-17387849D01*
X41075407Y-17329658D01*
X41124907Y-17293694D01*
X41186093Y-17293694D01*
X41225501Y-17317843D01*
X41282072Y-17374414D01*
X41422212Y-17476232D01*
X41576555Y-17554873D01*
X41576557Y-17554873D01*
X41576558Y-17554874D01*
X41576561Y-17554876D01*
X41741293Y-17608401D01*
X41741297Y-17608402D01*
X41912386Y-17635500D01*
X41912389Y-17635500D01*
X42085614Y-17635500D01*
X42256702Y-17608402D01*
X42256706Y-17608401D01*
X42421438Y-17554876D01*
X42421440Y-17554874D01*
X42421445Y-17554873D01*
X42575788Y-17476232D01*
X42715928Y-17374414D01*
X42838414Y-17251928D01*
X42940232Y-17111788D01*
X43018873Y-16957445D01*
X43018874Y-16957440D01*
X43018876Y-16957438D01*
X43072401Y-16792706D01*
X43072402Y-16792702D01*
X43099500Y-16621614D01*
X43099500Y-16448385D01*
X43072402Y-16277297D01*
X43072401Y-16277293D01*
X43018876Y-16112562D01*
X43018873Y-16112558D01*
X43018873Y-16112555D01*
X43006203Y-16087690D01*
X42996633Y-16027259D01*
X43024408Y-15972745D01*
X43518665Y-15478490D01*
X43561781Y-15403810D01*
X43584100Y-15320516D01*
X43584100Y-15234284D01*
X43584100Y-13742263D01*
X43603007Y-13684072D01*
X43652507Y-13648108D01*
X43713693Y-13648108D01*
X43753104Y-13672259D01*
X51803604Y-21722759D01*
X51831381Y-21777276D01*
X51832600Y-21792763D01*
X51832600Y-50478518D01*
X51854917Y-50561806D01*
X51854917Y-50561807D01*
X51854919Y-50561810D01*
X51898035Y-50636490D01*
X55260979Y-53999434D01*
X57322841Y-56061296D01*
X57350618Y-56115813D01*
X57341047Y-56176245D01*
X57297782Y-56219510D01*
X57252837Y-56230300D01*
X56965652Y-56230300D01*
X56965651Y-56230300D01*
X56965641Y-56230301D01*
X56907172Y-56241932D01*
X56907166Y-56241934D01*
X56840851Y-56286245D01*
X56840845Y-56286251D01*
X56796534Y-56352566D01*
X56796532Y-56352572D01*
X56784901Y-56411041D01*
X56784900Y-56411053D01*
X56784900Y-58228546D01*
X56784901Y-58228558D01*
X56796532Y-58287027D01*
X56796533Y-58287031D01*
X56840848Y-58353352D01*
X56907169Y-58397667D01*
X56949042Y-58405996D01*
X56965641Y-58409298D01*
X56965646Y-58409298D01*
X56965652Y-58409300D01*
X56965653Y-58409300D01*
X58783147Y-58409300D01*
X58783148Y-58409300D01*
X58841631Y-58397667D01*
X58907952Y-58353352D01*
X58952267Y-58287031D01*
X58963900Y-58228548D01*
X58963900Y-56411052D01*
X58952267Y-56352569D01*
X58907952Y-56286248D01*
X58907948Y-56286245D01*
X58841633Y-56241934D01*
X58841631Y-56241933D01*
X58841628Y-56241932D01*
X58841627Y-56241932D01*
X58783158Y-56230301D01*
X58783148Y-56230300D01*
X58783147Y-56230300D01*
X58300900Y-56230300D01*
X58242709Y-56211393D01*
X58206745Y-56161893D01*
X58201900Y-56131300D01*
X58201900Y-56106583D01*
X58201899Y-56106581D01*
X58179582Y-56023293D01*
X58179582Y-56023292D01*
X58179581Y-56023290D01*
X58136465Y-55948610D01*
X58116594Y-55928739D01*
X58075490Y-55887634D01*
X58075490Y-55887635D01*
X52516596Y-50328741D01*
X52488819Y-50274224D01*
X52487600Y-50258737D01*
X52487600Y-40706443D01*
X55552000Y-40706443D01*
X55552000Y-40913556D01*
X55592404Y-41116680D01*
X55671661Y-41308024D01*
X55761069Y-41441831D01*
X55786725Y-41480228D01*
X55933172Y-41626675D01*
X56105375Y-41741738D01*
X56296718Y-41820995D01*
X56499846Y-41861400D01*
X56499847Y-41861400D01*
X56706953Y-41861400D01*
X56706954Y-41861400D01*
X56910082Y-41820995D01*
X57101425Y-41741738D01*
X57273628Y-41626675D01*
X57420075Y-41480228D01*
X57535138Y-41308025D01*
X57614395Y-41116682D01*
X57654800Y-40913554D01*
X57654800Y-40706446D01*
X57654799Y-40706440D01*
X57649907Y-40681844D01*
X57646710Y-40665770D01*
X59482900Y-40665770D01*
X59482900Y-40954229D01*
X59520550Y-41240209D01*
X59520550Y-41240214D01*
X59595209Y-41518846D01*
X59705594Y-41785341D01*
X59705596Y-41785346D01*
X59849823Y-42035153D01*
X60025420Y-42263997D01*
X60025422Y-42263999D01*
X60025426Y-42264004D01*
X60229396Y-42467974D01*
X60229400Y-42467977D01*
X60229402Y-42467979D01*
X60326783Y-42542701D01*
X60458244Y-42643575D01*
X60708055Y-42787804D01*
X60974555Y-42898191D01*
X61253183Y-42972849D01*
X61539172Y-43010500D01*
X61539173Y-43010500D01*
X61827627Y-43010500D01*
X61827628Y-43010500D01*
X62113617Y-42972849D01*
X62392245Y-42898191D01*
X62658745Y-42787804D01*
X62908556Y-42643575D01*
X63137404Y-42467974D01*
X63341374Y-42264004D01*
X63516975Y-42035156D01*
X63661204Y-41785345D01*
X63771591Y-41518845D01*
X63846249Y-41240217D01*
X63883900Y-40954228D01*
X63883900Y-40706443D01*
X65712000Y-40706443D01*
X65712000Y-40913556D01*
X65752404Y-41116680D01*
X65831661Y-41308024D01*
X65921069Y-41441831D01*
X65946725Y-41480228D01*
X66093172Y-41626675D01*
X66265375Y-41741738D01*
X66456718Y-41820995D01*
X66659846Y-41861400D01*
X66659847Y-41861400D01*
X66866953Y-41861400D01*
X66866954Y-41861400D01*
X67070082Y-41820995D01*
X67261425Y-41741738D01*
X67433628Y-41626675D01*
X67580075Y-41480228D01*
X67695138Y-41308025D01*
X67774395Y-41116682D01*
X67814800Y-40913554D01*
X67814800Y-40706446D01*
X67774395Y-40503318D01*
X67695138Y-40311975D01*
X67580075Y-40139772D01*
X67433628Y-39993325D01*
X67261425Y-39878262D01*
X67261426Y-39878262D01*
X67261424Y-39878261D01*
X67070080Y-39799004D01*
X66866956Y-39758600D01*
X66866954Y-39758600D01*
X66659846Y-39758600D01*
X66659843Y-39758600D01*
X66456719Y-39799004D01*
X66265375Y-39878261D01*
X66093172Y-39993324D01*
X65946724Y-40139772D01*
X65831661Y-40311975D01*
X65752404Y-40503319D01*
X65712000Y-40706443D01*
X63883900Y-40706443D01*
X63883900Y-40665772D01*
X63846249Y-40379783D01*
X63771591Y-40101155D01*
X63661204Y-39834655D01*
X63617293Y-39758600D01*
X63554504Y-39649846D01*
X63516975Y-39584844D01*
X63385387Y-39413355D01*
X63341379Y-39356002D01*
X63341377Y-39356000D01*
X63341374Y-39355996D01*
X63137404Y-39152026D01*
X63137399Y-39152022D01*
X63137397Y-39152020D01*
X62908553Y-38976423D01*
X62658746Y-38832196D01*
X62658741Y-38832194D01*
X62392246Y-38721809D01*
X62269388Y-38688889D01*
X62113617Y-38647151D01*
X62113614Y-38647150D01*
X62113612Y-38647150D01*
X61827629Y-38609500D01*
X61827628Y-38609500D01*
X61539172Y-38609500D01*
X61539170Y-38609500D01*
X61253190Y-38647150D01*
X61253185Y-38647150D01*
X60974553Y-38721809D01*
X60708058Y-38832194D01*
X60708053Y-38832196D01*
X60458246Y-38976423D01*
X60229402Y-39152020D01*
X60025420Y-39356002D01*
X59849823Y-39584846D01*
X59705596Y-39834653D01*
X59705594Y-39834658D01*
X59595209Y-40101153D01*
X59520550Y-40379785D01*
X59520550Y-40379790D01*
X59482900Y-40665770D01*
X57646710Y-40665770D01*
X57614395Y-40503319D01*
X57583675Y-40429155D01*
X57535138Y-40311975D01*
X57420075Y-40139772D01*
X57273628Y-39993325D01*
X57101425Y-39878262D01*
X57101426Y-39878262D01*
X57101424Y-39878261D01*
X56910080Y-39799004D01*
X56706956Y-39758600D01*
X56706954Y-39758600D01*
X56499846Y-39758600D01*
X56499843Y-39758600D01*
X56296719Y-39799004D01*
X56105375Y-39878261D01*
X55933172Y-39993324D01*
X55786724Y-40139772D01*
X55671661Y-40311975D01*
X55592404Y-40503319D01*
X55552000Y-40706443D01*
X52487600Y-40706443D01*
X52487600Y-37361053D01*
X56784900Y-37361053D01*
X56784900Y-39178546D01*
X56784901Y-39178558D01*
X56796532Y-39237027D01*
X56796533Y-39237031D01*
X56840848Y-39303352D01*
X56907169Y-39347667D01*
X56949042Y-39355996D01*
X56965641Y-39359298D01*
X56965646Y-39359298D01*
X56965652Y-39359300D01*
X56965653Y-39359300D01*
X58783147Y-39359300D01*
X58783148Y-39359300D01*
X58841631Y-39347667D01*
X58907952Y-39303352D01*
X58952267Y-39237031D01*
X58963900Y-39178548D01*
X58963900Y-37361052D01*
X58952267Y-37302569D01*
X58907952Y-37236248D01*
X58907948Y-37236245D01*
X58841633Y-37191934D01*
X58841631Y-37191933D01*
X58841628Y-37191932D01*
X58841627Y-37191932D01*
X58783158Y-37180301D01*
X58783148Y-37180300D01*
X56965652Y-37180300D01*
X56965651Y-37180300D01*
X56965641Y-37180301D01*
X56907172Y-37191932D01*
X56907166Y-37191934D01*
X56840851Y-37236245D01*
X56840845Y-37236251D01*
X56796534Y-37302566D01*
X56796532Y-37302572D01*
X56784901Y-37361041D01*
X56784900Y-37361053D01*
X52487600Y-37361053D01*
X52487600Y-25397644D01*
X72899500Y-25397644D01*
X72899500Y-25602355D01*
X72931521Y-25804529D01*
X72994780Y-25999219D01*
X73087712Y-26181609D01*
X73087714Y-26181613D01*
X73208029Y-26347213D01*
X73208031Y-26347215D01*
X73208034Y-26347219D01*
X73352781Y-26491966D01*
X73352784Y-26491968D01*
X73352786Y-26491970D01*
X73518386Y-26612285D01*
X73518390Y-26612287D01*
X73700781Y-26705220D01*
X73895466Y-26768477D01*
X73895467Y-26768477D01*
X73895470Y-26768478D01*
X74097645Y-26800500D01*
X74097648Y-26800500D01*
X74302355Y-26800500D01*
X74504529Y-26768478D01*
X74504530Y-26768477D01*
X74504534Y-26768477D01*
X74699219Y-26705220D01*
X74881610Y-26612287D01*
X75047219Y-26491966D01*
X75191966Y-26347219D01*
X75312287Y-26181610D01*
X75405220Y-25999219D01*
X75468477Y-25804534D01*
X75500500Y-25602352D01*
X75500500Y-25397648D01*
X75500500Y-25397644D01*
X75468478Y-25195470D01*
X75468477Y-25195466D01*
X75405220Y-25000781D01*
X75312287Y-24818390D01*
X75312285Y-24818386D01*
X75191970Y-24652786D01*
X75191968Y-24652784D01*
X75191966Y-24652781D01*
X75047219Y-24508034D01*
X75047215Y-24508031D01*
X75047213Y-24508029D01*
X74881613Y-24387714D01*
X74881609Y-24387712D01*
X74699219Y-24294780D01*
X74504529Y-24231521D01*
X74302355Y-24199500D01*
X74302352Y-24199500D01*
X74097648Y-24199500D01*
X74097645Y-24199500D01*
X73895470Y-24231521D01*
X73700780Y-24294780D01*
X73518390Y-24387712D01*
X73518386Y-24387714D01*
X73352786Y-24508029D01*
X73208029Y-24652786D01*
X73087714Y-24818386D01*
X73087712Y-24818390D01*
X72994780Y-25000780D01*
X72931521Y-25195470D01*
X72899500Y-25397644D01*
X52487600Y-25397644D01*
X52487600Y-21572983D01*
X52487599Y-21572981D01*
X52465282Y-21489693D01*
X52465282Y-21489692D01*
X52465281Y-21489690D01*
X52422165Y-21415010D01*
X52422162Y-21415007D01*
X52361190Y-21354034D01*
X52361190Y-21354035D01*
X43024410Y-12017255D01*
X42996633Y-11962738D01*
X43006203Y-11902310D01*
X43018873Y-11877445D01*
X43054085Y-11769073D01*
X43072402Y-11712702D01*
X43099500Y-11541614D01*
X43099500Y-11368385D01*
X43072402Y-11197297D01*
X43072401Y-11197293D01*
X43018876Y-11032561D01*
X43018874Y-11032558D01*
X43018873Y-11032557D01*
X43018873Y-11032555D01*
X42940232Y-10878212D01*
X42838414Y-10738072D01*
X42715928Y-10615586D01*
X42575788Y-10513768D01*
X42575787Y-10513767D01*
X42575785Y-10513766D01*
X42421441Y-10435125D01*
X42421438Y-10435123D01*
X42256706Y-10381598D01*
X42256702Y-10381597D01*
X42085614Y-10354500D01*
X42085611Y-10354500D01*
X41912389Y-10354500D01*
X41912386Y-10354500D01*
X41741297Y-10381597D01*
X41741293Y-10381598D01*
X41576561Y-10435123D01*
X41576558Y-10435125D01*
X41422214Y-10513766D01*
X41282073Y-10615585D01*
X41159585Y-10738073D01*
X41057766Y-10878214D01*
X40979125Y-11032558D01*
X40979123Y-11032561D01*
X40925598Y-11197293D01*
X40925597Y-11197297D01*
X40898500Y-11368385D01*
X40898500Y-11541614D01*
X40925597Y-11712702D01*
X40925598Y-11712706D01*
X40979123Y-11877438D01*
X40979125Y-11877441D01*
X41022585Y-11962738D01*
X41057768Y-12031788D01*
X41159586Y-12171928D01*
X41282072Y-12294414D01*
X41345151Y-12340244D01*
X41381114Y-12389742D01*
X41381114Y-12450927D01*
X41345150Y-12500428D01*
X41336460Y-12506071D01*
X41282311Y-12537334D01*
X37107610Y-16712035D01*
X37107609Y-16712034D01*
X37046637Y-16773007D01*
X37003517Y-16847692D01*
X37003517Y-16847693D01*
X36981200Y-16930981D01*
X36981200Y-21850251D01*
X36962293Y-21908442D01*
X36912793Y-21944406D01*
X36851607Y-21944406D01*
X36812198Y-21920256D01*
X36757128Y-21865186D01*
X36616988Y-21763368D01*
X36616987Y-21763367D01*
X36616985Y-21763366D01*
X36462641Y-21684725D01*
X36436106Y-21676103D01*
X36386607Y-21640139D01*
X36367700Y-21581949D01*
X36367700Y-20731183D01*
X36367699Y-20731181D01*
X36345382Y-20647893D01*
X36345382Y-20647892D01*
X36345381Y-20647890D01*
X36302265Y-20573210D01*
X36302262Y-20573207D01*
X36241290Y-20512234D01*
X36241290Y-20512235D01*
X25663166Y-9934111D01*
X25635391Y-9879597D01*
X25644962Y-9819165D01*
X25674980Y-9784019D01*
X25715728Y-9754414D01*
X25838214Y-9631928D01*
X25940032Y-9491788D01*
X26018673Y-9337445D01*
X26018674Y-9337440D01*
X26018676Y-9337438D01*
X26072201Y-9172706D01*
X26072202Y-9172702D01*
X26099300Y-9001614D01*
X26099300Y-8828385D01*
X26072202Y-8657297D01*
X26072201Y-8657293D01*
X26018677Y-8492565D01*
X26018674Y-8492560D01*
X26018673Y-8492555D01*
X26006003Y-8467689D01*
X25996432Y-8407262D01*
X26024206Y-8352747D01*
X26286559Y-8090396D01*
X26341075Y-8062619D01*
X26356562Y-8061400D01*
X41064586Y-8061400D01*
X41122777Y-8080307D01*
X41158741Y-8129807D01*
X41158741Y-8190993D01*
X41144678Y-8218591D01*
X41057771Y-8338206D01*
X41057767Y-8338212D01*
X40979125Y-8492558D01*
X40979123Y-8492561D01*
X40925598Y-8657293D01*
X40925597Y-8657297D01*
X40898500Y-8828385D01*
X40898500Y-9001614D01*
X40925597Y-9172702D01*
X40925598Y-9172706D01*
X40979123Y-9337438D01*
X40979125Y-9337441D01*
X40979126Y-9337444D01*
X40979127Y-9337445D01*
X41057768Y-9491788D01*
X41159586Y-9631928D01*
X41282072Y-9754414D01*
X41422212Y-9856232D01*
X41576555Y-9934873D01*
X41576557Y-9934873D01*
X41576558Y-9934874D01*
X41576561Y-9934876D01*
X41741293Y-9988401D01*
X41741297Y-9988402D01*
X41912386Y-10015500D01*
X41912389Y-10015500D01*
X42085614Y-10015500D01*
X42256702Y-9988402D01*
X42256706Y-9988401D01*
X42421438Y-9934876D01*
X42421440Y-9934874D01*
X42421445Y-9934873D01*
X42575788Y-9856232D01*
X42715928Y-9754414D01*
X42838414Y-9631928D01*
X42940232Y-9491788D01*
X43018873Y-9337445D01*
X43018874Y-9337440D01*
X43018876Y-9337438D01*
X43072401Y-9172706D01*
X43072402Y-9172702D01*
X43099500Y-9001614D01*
X43099500Y-8828385D01*
X43072402Y-8657297D01*
X43072401Y-8657293D01*
X43018876Y-8492561D01*
X43018874Y-8492558D01*
X43018873Y-8492557D01*
X43018873Y-8492555D01*
X42940232Y-8338212D01*
X42853322Y-8218591D01*
X42834414Y-8160400D01*
X42853321Y-8102210D01*
X42902821Y-8066246D01*
X42933414Y-8061400D01*
X54538817Y-8061400D01*
X54538817Y-8061399D01*
X54622106Y-8039082D01*
X54622107Y-8039082D01*
X54622107Y-8039081D01*
X54622110Y-8039081D01*
X54696790Y-7995965D01*
X59245501Y-3447252D01*
X59300016Y-3419477D01*
X59353385Y-3425793D01*
X59438736Y-3461147D01*
X59632050Y-3499600D01*
X59632051Y-3499600D01*
X59829149Y-3499600D01*
X59829150Y-3499600D01*
X60022464Y-3461147D01*
X60204562Y-3385720D01*
X60368445Y-3276216D01*
X60507816Y-3136845D01*
X60617320Y-2972962D01*
X60692747Y-2790864D01*
X60731200Y-2597550D01*
X60731200Y-2400450D01*
X60731199Y-2400447D01*
X61270000Y-2400447D01*
X61270000Y-2597552D01*
X61308453Y-2790863D01*
X61308453Y-2790865D01*
X61383878Y-2972959D01*
X61383878Y-2972960D01*
X61493383Y-3136844D01*
X61493384Y-3136845D01*
X61632755Y-3276216D01*
X61796638Y-3385720D01*
X61978736Y-3461147D01*
X62172050Y-3499600D01*
X62172051Y-3499600D01*
X62369149Y-3499600D01*
X62369150Y-3499600D01*
X62562464Y-3461147D01*
X62744562Y-3385720D01*
X62908445Y-3276216D01*
X63047816Y-3136845D01*
X63157320Y-2972962D01*
X63232747Y-2790864D01*
X63271200Y-2597550D01*
X63271200Y-2400450D01*
X63271199Y-2400447D01*
X63810000Y-2400447D01*
X63810000Y-2597552D01*
X63848453Y-2790863D01*
X63848453Y-2790865D01*
X63923878Y-2972959D01*
X63923878Y-2972960D01*
X64033383Y-3136844D01*
X64033384Y-3136845D01*
X64172755Y-3276216D01*
X64336638Y-3385720D01*
X64518736Y-3461147D01*
X64712050Y-3499600D01*
X64712051Y-3499600D01*
X64909149Y-3499600D01*
X64909150Y-3499600D01*
X65102464Y-3461147D01*
X65284562Y-3385720D01*
X65448445Y-3276216D01*
X65587816Y-3136845D01*
X65697320Y-2972962D01*
X65772747Y-2790864D01*
X65811200Y-2597550D01*
X65811200Y-2400450D01*
X65811199Y-2400447D01*
X66350000Y-2400447D01*
X66350000Y-2597552D01*
X66388453Y-2790863D01*
X66388453Y-2790865D01*
X66463878Y-2972959D01*
X66463878Y-2972960D01*
X66573383Y-3136844D01*
X66573384Y-3136845D01*
X66712755Y-3276216D01*
X66876638Y-3385720D01*
X67058736Y-3461147D01*
X67252050Y-3499600D01*
X67252051Y-3499600D01*
X67449149Y-3499600D01*
X67449150Y-3499600D01*
X67642464Y-3461147D01*
X67824562Y-3385720D01*
X67988445Y-3276216D01*
X68127816Y-3136845D01*
X68237320Y-2972962D01*
X68312747Y-2790864D01*
X68351200Y-2597550D01*
X68351200Y-2400450D01*
X68351199Y-2400447D01*
X68890000Y-2400447D01*
X68890000Y-2597552D01*
X68928453Y-2790863D01*
X68928453Y-2790865D01*
X69003878Y-2972959D01*
X69003878Y-2972960D01*
X69113383Y-3136844D01*
X69113384Y-3136845D01*
X69252755Y-3276216D01*
X69416638Y-3385720D01*
X69598736Y-3461147D01*
X69792050Y-3499600D01*
X69792051Y-3499600D01*
X69989149Y-3499600D01*
X69989150Y-3499600D01*
X70182464Y-3461147D01*
X70364562Y-3385720D01*
X70528445Y-3276216D01*
X70667816Y-3136845D01*
X70777320Y-2972962D01*
X70852747Y-2790864D01*
X70891200Y-2597550D01*
X70891200Y-2400450D01*
X70890642Y-2397644D01*
X72899500Y-2397644D01*
X72899500Y-2602355D01*
X72931521Y-2804529D01*
X72994780Y-2999219D01*
X73087712Y-3181609D01*
X73087714Y-3181613D01*
X73208029Y-3347213D01*
X73208031Y-3347215D01*
X73208034Y-3347219D01*
X73352781Y-3491966D01*
X73352784Y-3491968D01*
X73352786Y-3491970D01*
X73518386Y-3612285D01*
X73518390Y-3612287D01*
X73700781Y-3705220D01*
X73895466Y-3768477D01*
X73895467Y-3768477D01*
X73895470Y-3768478D01*
X74097645Y-3800500D01*
X74097648Y-3800500D01*
X74302355Y-3800500D01*
X74504529Y-3768478D01*
X74504530Y-3768477D01*
X74504534Y-3768477D01*
X74699219Y-3705220D01*
X74881610Y-3612287D01*
X75047219Y-3491966D01*
X75157198Y-3381987D01*
X78699500Y-3381987D01*
X78699500Y-3618012D01*
X78730306Y-3852006D01*
X78730306Y-3852011D01*
X78791393Y-4079992D01*
X78881713Y-4298044D01*
X78999729Y-4502453D01*
X79143402Y-4689692D01*
X79143404Y-4689694D01*
X79143408Y-4689699D01*
X79310301Y-4856592D01*
X79310305Y-4856595D01*
X79310307Y-4856597D01*
X79377820Y-4908401D01*
X79497550Y-5000273D01*
X79701951Y-5118284D01*
X79701952Y-5118284D01*
X79701955Y-5118286D01*
X79920007Y-5208606D01*
X80147986Y-5269693D01*
X80381989Y-5300500D01*
X80381990Y-5300500D01*
X80618010Y-5300500D01*
X80618011Y-5300500D01*
X80852014Y-5269693D01*
X81079993Y-5208606D01*
X81298049Y-5118284D01*
X81502450Y-5000273D01*
X81689699Y-4856592D01*
X81856592Y-4689699D01*
X82000273Y-4502450D01*
X82118284Y-4298049D01*
X82208606Y-4079993D01*
X82269693Y-3852014D01*
X82300500Y-3618011D01*
X82300500Y-3381989D01*
X82269693Y-3147986D01*
X82208606Y-2920007D01*
X82165162Y-2815123D01*
X82118286Y-2701955D01*
X82058008Y-2597550D01*
X82000273Y-2497550D01*
X82000270Y-2497546D01*
X81856597Y-2310307D01*
X81856595Y-2310305D01*
X81856592Y-2310301D01*
X81689699Y-2143408D01*
X81689694Y-2143404D01*
X81689692Y-2143402D01*
X81502453Y-1999729D01*
X81298044Y-1881713D01*
X81079992Y-1791393D01*
X80924277Y-1749670D01*
X80852014Y-1730307D01*
X80852011Y-1730306D01*
X80852009Y-1730306D01*
X80618012Y-1699500D01*
X80618011Y-1699500D01*
X80381989Y-1699500D01*
X80381987Y-1699500D01*
X80147993Y-1730306D01*
X80147988Y-1730306D01*
X79920007Y-1791393D01*
X79701955Y-1881713D01*
X79497546Y-1999729D01*
X79310307Y-2143402D01*
X79143402Y-2310307D01*
X78999729Y-2497546D01*
X78881713Y-2701955D01*
X78791393Y-2920007D01*
X78730306Y-3147988D01*
X78730306Y-3147993D01*
X78699500Y-3381987D01*
X75157198Y-3381987D01*
X75191966Y-3347219D01*
X75191972Y-3347211D01*
X75211338Y-3320557D01*
X75312285Y-3181613D01*
X75312287Y-3181610D01*
X75405220Y-2999219D01*
X75468477Y-2804534D01*
X75470642Y-2790864D01*
X75500500Y-2602355D01*
X75500500Y-2397644D01*
X75468478Y-2195470D01*
X75413102Y-2025040D01*
X75405220Y-2000781D01*
X75312287Y-1818390D01*
X75312285Y-1818386D01*
X75191970Y-1652786D01*
X75191968Y-1652784D01*
X75191966Y-1652781D01*
X75047219Y-1508034D01*
X75047215Y-1508031D01*
X75047213Y-1508029D01*
X74881613Y-1387714D01*
X74881609Y-1387712D01*
X74699219Y-1294780D01*
X74504529Y-1231521D01*
X74302355Y-1199500D01*
X74302352Y-1199500D01*
X74097648Y-1199500D01*
X74097645Y-1199500D01*
X73895470Y-1231521D01*
X73700780Y-1294780D01*
X73518390Y-1387712D01*
X73518386Y-1387714D01*
X73352786Y-1508029D01*
X73208029Y-1652786D01*
X73087714Y-1818386D01*
X73087712Y-1818390D01*
X72994780Y-2000780D01*
X72931521Y-2195470D01*
X72899500Y-2397644D01*
X70890642Y-2397644D01*
X70852747Y-2207136D01*
X70777321Y-2025040D01*
X70777321Y-2025039D01*
X70667816Y-1861155D01*
X70528444Y-1721783D01*
X70364559Y-1612278D01*
X70182464Y-1536853D01*
X69989152Y-1498400D01*
X69989150Y-1498400D01*
X69792050Y-1498400D01*
X69792047Y-1498400D01*
X69598736Y-1536853D01*
X69598734Y-1536853D01*
X69416640Y-1612278D01*
X69416639Y-1612278D01*
X69252755Y-1721783D01*
X69113383Y-1861155D01*
X69003878Y-2025039D01*
X69003878Y-2025040D01*
X68928453Y-2207134D01*
X68928453Y-2207136D01*
X68890000Y-2400447D01*
X68351199Y-2400447D01*
X68312747Y-2207136D01*
X68237321Y-2025040D01*
X68237321Y-2025039D01*
X68127816Y-1861155D01*
X67988444Y-1721783D01*
X67824559Y-1612278D01*
X67642464Y-1536853D01*
X67449152Y-1498400D01*
X67449150Y-1498400D01*
X67252050Y-1498400D01*
X67252047Y-1498400D01*
X67058736Y-1536853D01*
X67058734Y-1536853D01*
X66876640Y-1612278D01*
X66876639Y-1612278D01*
X66712755Y-1721783D01*
X66573383Y-1861155D01*
X66463878Y-2025039D01*
X66463878Y-2025040D01*
X66388453Y-2207134D01*
X66388453Y-2207136D01*
X66350000Y-2400447D01*
X65811199Y-2400447D01*
X65772747Y-2207136D01*
X65697321Y-2025040D01*
X65697321Y-2025039D01*
X65587816Y-1861155D01*
X65448444Y-1721783D01*
X65284559Y-1612278D01*
X65102464Y-1536853D01*
X64909152Y-1498400D01*
X64909150Y-1498400D01*
X64712050Y-1498400D01*
X64712047Y-1498400D01*
X64518736Y-1536853D01*
X64518734Y-1536853D01*
X64336640Y-1612278D01*
X64336639Y-1612278D01*
X64172755Y-1721783D01*
X64033383Y-1861155D01*
X63923878Y-2025039D01*
X63923878Y-2025040D01*
X63848453Y-2207134D01*
X63848453Y-2207136D01*
X63810000Y-2400447D01*
X63271199Y-2400447D01*
X63232747Y-2207136D01*
X63157321Y-2025040D01*
X63157321Y-2025039D01*
X63047816Y-1861155D01*
X62908444Y-1721783D01*
X62744559Y-1612278D01*
X62562464Y-1536853D01*
X62369152Y-1498400D01*
X62369150Y-1498400D01*
X62172050Y-1498400D01*
X62172047Y-1498400D01*
X61978736Y-1536853D01*
X61978734Y-1536853D01*
X61796640Y-1612278D01*
X61796639Y-1612278D01*
X61632755Y-1721783D01*
X61493383Y-1861155D01*
X61383878Y-2025039D01*
X61383878Y-2025040D01*
X61308453Y-2207134D01*
X61308453Y-2207136D01*
X61270000Y-2400447D01*
X60731199Y-2400447D01*
X60692747Y-2207136D01*
X60617321Y-2025040D01*
X60617321Y-2025039D01*
X60507816Y-1861155D01*
X60368444Y-1721783D01*
X60204559Y-1612278D01*
X60022464Y-1536853D01*
X59829152Y-1498400D01*
X59829150Y-1498400D01*
X59632050Y-1498400D01*
X59632047Y-1498400D01*
X59438736Y-1536853D01*
X59438734Y-1536853D01*
X59256640Y-1612278D01*
X59256639Y-1612278D01*
X59092755Y-1721783D01*
X58953383Y-1861155D01*
X58843878Y-2025039D01*
X58843878Y-2025040D01*
X58768453Y-2207134D01*
X58768453Y-2207136D01*
X58730000Y-2400447D01*
X58730000Y-2597552D01*
X58768453Y-2790863D01*
X58768453Y-2790865D01*
X58803804Y-2876210D01*
X58808605Y-2937207D01*
X58782344Y-2984099D01*
X54389041Y-7377404D01*
X54334524Y-7405181D01*
X54319037Y-7406400D01*
X42756373Y-7406400D01*
X42698182Y-7387493D01*
X42662218Y-7337993D01*
X42662218Y-7276807D01*
X42698181Y-7227308D01*
X42698299Y-7227221D01*
X42715928Y-7214414D01*
X42838414Y-7091928D01*
X42940232Y-6951788D01*
X43018873Y-6797445D01*
X43027495Y-6770908D01*
X43063458Y-6721408D01*
X43121648Y-6702500D01*
X50817717Y-6702500D01*
X50817717Y-6702499D01*
X50901006Y-6680182D01*
X50901007Y-6680182D01*
X50901007Y-6680181D01*
X50901010Y-6680181D01*
X50975690Y-6637065D01*
X54165501Y-3447252D01*
X54220016Y-3419477D01*
X54273385Y-3425793D01*
X54358736Y-3461147D01*
X54552050Y-3499600D01*
X54552051Y-3499600D01*
X54749149Y-3499600D01*
X54749150Y-3499600D01*
X54942464Y-3461147D01*
X55124562Y-3385720D01*
X55288445Y-3276216D01*
X55427816Y-3136845D01*
X55537320Y-2972962D01*
X55612747Y-2790864D01*
X55651200Y-2597550D01*
X55651200Y-2400450D01*
X55651199Y-2400447D01*
X56190000Y-2400447D01*
X56190000Y-2597552D01*
X56228453Y-2790863D01*
X56228453Y-2790865D01*
X56303878Y-2972959D01*
X56303878Y-2972960D01*
X56413383Y-3136844D01*
X56413384Y-3136845D01*
X56552755Y-3276216D01*
X56716638Y-3385720D01*
X56898736Y-3461147D01*
X57092050Y-3499600D01*
X57092051Y-3499600D01*
X57289149Y-3499600D01*
X57289150Y-3499600D01*
X57482464Y-3461147D01*
X57664562Y-3385720D01*
X57828445Y-3276216D01*
X57967816Y-3136845D01*
X58077320Y-2972962D01*
X58152747Y-2790864D01*
X58191200Y-2597550D01*
X58191200Y-2400450D01*
X58152747Y-2207136D01*
X58077321Y-2025040D01*
X58077321Y-2025039D01*
X57967816Y-1861155D01*
X57828444Y-1721783D01*
X57664559Y-1612278D01*
X57482464Y-1536853D01*
X57289152Y-1498400D01*
X57289150Y-1498400D01*
X57092050Y-1498400D01*
X57092047Y-1498400D01*
X56898736Y-1536853D01*
X56898734Y-1536853D01*
X56716640Y-1612278D01*
X56716639Y-1612278D01*
X56552755Y-1721783D01*
X56413383Y-1861155D01*
X56303878Y-2025039D01*
X56303878Y-2025040D01*
X56228453Y-2207134D01*
X56228453Y-2207136D01*
X56190000Y-2400447D01*
X55651199Y-2400447D01*
X55612747Y-2207136D01*
X55537321Y-2025040D01*
X55537321Y-2025039D01*
X55427816Y-1861155D01*
X55288444Y-1721783D01*
X55124559Y-1612278D01*
X54942464Y-1536853D01*
X54749152Y-1498400D01*
X54749150Y-1498400D01*
X54552050Y-1498400D01*
X54552047Y-1498400D01*
X54358736Y-1536853D01*
X54358734Y-1536853D01*
X54176640Y-1612278D01*
X54176639Y-1612278D01*
X54012755Y-1721783D01*
X53873383Y-1861155D01*
X53763878Y-2025039D01*
X53763878Y-2025040D01*
X53688453Y-2207134D01*
X53688453Y-2207136D01*
X53650000Y-2400447D01*
X53650000Y-2597552D01*
X53688453Y-2790863D01*
X53688453Y-2790865D01*
X53723804Y-2876210D01*
X53728605Y-2937207D01*
X53702344Y-2984099D01*
X50667941Y-6018504D01*
X50613424Y-6046281D01*
X50597937Y-6047500D01*
X43121650Y-6047500D01*
X43063459Y-6028593D01*
X43027496Y-5979095D01*
X43018873Y-5952555D01*
X42940232Y-5798212D01*
X42838414Y-5658072D01*
X42715928Y-5535586D01*
X42575788Y-5433768D01*
X42575787Y-5433767D01*
X42575785Y-5433766D01*
X42421441Y-5355125D01*
X42421438Y-5355123D01*
X42256706Y-5301598D01*
X42256702Y-5301597D01*
X42085614Y-5274500D01*
X42085611Y-5274500D01*
X41912389Y-5274500D01*
X41912386Y-5274500D01*
X41741297Y-5301597D01*
X41741293Y-5301598D01*
X41576561Y-5355123D01*
X41576558Y-5355125D01*
X41422214Y-5433766D01*
X41282073Y-5535585D01*
X41159585Y-5658073D01*
X41057766Y-5798214D01*
X40979125Y-5952558D01*
X40979123Y-5952561D01*
X40925598Y-6117293D01*
X40925597Y-6117297D01*
X40898500Y-6288385D01*
X40898500Y-6461614D01*
X40925597Y-6632702D01*
X40925598Y-6632706D01*
X40979123Y-6797438D01*
X40979125Y-6797441D01*
X40979126Y-6797442D01*
X40979127Y-6797445D01*
X41057768Y-6951788D01*
X41159586Y-7091928D01*
X41282072Y-7214414D01*
X41299513Y-7227085D01*
X41299819Y-7227308D01*
X41335782Y-7276808D01*
X41335781Y-7337994D01*
X41299817Y-7387493D01*
X41241627Y-7406400D01*
X26136781Y-7406400D01*
X26053493Y-7428717D01*
X26053492Y-7428717D01*
X25996783Y-7461457D01*
X25985751Y-7467828D01*
X25978807Y-7471837D01*
X25561055Y-7889588D01*
X25506539Y-7917365D01*
X25446109Y-7907795D01*
X25421243Y-7895125D01*
X25421238Y-7895123D01*
X25256506Y-7841598D01*
X25256502Y-7841597D01*
X25085414Y-7814500D01*
X25085411Y-7814500D01*
X24912189Y-7814500D01*
X24912186Y-7814500D01*
X24741097Y-7841597D01*
X24741093Y-7841598D01*
X24576361Y-7895123D01*
X24576358Y-7895125D01*
X24422014Y-7973766D01*
X24281873Y-8075585D01*
X24159385Y-8198073D01*
X24057566Y-8338214D01*
X23978925Y-8492558D01*
X23978923Y-8492561D01*
X23925398Y-8657293D01*
X23925397Y-8657297D01*
X23898300Y-8828385D01*
X23898300Y-9001614D01*
X23925397Y-9172702D01*
X23925398Y-9172706D01*
X23978923Y-9337438D01*
X23978925Y-9337441D01*
X23978926Y-9337444D01*
X23978927Y-9337445D01*
X24057568Y-9491788D01*
X24159386Y-9631928D01*
X24215956Y-9688498D01*
X24243732Y-9743013D01*
X24234161Y-9803445D01*
X24190896Y-9846710D01*
X24145951Y-9857500D01*
X23501863Y-9857500D01*
X23443672Y-9838593D01*
X23431859Y-9828504D01*
X21705565Y-8102210D01*
X19891740Y-6288385D01*
X23898300Y-6288385D01*
X23898300Y-6461614D01*
X23925397Y-6632702D01*
X23925398Y-6632706D01*
X23978923Y-6797438D01*
X23978925Y-6797441D01*
X23978926Y-6797442D01*
X23978927Y-6797445D01*
X24057568Y-6951788D01*
X24159386Y-7091928D01*
X24281872Y-7214414D01*
X24422012Y-7316232D01*
X24576355Y-7394873D01*
X24576357Y-7394873D01*
X24576358Y-7394874D01*
X24576361Y-7394876D01*
X24741093Y-7448401D01*
X24741097Y-7448402D01*
X24912186Y-7475500D01*
X24912189Y-7475500D01*
X25085414Y-7475500D01*
X25256502Y-7448402D01*
X25256506Y-7448401D01*
X25421238Y-7394876D01*
X25421240Y-7394874D01*
X25421245Y-7394873D01*
X25575588Y-7316232D01*
X25715728Y-7214414D01*
X25838214Y-7091928D01*
X25940032Y-6951788D01*
X26018673Y-6797445D01*
X26018674Y-6797440D01*
X26018676Y-6797438D01*
X26072201Y-6632706D01*
X26072202Y-6632702D01*
X26099300Y-6461614D01*
X26099300Y-6288385D01*
X26072202Y-6117297D01*
X26072201Y-6117293D01*
X26018676Y-5952561D01*
X26018674Y-5952558D01*
X26018673Y-5952557D01*
X26018673Y-5952555D01*
X25940032Y-5798212D01*
X25838214Y-5658072D01*
X25715728Y-5535586D01*
X25575588Y-5433768D01*
X25575587Y-5433767D01*
X25575585Y-5433766D01*
X25421241Y-5355125D01*
X25421238Y-5355123D01*
X25256506Y-5301598D01*
X25256502Y-5301597D01*
X25085414Y-5274500D01*
X25085411Y-5274500D01*
X24912189Y-5274500D01*
X24912186Y-5274500D01*
X24741097Y-5301597D01*
X24741093Y-5301598D01*
X24576361Y-5355123D01*
X24576358Y-5355125D01*
X24422014Y-5433766D01*
X24281873Y-5535585D01*
X24159385Y-5658073D01*
X24057566Y-5798214D01*
X23978925Y-5952558D01*
X23978923Y-5952561D01*
X23925398Y-6117293D01*
X23925397Y-6117297D01*
X23898300Y-6288385D01*
X19891740Y-6288385D01*
X18908790Y-5305435D01*
X18834110Y-5262319D01*
X18834109Y-5262318D01*
X18834106Y-5262317D01*
X18750818Y-5240000D01*
X18750816Y-5240000D01*
X14360616Y-5240000D01*
X14274384Y-5240000D01*
X14274381Y-5240000D01*
X14191093Y-5262317D01*
X14191092Y-5262317D01*
X14116407Y-5305437D01*
X13696355Y-5725488D01*
X13641839Y-5753265D01*
X13581409Y-5743695D01*
X13556543Y-5731025D01*
X13556538Y-5731023D01*
X13391806Y-5677498D01*
X13391802Y-5677497D01*
X13220714Y-5650400D01*
X13220711Y-5650400D01*
X13047489Y-5650400D01*
X13047486Y-5650400D01*
X12876397Y-5677497D01*
X12876393Y-5677498D01*
X12711661Y-5731023D01*
X12711658Y-5731025D01*
X12557314Y-5809666D01*
X12417173Y-5911485D01*
X12294685Y-6033973D01*
X12192866Y-6174114D01*
X12114225Y-6328458D01*
X12114223Y-6328461D01*
X12060698Y-6493193D01*
X12060697Y-6493197D01*
X12033600Y-6664285D01*
X300000Y-6664285D01*
X300000Y-3381987D01*
X1699500Y-3381987D01*
X1699500Y-3618012D01*
X1730306Y-3852006D01*
X1730306Y-3852011D01*
X1791393Y-4079992D01*
X1881713Y-4298044D01*
X1999729Y-4502453D01*
X2143402Y-4689692D01*
X2143404Y-4689694D01*
X2143408Y-4689699D01*
X2310301Y-4856592D01*
X2310305Y-4856595D01*
X2310307Y-4856597D01*
X2377820Y-4908401D01*
X2497550Y-5000273D01*
X2701951Y-5118284D01*
X2701952Y-5118284D01*
X2701955Y-5118286D01*
X2920007Y-5208606D01*
X3147986Y-5269693D01*
X3381989Y-5300500D01*
X3381990Y-5300500D01*
X3618010Y-5300500D01*
X3618011Y-5300500D01*
X3852014Y-5269693D01*
X4079993Y-5208606D01*
X4298049Y-5118284D01*
X4502450Y-5000273D01*
X4689699Y-4856592D01*
X4856592Y-4689699D01*
X5000273Y-4502450D01*
X5118284Y-4298049D01*
X5208606Y-4079993D01*
X5269693Y-3852014D01*
X5283336Y-3748385D01*
X23898300Y-3748385D01*
X23898300Y-3921614D01*
X23925397Y-4092702D01*
X23925398Y-4092706D01*
X23978923Y-4257438D01*
X23978925Y-4257441D01*
X23999615Y-4298049D01*
X24057568Y-4411788D01*
X24159386Y-4551928D01*
X24281872Y-4674414D01*
X24422012Y-4776232D01*
X24576355Y-4854873D01*
X24576357Y-4854873D01*
X24576358Y-4854874D01*
X24576361Y-4854876D01*
X24741093Y-4908401D01*
X24741097Y-4908402D01*
X24912186Y-4935500D01*
X24912189Y-4935500D01*
X25085414Y-4935500D01*
X25256502Y-4908402D01*
X25256506Y-4908401D01*
X25421238Y-4854876D01*
X25421240Y-4854874D01*
X25421245Y-4854873D01*
X25575588Y-4776232D01*
X25715728Y-4674414D01*
X25838214Y-4551928D01*
X25940032Y-4411788D01*
X26018673Y-4257445D01*
X26018674Y-4257440D01*
X26018676Y-4257438D01*
X26072201Y-4092706D01*
X26072202Y-4092702D01*
X26099300Y-3921614D01*
X26099300Y-3748385D01*
X26072202Y-3577297D01*
X26072201Y-3577293D01*
X26018676Y-3412561D01*
X26018674Y-3412558D01*
X26018673Y-3412557D01*
X26018673Y-3412555D01*
X25940032Y-3258212D01*
X25838214Y-3118072D01*
X25715728Y-2995586D01*
X25575588Y-2893768D01*
X25575587Y-2893767D01*
X25575585Y-2893766D01*
X25421241Y-2815125D01*
X25421238Y-2815123D01*
X25256506Y-2761598D01*
X25256502Y-2761597D01*
X25085414Y-2734500D01*
X25085411Y-2734500D01*
X24912189Y-2734500D01*
X24912186Y-2734500D01*
X24741097Y-2761597D01*
X24741093Y-2761598D01*
X24576361Y-2815123D01*
X24576358Y-2815125D01*
X24422014Y-2893766D01*
X24281873Y-2995585D01*
X24159385Y-3118073D01*
X24057566Y-3258214D01*
X23978925Y-3412558D01*
X23978923Y-3412561D01*
X23925398Y-3577293D01*
X23925397Y-3577297D01*
X23898300Y-3748385D01*
X5283336Y-3748385D01*
X5300500Y-3618011D01*
X5300500Y-3381989D01*
X5269693Y-3147986D01*
X5208606Y-2920007D01*
X5165162Y-2815123D01*
X5118286Y-2701955D01*
X5058008Y-2597550D01*
X5000273Y-2497550D01*
X5000270Y-2497546D01*
X4923613Y-2397644D01*
X46499500Y-2397644D01*
X46499500Y-2602355D01*
X46531521Y-2804529D01*
X46594780Y-2999219D01*
X46687712Y-3181609D01*
X46687714Y-3181613D01*
X46808029Y-3347213D01*
X46808031Y-3347215D01*
X46808034Y-3347219D01*
X46952781Y-3491966D01*
X46952784Y-3491968D01*
X46952786Y-3491970D01*
X47118386Y-3612285D01*
X47118390Y-3612287D01*
X47300781Y-3705220D01*
X47495466Y-3768477D01*
X47495467Y-3768477D01*
X47495470Y-3768478D01*
X47697645Y-3800500D01*
X47697648Y-3800500D01*
X47902355Y-3800500D01*
X48104529Y-3768478D01*
X48104530Y-3768477D01*
X48104534Y-3768477D01*
X48299219Y-3705220D01*
X48481610Y-3612287D01*
X48647219Y-3491966D01*
X48791966Y-3347219D01*
X48912287Y-3181610D01*
X49005220Y-2999219D01*
X49068477Y-2804534D01*
X49070642Y-2790864D01*
X49100500Y-2602355D01*
X49100500Y-2397644D01*
X49068478Y-2195470D01*
X49013102Y-2025040D01*
X49005220Y-2000781D01*
X48912287Y-1818390D01*
X48912285Y-1818386D01*
X48791970Y-1652786D01*
X48791968Y-1652784D01*
X48791966Y-1652781D01*
X48647219Y-1508034D01*
X48647215Y-1508031D01*
X48647213Y-1508029D01*
X48481613Y-1387714D01*
X48481609Y-1387712D01*
X48299219Y-1294780D01*
X48104529Y-1231521D01*
X47902355Y-1199500D01*
X47902352Y-1199500D01*
X47697648Y-1199500D01*
X47697645Y-1199500D01*
X47495470Y-1231521D01*
X47300780Y-1294780D01*
X47118390Y-1387712D01*
X47118386Y-1387714D01*
X46952786Y-1508029D01*
X46808029Y-1652786D01*
X46687714Y-1818386D01*
X46687712Y-1818390D01*
X46594780Y-2000780D01*
X46531521Y-2195470D01*
X46499500Y-2397644D01*
X4923613Y-2397644D01*
X4856597Y-2310307D01*
X4856595Y-2310305D01*
X4856592Y-2310301D01*
X4689699Y-2143408D01*
X4689694Y-2143404D01*
X4689692Y-2143402D01*
X4502453Y-1999729D01*
X4298044Y-1881713D01*
X4079992Y-1791393D01*
X3924277Y-1749670D01*
X3852014Y-1730307D01*
X3852011Y-1730306D01*
X3852009Y-1730306D01*
X3618012Y-1699500D01*
X3618011Y-1699500D01*
X3381989Y-1699500D01*
X3381987Y-1699500D01*
X3147993Y-1730306D01*
X3147988Y-1730306D01*
X2920007Y-1791393D01*
X2701955Y-1881713D01*
X2497546Y-1999729D01*
X2310307Y-2143402D01*
X2143402Y-2310307D01*
X1999729Y-2497546D01*
X1881713Y-2701955D01*
X1791393Y-2920007D01*
X1730306Y-3147988D01*
X1730306Y-3147993D01*
X1699500Y-3381987D01*
X300000Y-3381987D01*
X300000Y-399000D01*
X318907Y-340809D01*
X368407Y-304845D01*
X399000Y-300000D01*
X23799300Y-300000D01*
X23857491Y-318907D01*
G37*
%TD.AperFunction*%
%TD*%
M02*
