M48
; DRILL file {KiCad 9.0.7} date 2026-09-06T12:18:29+0900
; FORMAT={-:-/ absolute / metric / decimal}
; #@! TF.CreationDate,2026-09-06T12:18:29+09:00
; #@! TF.GenerationSoftware,Kicad,Pcbnew,9.0.7
; #@! TF.FileFunction,Plated,1,2,PTH
FMAT,2
METRIC
; #@! TA.AperFunction,Plated,PTH,ComponentDrill
T1C1.000
; #@! TA.AperFunction,Plated,PTH,ComponentDrill
T2C1.020
; #@! TA.AperFunction,Plated,PTH,ComponentDrill
T3C1.100
; #@! TA.AperFunction,Plated,PTH,ComponentDrill
T4C1.500
%
G90
G05
T1
X24.999Y-1.295
X24.999Y-3.835
X24.999Y-6.375
X24.999Y-8.915
X24.999Y-11.455
X24.999Y-13.995
X24.999Y-16.535
X24.999Y-19.075
X24.999Y-21.615
X28.42Y-22.705
X30.96Y-22.705
X33.5Y-22.705
X36.04Y-22.705
X38.58Y-22.705
X41.999Y-1.295
X41.999Y-3.835
X41.999Y-6.375
X41.999Y-8.915
X41.999Y-11.455
X41.999Y-13.995
X41.999Y-16.535
X41.999Y-19.075
X41.999Y-21.615
T2
X52.111Y-2.499
X54.651Y-2.499
X57.191Y-2.499
X59.731Y-2.499
X62.271Y-2.499
X64.811Y-2.499
X67.351Y-2.499
X69.891Y-2.499
T3
X13.134Y-6.751
X13.134Y-21.249
X15.636Y-21.249
X18.135Y-6.751
X18.135Y-21.249
X19.776Y-38.27
X19.776Y-57.32
X26.126Y-35.73
X26.126Y-54.78
X38.824Y-38.27
X38.824Y-57.32
X45.174Y-35.73
X45.174Y-54.78
X57.874Y-38.27
X57.874Y-57.32
X64.224Y-35.73
X64.224Y-54.78
T4
X10.134Y-13.451G85X10.134Y-14.051
G05
X21.135Y-13.451G85X21.135Y-14.051
G05
M30
