%TF.GenerationSoftware,KiCad,Pcbnew,9.0.7*%
%TF.CreationDate,2026-09-06T12:18:28+09:00*%
%TF.ProjectId,SayoBot_O3C_RP2040_6Key,5361796f-426f-4745-9f4f-33435f525032,4*%
%TF.SameCoordinates,Original*%
%TF.FileFunction,Legend,Bot*%
%TF.FilePolarity,Positive*%
%FSLAX46Y46*%
G04 Gerber Fmt 4.6, Leading zero omitted, Abs format (unit mm)*
G04 Created by KiCad (PCBNEW 9.0.7) date 2026-09-06 12:18:28*
%MOMM*%
%LPD*%
G01*
G04 APERTURE LIST*
%ADD10C,0.150000*%
G04 APERTURE END LIST*
D10*
X37666666Y-2954819D02*
X37666666Y-3764342D01*
X37666666Y-3764342D02*
X37619047Y-3859580D01*
X37619047Y-3859580D02*
X37571428Y-3907200D01*
X37571428Y-3907200D02*
X37476190Y-3954819D01*
X37476190Y-3954819D02*
X37285714Y-3954819D01*
X37285714Y-3954819D02*
X37190476Y-3907200D01*
X37190476Y-3907200D02*
X37142857Y-3859580D01*
X37142857Y-3859580D02*
X37095238Y-3764342D01*
X37095238Y-3764342D02*
X37095238Y-2954819D01*
X36666666Y-3907200D02*
X36523809Y-3954819D01*
X36523809Y-3954819D02*
X36285714Y-3954819D01*
X36285714Y-3954819D02*
X36190476Y-3907200D01*
X36190476Y-3907200D02*
X36142857Y-3859580D01*
X36142857Y-3859580D02*
X36095238Y-3764342D01*
X36095238Y-3764342D02*
X36095238Y-3669104D01*
X36095238Y-3669104D02*
X36142857Y-3573866D01*
X36142857Y-3573866D02*
X36190476Y-3526247D01*
X36190476Y-3526247D02*
X36285714Y-3478628D01*
X36285714Y-3478628D02*
X36476190Y-3431009D01*
X36476190Y-3431009D02*
X36571428Y-3383390D01*
X36571428Y-3383390D02*
X36619047Y-3335771D01*
X36619047Y-3335771D02*
X36666666Y-3240533D01*
X36666666Y-3240533D02*
X36666666Y-3145295D01*
X36666666Y-3145295D02*
X36619047Y-3050057D01*
X36619047Y-3050057D02*
X36571428Y-3002438D01*
X36571428Y-3002438D02*
X36476190Y-2954819D01*
X36476190Y-2954819D02*
X36238095Y-2954819D01*
X36238095Y-2954819D02*
X36095238Y-3002438D01*
X35333333Y-3431009D02*
X35190476Y-3478628D01*
X35190476Y-3478628D02*
X35142857Y-3526247D01*
X35142857Y-3526247D02*
X35095238Y-3621485D01*
X35095238Y-3621485D02*
X35095238Y-3764342D01*
X35095238Y-3764342D02*
X35142857Y-3859580D01*
X35142857Y-3859580D02*
X35190476Y-3907200D01*
X35190476Y-3907200D02*
X35285714Y-3954819D01*
X35285714Y-3954819D02*
X35666666Y-3954819D01*
X35666666Y-3954819D02*
X35666666Y-2954819D01*
X35666666Y-2954819D02*
X35333333Y-2954819D01*
X35333333Y-2954819D02*
X35238095Y-3002438D01*
X35238095Y-3002438D02*
X35190476Y-3050057D01*
X35190476Y-3050057D02*
X35142857Y-3145295D01*
X35142857Y-3145295D02*
X35142857Y-3240533D01*
X35142857Y-3240533D02*
X35190476Y-3335771D01*
X35190476Y-3335771D02*
X35238095Y-3383390D01*
X35238095Y-3383390D02*
X35333333Y-3431009D01*
X35333333Y-3431009D02*
X35666666Y-3431009D01*
X34666666Y-3573866D02*
X33904762Y-3573866D01*
X32857143Y-3859580D02*
X32904762Y-3907200D01*
X32904762Y-3907200D02*
X33047619Y-3954819D01*
X33047619Y-3954819D02*
X33142857Y-3954819D01*
X33142857Y-3954819D02*
X33285714Y-3907200D01*
X33285714Y-3907200D02*
X33380952Y-3811961D01*
X33380952Y-3811961D02*
X33428571Y-3716723D01*
X33428571Y-3716723D02*
X33476190Y-3526247D01*
X33476190Y-3526247D02*
X33476190Y-3383390D01*
X33476190Y-3383390D02*
X33428571Y-3192914D01*
X33428571Y-3192914D02*
X33380952Y-3097676D01*
X33380952Y-3097676D02*
X33285714Y-3002438D01*
X33285714Y-3002438D02*
X33142857Y-2954819D01*
X33142857Y-2954819D02*
X33047619Y-2954819D01*
X33047619Y-2954819D02*
X32904762Y-3002438D01*
X32904762Y-3002438D02*
X32857143Y-3050057D01*
X31809523Y-2954819D02*
X31238095Y-2954819D01*
X31523809Y-3954819D02*
X31523809Y-2954819D01*
X30714285Y-2954819D02*
X30523809Y-2954819D01*
X30523809Y-2954819D02*
X30428571Y-3002438D01*
X30428571Y-3002438D02*
X30333333Y-3097676D01*
X30333333Y-3097676D02*
X30285714Y-3288152D01*
X30285714Y-3288152D02*
X30285714Y-3621485D01*
X30285714Y-3621485D02*
X30333333Y-3811961D01*
X30333333Y-3811961D02*
X30428571Y-3907200D01*
X30428571Y-3907200D02*
X30523809Y-3954819D01*
X30523809Y-3954819D02*
X30714285Y-3954819D01*
X30714285Y-3954819D02*
X30809523Y-3907200D01*
X30809523Y-3907200D02*
X30904761Y-3811961D01*
X30904761Y-3811961D02*
X30952380Y-3621485D01*
X30952380Y-3621485D02*
X30952380Y-3288152D01*
X30952380Y-3288152D02*
X30904761Y-3097676D01*
X30904761Y-3097676D02*
X30809523Y-3002438D01*
X30809523Y-3002438D02*
X30714285Y-2954819D01*
X29857142Y-3954819D02*
X29857142Y-2954819D01*
X29857142Y-2954819D02*
X29476190Y-2954819D01*
X29476190Y-2954819D02*
X29380952Y-3002438D01*
X29380952Y-3002438D02*
X29333333Y-3050057D01*
X29333333Y-3050057D02*
X29285714Y-3145295D01*
X29285714Y-3145295D02*
X29285714Y-3288152D01*
X29285714Y-3288152D02*
X29333333Y-3383390D01*
X29333333Y-3383390D02*
X29380952Y-3431009D01*
X29380952Y-3431009D02*
X29476190Y-3478628D01*
X29476190Y-3478628D02*
X29857142Y-3478628D01*
X40499999Y-25454819D02*
X40499999Y-26264342D01*
X40499999Y-26264342D02*
X40452380Y-26359580D01*
X40452380Y-26359580D02*
X40404761Y-26407200D01*
X40404761Y-26407200D02*
X40309523Y-26454819D01*
X40309523Y-26454819D02*
X40119047Y-26454819D01*
X40119047Y-26454819D02*
X40023809Y-26407200D01*
X40023809Y-26407200D02*
X39976190Y-26359580D01*
X39976190Y-26359580D02*
X39928571Y-26264342D01*
X39928571Y-26264342D02*
X39928571Y-25454819D01*
X38928571Y-26454819D02*
X39499999Y-26454819D01*
X39214285Y-26454819D02*
X39214285Y-25454819D01*
X39214285Y-25454819D02*
X39309523Y-25597676D01*
X39309523Y-25597676D02*
X39404761Y-25692914D01*
X39404761Y-25692914D02*
X39499999Y-25740533D01*
X36404761Y-26454819D02*
X36738094Y-25978628D01*
X36976189Y-26454819D02*
X36976189Y-25454819D01*
X36976189Y-25454819D02*
X36595237Y-25454819D01*
X36595237Y-25454819D02*
X36499999Y-25502438D01*
X36499999Y-25502438D02*
X36452380Y-25550057D01*
X36452380Y-25550057D02*
X36404761Y-25645295D01*
X36404761Y-25645295D02*
X36404761Y-25788152D01*
X36404761Y-25788152D02*
X36452380Y-25883390D01*
X36452380Y-25883390D02*
X36499999Y-25931009D01*
X36499999Y-25931009D02*
X36595237Y-25978628D01*
X36595237Y-25978628D02*
X36976189Y-25978628D01*
X35976189Y-26454819D02*
X35976189Y-25454819D01*
X35976189Y-25454819D02*
X35595237Y-25454819D01*
X35595237Y-25454819D02*
X35499999Y-25502438D01*
X35499999Y-25502438D02*
X35452380Y-25550057D01*
X35452380Y-25550057D02*
X35404761Y-25645295D01*
X35404761Y-25645295D02*
X35404761Y-25788152D01*
X35404761Y-25788152D02*
X35452380Y-25883390D01*
X35452380Y-25883390D02*
X35499999Y-25931009D01*
X35499999Y-25931009D02*
X35595237Y-25978628D01*
X35595237Y-25978628D02*
X35976189Y-25978628D01*
X35023808Y-25550057D02*
X34976189Y-25502438D01*
X34976189Y-25502438D02*
X34880951Y-25454819D01*
X34880951Y-25454819D02*
X34642856Y-25454819D01*
X34642856Y-25454819D02*
X34547618Y-25502438D01*
X34547618Y-25502438D02*
X34499999Y-25550057D01*
X34499999Y-25550057D02*
X34452380Y-25645295D01*
X34452380Y-25645295D02*
X34452380Y-25740533D01*
X34452380Y-25740533D02*
X34499999Y-25883390D01*
X34499999Y-25883390D02*
X35071427Y-26454819D01*
X35071427Y-26454819D02*
X34452380Y-26454819D01*
X33833332Y-25454819D02*
X33738094Y-25454819D01*
X33738094Y-25454819D02*
X33642856Y-25502438D01*
X33642856Y-25502438D02*
X33595237Y-25550057D01*
X33595237Y-25550057D02*
X33547618Y-25645295D01*
X33547618Y-25645295D02*
X33499999Y-25835771D01*
X33499999Y-25835771D02*
X33499999Y-26073866D01*
X33499999Y-26073866D02*
X33547618Y-26264342D01*
X33547618Y-26264342D02*
X33595237Y-26359580D01*
X33595237Y-26359580D02*
X33642856Y-26407200D01*
X33642856Y-26407200D02*
X33738094Y-26454819D01*
X33738094Y-26454819D02*
X33833332Y-26454819D01*
X33833332Y-26454819D02*
X33928570Y-26407200D01*
X33928570Y-26407200D02*
X33976189Y-26359580D01*
X33976189Y-26359580D02*
X34023808Y-26264342D01*
X34023808Y-26264342D02*
X34071427Y-26073866D01*
X34071427Y-26073866D02*
X34071427Y-25835771D01*
X34071427Y-25835771D02*
X34023808Y-25645295D01*
X34023808Y-25645295D02*
X33976189Y-25550057D01*
X33976189Y-25550057D02*
X33928570Y-25502438D01*
X33928570Y-25502438D02*
X33833332Y-25454819D01*
X32642856Y-25788152D02*
X32642856Y-26454819D01*
X32880951Y-25407200D02*
X33119046Y-26121485D01*
X33119046Y-26121485D02*
X32499999Y-26121485D01*
X31928570Y-25454819D02*
X31833332Y-25454819D01*
X31833332Y-25454819D02*
X31738094Y-25502438D01*
X31738094Y-25502438D02*
X31690475Y-25550057D01*
X31690475Y-25550057D02*
X31642856Y-25645295D01*
X31642856Y-25645295D02*
X31595237Y-25835771D01*
X31595237Y-25835771D02*
X31595237Y-26073866D01*
X31595237Y-26073866D02*
X31642856Y-26264342D01*
X31642856Y-26264342D02*
X31690475Y-26359580D01*
X31690475Y-26359580D02*
X31738094Y-26407200D01*
X31738094Y-26407200D02*
X31833332Y-26454819D01*
X31833332Y-26454819D02*
X31928570Y-26454819D01*
X31928570Y-26454819D02*
X32023808Y-26407200D01*
X32023808Y-26407200D02*
X32071427Y-26359580D01*
X32071427Y-26359580D02*
X32119046Y-26264342D01*
X32119046Y-26264342D02*
X32166665Y-26073866D01*
X32166665Y-26073866D02*
X32166665Y-25835771D01*
X32166665Y-25835771D02*
X32119046Y-25645295D01*
X32119046Y-25645295D02*
X32071427Y-25550057D01*
X32071427Y-25550057D02*
X32023808Y-25502438D01*
X32023808Y-25502438D02*
X31928570Y-25454819D01*
X31166665Y-26073866D02*
X30404761Y-26073866D01*
X30023808Y-25454819D02*
X29357142Y-25454819D01*
X29357142Y-25454819D02*
X30023808Y-26454819D01*
X30023808Y-26454819D02*
X29357142Y-26454819D01*
X28976189Y-25931009D02*
X28642856Y-25931009D01*
X28499999Y-26454819D02*
X28976189Y-26454819D01*
X28976189Y-26454819D02*
X28976189Y-25454819D01*
X28976189Y-25454819D02*
X28499999Y-25454819D01*
X27499999Y-26454819D02*
X27833332Y-25978628D01*
X28071427Y-26454819D02*
X28071427Y-25454819D01*
X28071427Y-25454819D02*
X27690475Y-25454819D01*
X27690475Y-25454819D02*
X27595237Y-25502438D01*
X27595237Y-25502438D02*
X27547618Y-25550057D01*
X27547618Y-25550057D02*
X27499999Y-25645295D01*
X27499999Y-25645295D02*
X27499999Y-25788152D01*
X27499999Y-25788152D02*
X27547618Y-25883390D01*
X27547618Y-25883390D02*
X27595237Y-25931009D01*
X27595237Y-25931009D02*
X27690475Y-25978628D01*
X27690475Y-25978628D02*
X28071427Y-25978628D01*
X26880951Y-25454819D02*
X26690475Y-25454819D01*
X26690475Y-25454819D02*
X26595237Y-25502438D01*
X26595237Y-25502438D02*
X26499999Y-25597676D01*
X26499999Y-25597676D02*
X26452380Y-25788152D01*
X26452380Y-25788152D02*
X26452380Y-26121485D01*
X26452380Y-26121485D02*
X26499999Y-26311961D01*
X26499999Y-26311961D02*
X26595237Y-26407200D01*
X26595237Y-26407200D02*
X26690475Y-26454819D01*
X26690475Y-26454819D02*
X26880951Y-26454819D01*
X26880951Y-26454819D02*
X26976189Y-26407200D01*
X26976189Y-26407200D02*
X27071427Y-26311961D01*
X27071427Y-26311961D02*
X27119046Y-26121485D01*
X27119046Y-26121485D02*
X27119046Y-25788152D01*
X27119046Y-25788152D02*
X27071427Y-25597676D01*
X27071427Y-25597676D02*
X26976189Y-25502438D01*
X26976189Y-25502438D02*
X26880951Y-25454819D01*
M02*
