%TF.GenerationSoftware,KiCad,Pcbnew,9.0.7*%
%TF.CreationDate,2026-09-06T12:18:28+09:00*%
%TF.ProjectId,SayoBot_O3C_RP2040_6Key,5361796f-426f-4745-9f4f-33435f525032,4*%
%TF.SameCoordinates,Original*%
%TF.FileFunction,Legend,Top*%
%TF.FilePolarity,Positive*%
%FSLAX46Y46*%
G04 Gerber Fmt 4.6, Leading zero omitted, Abs format (unit mm)*
G04 Created by KiCad (PCBNEW 9.0.7) date 2026-09-06 12:18:28*
%MOMM*%
%LPD*%
G01*
G04 APERTURE LIST*
%ADD10C,0.150000*%
%ADD11C,0.120000*%
%ADD12C,0.140000*%
%ADD13C,0.200000*%
%ADD14C,0.127000*%
G04 APERTURE END LIST*
D10*
X60666666Y-22354819D02*
X60666666Y-23069104D01*
X60666666Y-23069104D02*
X60619047Y-23211961D01*
X60619047Y-23211961D02*
X60523809Y-23307200D01*
X60523809Y-23307200D02*
X60380952Y-23354819D01*
X60380952Y-23354819D02*
X60285714Y-23354819D01*
X61666666Y-23354819D02*
X61095238Y-23354819D01*
X61380952Y-23354819D02*
X61380952Y-22354819D01*
X61380952Y-22354819D02*
X61285714Y-22497676D01*
X61285714Y-22497676D02*
X61190476Y-22592914D01*
X61190476Y-22592914D02*
X61095238Y-22640533D01*
X58428571Y-24957200D02*
X58571428Y-25004819D01*
X58571428Y-25004819D02*
X58809523Y-25004819D01*
X58809523Y-25004819D02*
X58904761Y-24957200D01*
X58904761Y-24957200D02*
X58952380Y-24909580D01*
X58952380Y-24909580D02*
X58999999Y-24814342D01*
X58999999Y-24814342D02*
X58999999Y-24719104D01*
X58999999Y-24719104D02*
X58952380Y-24623866D01*
X58952380Y-24623866D02*
X58904761Y-24576247D01*
X58904761Y-24576247D02*
X58809523Y-24528628D01*
X58809523Y-24528628D02*
X58619047Y-24481009D01*
X58619047Y-24481009D02*
X58523809Y-24433390D01*
X58523809Y-24433390D02*
X58476190Y-24385771D01*
X58476190Y-24385771D02*
X58428571Y-24290533D01*
X58428571Y-24290533D02*
X58428571Y-24195295D01*
X58428571Y-24195295D02*
X58476190Y-24100057D01*
X58476190Y-24100057D02*
X58523809Y-24052438D01*
X58523809Y-24052438D02*
X58619047Y-24004819D01*
X58619047Y-24004819D02*
X58857142Y-24004819D01*
X58857142Y-24004819D02*
X58999999Y-24052438D01*
X59285714Y-24004819D02*
X59857142Y-24004819D01*
X59571428Y-25004819D02*
X59571428Y-24004819D01*
X60095238Y-24004819D02*
X60761904Y-24004819D01*
X60761904Y-24004819D02*
X60333333Y-25004819D01*
X61047619Y-24004819D02*
X61714285Y-24004819D01*
X61714285Y-24004819D02*
X61285714Y-25004819D01*
X62000000Y-24004819D02*
X62619047Y-24004819D01*
X62619047Y-24004819D02*
X62285714Y-24385771D01*
X62285714Y-24385771D02*
X62428571Y-24385771D01*
X62428571Y-24385771D02*
X62523809Y-24433390D01*
X62523809Y-24433390D02*
X62571428Y-24481009D01*
X62571428Y-24481009D02*
X62619047Y-24576247D01*
X62619047Y-24576247D02*
X62619047Y-24814342D01*
X62619047Y-24814342D02*
X62571428Y-24909580D01*
X62571428Y-24909580D02*
X62523809Y-24957200D01*
X62523809Y-24957200D02*
X62428571Y-25004819D01*
X62428571Y-25004819D02*
X62142857Y-25004819D01*
X62142857Y-25004819D02*
X62047619Y-24957200D01*
X62047619Y-24957200D02*
X62000000Y-24909580D01*
X63523809Y-24004819D02*
X63047619Y-24004819D01*
X63047619Y-24004819D02*
X63000000Y-24481009D01*
X63000000Y-24481009D02*
X63047619Y-24433390D01*
X63047619Y-24433390D02*
X63142857Y-24385771D01*
X63142857Y-24385771D02*
X63380952Y-24385771D01*
X63380952Y-24385771D02*
X63476190Y-24433390D01*
X63476190Y-24433390D02*
X63523809Y-24481009D01*
X63523809Y-24481009D02*
X63571428Y-24576247D01*
X63571428Y-24576247D02*
X63571428Y-24814342D01*
X63571428Y-24814342D02*
X63523809Y-24909580D01*
X63523809Y-24909580D02*
X63476190Y-24957200D01*
X63476190Y-24957200D02*
X63380952Y-25004819D01*
X63380952Y-25004819D02*
X63142857Y-25004819D01*
X63142857Y-25004819D02*
X63047619Y-24957200D01*
X63047619Y-24957200D02*
X63000000Y-24909580D01*
D11*
X50733332Y-6801950D02*
X50657142Y-6763855D01*
X50657142Y-6763855D02*
X50542856Y-6763855D01*
X50542856Y-6763855D02*
X50428570Y-6801950D01*
X50428570Y-6801950D02*
X50352380Y-6878140D01*
X50352380Y-6878140D02*
X50314285Y-6954331D01*
X50314285Y-6954331D02*
X50276189Y-7106712D01*
X50276189Y-7106712D02*
X50276189Y-7220998D01*
X50276189Y-7220998D02*
X50314285Y-7373379D01*
X50314285Y-7373379D02*
X50352380Y-7449569D01*
X50352380Y-7449569D02*
X50428570Y-7525760D01*
X50428570Y-7525760D02*
X50542856Y-7563855D01*
X50542856Y-7563855D02*
X50619047Y-7563855D01*
X50619047Y-7563855D02*
X50733332Y-7525760D01*
X50733332Y-7525760D02*
X50771428Y-7487664D01*
X50771428Y-7487664D02*
X50771428Y-7220998D01*
X50771428Y-7220998D02*
X50619047Y-7220998D01*
X51114285Y-7563855D02*
X51114285Y-6763855D01*
X51114285Y-6763855D02*
X51571428Y-7563855D01*
X51571428Y-7563855D02*
X51571428Y-6763855D01*
X51952380Y-7563855D02*
X51952380Y-6763855D01*
X51952380Y-6763855D02*
X52142856Y-6763855D01*
X52142856Y-6763855D02*
X52257142Y-6801950D01*
X52257142Y-6801950D02*
X52333332Y-6878140D01*
X52333332Y-6878140D02*
X52371427Y-6954331D01*
X52371427Y-6954331D02*
X52409523Y-7106712D01*
X52409523Y-7106712D02*
X52409523Y-7220998D01*
X52409523Y-7220998D02*
X52371427Y-7373379D01*
X52371427Y-7373379D02*
X52333332Y-7449569D01*
X52333332Y-7449569D02*
X52257142Y-7525760D01*
X52257142Y-7525760D02*
X52142856Y-7563855D01*
X52142856Y-7563855D02*
X51952380Y-7563855D01*
X53285713Y-6763855D02*
X53780951Y-6763855D01*
X53780951Y-6763855D02*
X53514285Y-7068617D01*
X53514285Y-7068617D02*
X53628570Y-7068617D01*
X53628570Y-7068617D02*
X53704761Y-7106712D01*
X53704761Y-7106712D02*
X53742856Y-7144807D01*
X53742856Y-7144807D02*
X53780951Y-7220998D01*
X53780951Y-7220998D02*
X53780951Y-7411474D01*
X53780951Y-7411474D02*
X53742856Y-7487664D01*
X53742856Y-7487664D02*
X53704761Y-7525760D01*
X53704761Y-7525760D02*
X53628570Y-7563855D01*
X53628570Y-7563855D02*
X53399999Y-7563855D01*
X53399999Y-7563855D02*
X53323808Y-7525760D01*
X53323808Y-7525760D02*
X53285713Y-7487664D01*
X54009523Y-6763855D02*
X54276190Y-7563855D01*
X54276190Y-7563855D02*
X54542856Y-6763855D01*
X54733332Y-6763855D02*
X55228570Y-6763855D01*
X55228570Y-6763855D02*
X54961904Y-7068617D01*
X54961904Y-7068617D02*
X55076189Y-7068617D01*
X55076189Y-7068617D02*
X55152380Y-7106712D01*
X55152380Y-7106712D02*
X55190475Y-7144807D01*
X55190475Y-7144807D02*
X55228570Y-7220998D01*
X55228570Y-7220998D02*
X55228570Y-7411474D01*
X55228570Y-7411474D02*
X55190475Y-7487664D01*
X55190475Y-7487664D02*
X55152380Y-7525760D01*
X55152380Y-7525760D02*
X55076189Y-7563855D01*
X55076189Y-7563855D02*
X54847618Y-7563855D01*
X54847618Y-7563855D02*
X54771427Y-7525760D01*
X54771427Y-7525760D02*
X54733332Y-7487664D01*
X56142856Y-7525760D02*
X56257142Y-7563855D01*
X56257142Y-7563855D02*
X56447618Y-7563855D01*
X56447618Y-7563855D02*
X56523809Y-7525760D01*
X56523809Y-7525760D02*
X56561904Y-7487664D01*
X56561904Y-7487664D02*
X56599999Y-7411474D01*
X56599999Y-7411474D02*
X56599999Y-7335283D01*
X56599999Y-7335283D02*
X56561904Y-7259093D01*
X56561904Y-7259093D02*
X56523809Y-7220998D01*
X56523809Y-7220998D02*
X56447618Y-7182902D01*
X56447618Y-7182902D02*
X56295237Y-7144807D01*
X56295237Y-7144807D02*
X56219047Y-7106712D01*
X56219047Y-7106712D02*
X56180952Y-7068617D01*
X56180952Y-7068617D02*
X56142856Y-6992426D01*
X56142856Y-6992426D02*
X56142856Y-6916236D01*
X56142856Y-6916236D02*
X56180952Y-6840045D01*
X56180952Y-6840045D02*
X56219047Y-6801950D01*
X56219047Y-6801950D02*
X56295237Y-6763855D01*
X56295237Y-6763855D02*
X56485714Y-6763855D01*
X56485714Y-6763855D02*
X56599999Y-6801950D01*
X57400000Y-7487664D02*
X57361904Y-7525760D01*
X57361904Y-7525760D02*
X57247619Y-7563855D01*
X57247619Y-7563855D02*
X57171428Y-7563855D01*
X57171428Y-7563855D02*
X57057142Y-7525760D01*
X57057142Y-7525760D02*
X56980952Y-7449569D01*
X56980952Y-7449569D02*
X56942857Y-7373379D01*
X56942857Y-7373379D02*
X56904761Y-7220998D01*
X56904761Y-7220998D02*
X56904761Y-7106712D01*
X56904761Y-7106712D02*
X56942857Y-6954331D01*
X56942857Y-6954331D02*
X56980952Y-6878140D01*
X56980952Y-6878140D02*
X57057142Y-6801950D01*
X57057142Y-6801950D02*
X57171428Y-6763855D01*
X57171428Y-6763855D02*
X57247619Y-6763855D01*
X57247619Y-6763855D02*
X57361904Y-6801950D01*
X57361904Y-6801950D02*
X57400000Y-6840045D01*
X57742857Y-7563855D02*
X57742857Y-6763855D01*
X58200000Y-7563855D02*
X57857142Y-7106712D01*
X58200000Y-6763855D02*
X57742857Y-7220998D01*
X59152381Y-7563855D02*
X59152381Y-6763855D01*
X59152381Y-6763855D02*
X59419047Y-7335283D01*
X59419047Y-7335283D02*
X59685714Y-6763855D01*
X59685714Y-6763855D02*
X59685714Y-7563855D01*
X60219048Y-6763855D02*
X60371429Y-6763855D01*
X60371429Y-6763855D02*
X60447619Y-6801950D01*
X60447619Y-6801950D02*
X60523810Y-6878140D01*
X60523810Y-6878140D02*
X60561905Y-7030521D01*
X60561905Y-7030521D02*
X60561905Y-7297188D01*
X60561905Y-7297188D02*
X60523810Y-7449569D01*
X60523810Y-7449569D02*
X60447619Y-7525760D01*
X60447619Y-7525760D02*
X60371429Y-7563855D01*
X60371429Y-7563855D02*
X60219048Y-7563855D01*
X60219048Y-7563855D02*
X60142857Y-7525760D01*
X60142857Y-7525760D02*
X60066667Y-7449569D01*
X60066667Y-7449569D02*
X60028571Y-7297188D01*
X60028571Y-7297188D02*
X60028571Y-7030521D01*
X60028571Y-7030521D02*
X60066667Y-6878140D01*
X60066667Y-6878140D02*
X60142857Y-6801950D01*
X60142857Y-6801950D02*
X60219048Y-6763855D01*
X60866666Y-7525760D02*
X60980952Y-7563855D01*
X60980952Y-7563855D02*
X61171428Y-7563855D01*
X61171428Y-7563855D02*
X61247619Y-7525760D01*
X61247619Y-7525760D02*
X61285714Y-7487664D01*
X61285714Y-7487664D02*
X61323809Y-7411474D01*
X61323809Y-7411474D02*
X61323809Y-7335283D01*
X61323809Y-7335283D02*
X61285714Y-7259093D01*
X61285714Y-7259093D02*
X61247619Y-7220998D01*
X61247619Y-7220998D02*
X61171428Y-7182902D01*
X61171428Y-7182902D02*
X61019047Y-7144807D01*
X61019047Y-7144807D02*
X60942857Y-7106712D01*
X60942857Y-7106712D02*
X60904762Y-7068617D01*
X60904762Y-7068617D02*
X60866666Y-6992426D01*
X60866666Y-6992426D02*
X60866666Y-6916236D01*
X60866666Y-6916236D02*
X60904762Y-6840045D01*
X60904762Y-6840045D02*
X60942857Y-6801950D01*
X60942857Y-6801950D02*
X61019047Y-6763855D01*
X61019047Y-6763855D02*
X61209524Y-6763855D01*
X61209524Y-6763855D02*
X61323809Y-6801950D01*
X61666667Y-7563855D02*
X61666667Y-6763855D01*
X63114286Y-7563855D02*
X62847619Y-7182902D01*
X62657143Y-7563855D02*
X62657143Y-6763855D01*
X62657143Y-6763855D02*
X62961905Y-6763855D01*
X62961905Y-6763855D02*
X63038095Y-6801950D01*
X63038095Y-6801950D02*
X63076190Y-6840045D01*
X63076190Y-6840045D02*
X63114286Y-6916236D01*
X63114286Y-6916236D02*
X63114286Y-7030521D01*
X63114286Y-7030521D02*
X63076190Y-7106712D01*
X63076190Y-7106712D02*
X63038095Y-7144807D01*
X63038095Y-7144807D02*
X62961905Y-7182902D01*
X62961905Y-7182902D02*
X62657143Y-7182902D01*
X63419047Y-7525760D02*
X63533333Y-7563855D01*
X63533333Y-7563855D02*
X63723809Y-7563855D01*
X63723809Y-7563855D02*
X63800000Y-7525760D01*
X63800000Y-7525760D02*
X63838095Y-7487664D01*
X63838095Y-7487664D02*
X63876190Y-7411474D01*
X63876190Y-7411474D02*
X63876190Y-7335283D01*
X63876190Y-7335283D02*
X63838095Y-7259093D01*
X63838095Y-7259093D02*
X63800000Y-7220998D01*
X63800000Y-7220998D02*
X63723809Y-7182902D01*
X63723809Y-7182902D02*
X63571428Y-7144807D01*
X63571428Y-7144807D02*
X63495238Y-7106712D01*
X63495238Y-7106712D02*
X63457143Y-7068617D01*
X63457143Y-7068617D02*
X63419047Y-6992426D01*
X63419047Y-6992426D02*
X63419047Y-6916236D01*
X63419047Y-6916236D02*
X63457143Y-6840045D01*
X63457143Y-6840045D02*
X63495238Y-6801950D01*
X63495238Y-6801950D02*
X63571428Y-6763855D01*
X63571428Y-6763855D02*
X63761905Y-6763855D01*
X63761905Y-6763855D02*
X63876190Y-6801950D01*
X64104762Y-6763855D02*
X64561905Y-6763855D01*
X64333333Y-7563855D02*
X64333333Y-6763855D01*
X65438096Y-7563855D02*
X65438096Y-6763855D01*
X65438096Y-6763855D02*
X65628572Y-6763855D01*
X65628572Y-6763855D02*
X65742858Y-6801950D01*
X65742858Y-6801950D02*
X65819048Y-6878140D01*
X65819048Y-6878140D02*
X65857143Y-6954331D01*
X65857143Y-6954331D02*
X65895239Y-7106712D01*
X65895239Y-7106712D02*
X65895239Y-7220998D01*
X65895239Y-7220998D02*
X65857143Y-7373379D01*
X65857143Y-7373379D02*
X65819048Y-7449569D01*
X65819048Y-7449569D02*
X65742858Y-7525760D01*
X65742858Y-7525760D02*
X65628572Y-7563855D01*
X65628572Y-7563855D02*
X65438096Y-7563855D01*
X66695239Y-7487664D02*
X66657143Y-7525760D01*
X66657143Y-7525760D02*
X66542858Y-7563855D01*
X66542858Y-7563855D02*
X66466667Y-7563855D01*
X66466667Y-7563855D02*
X66352381Y-7525760D01*
X66352381Y-7525760D02*
X66276191Y-7449569D01*
X66276191Y-7449569D02*
X66238096Y-7373379D01*
X66238096Y-7373379D02*
X66200000Y-7220998D01*
X66200000Y-7220998D02*
X66200000Y-7106712D01*
X66200000Y-7106712D02*
X66238096Y-6954331D01*
X66238096Y-6954331D02*
X66276191Y-6878140D01*
X66276191Y-6878140D02*
X66352381Y-6801950D01*
X66352381Y-6801950D02*
X66466667Y-6763855D01*
X66466667Y-6763855D02*
X66542858Y-6763855D01*
X66542858Y-6763855D02*
X66657143Y-6801950D01*
X66657143Y-6801950D02*
X66695239Y-6840045D01*
X68104763Y-7487664D02*
X68066667Y-7525760D01*
X68066667Y-7525760D02*
X67952382Y-7563855D01*
X67952382Y-7563855D02*
X67876191Y-7563855D01*
X67876191Y-7563855D02*
X67761905Y-7525760D01*
X67761905Y-7525760D02*
X67685715Y-7449569D01*
X67685715Y-7449569D02*
X67647620Y-7373379D01*
X67647620Y-7373379D02*
X67609524Y-7220998D01*
X67609524Y-7220998D02*
X67609524Y-7106712D01*
X67609524Y-7106712D02*
X67647620Y-6954331D01*
X67647620Y-6954331D02*
X67685715Y-6878140D01*
X67685715Y-6878140D02*
X67761905Y-6801950D01*
X67761905Y-6801950D02*
X67876191Y-6763855D01*
X67876191Y-6763855D02*
X67952382Y-6763855D01*
X67952382Y-6763855D02*
X68066667Y-6801950D01*
X68066667Y-6801950D02*
X68104763Y-6840045D01*
X68409524Y-7525760D02*
X68523810Y-7563855D01*
X68523810Y-7563855D02*
X68714286Y-7563855D01*
X68714286Y-7563855D02*
X68790477Y-7525760D01*
X68790477Y-7525760D02*
X68828572Y-7487664D01*
X68828572Y-7487664D02*
X68866667Y-7411474D01*
X68866667Y-7411474D02*
X68866667Y-7335283D01*
X68866667Y-7335283D02*
X68828572Y-7259093D01*
X68828572Y-7259093D02*
X68790477Y-7220998D01*
X68790477Y-7220998D02*
X68714286Y-7182902D01*
X68714286Y-7182902D02*
X68561905Y-7144807D01*
X68561905Y-7144807D02*
X68485715Y-7106712D01*
X68485715Y-7106712D02*
X68447620Y-7068617D01*
X68447620Y-7068617D02*
X68409524Y-6992426D01*
X68409524Y-6992426D02*
X68409524Y-6916236D01*
X68409524Y-6916236D02*
X68447620Y-6840045D01*
X68447620Y-6840045D02*
X68485715Y-6801950D01*
X68485715Y-6801950D02*
X68561905Y-6763855D01*
X68561905Y-6763855D02*
X68752382Y-6763855D01*
X68752382Y-6763855D02*
X68866667Y-6801950D01*
X70085715Y-7144807D02*
X70200001Y-7182902D01*
X70200001Y-7182902D02*
X70238096Y-7220998D01*
X70238096Y-7220998D02*
X70276192Y-7297188D01*
X70276192Y-7297188D02*
X70276192Y-7411474D01*
X70276192Y-7411474D02*
X70238096Y-7487664D01*
X70238096Y-7487664D02*
X70200001Y-7525760D01*
X70200001Y-7525760D02*
X70123811Y-7563855D01*
X70123811Y-7563855D02*
X69819049Y-7563855D01*
X69819049Y-7563855D02*
X69819049Y-6763855D01*
X69819049Y-6763855D02*
X70085715Y-6763855D01*
X70085715Y-6763855D02*
X70161906Y-6801950D01*
X70161906Y-6801950D02*
X70200001Y-6840045D01*
X70200001Y-6840045D02*
X70238096Y-6916236D01*
X70238096Y-6916236D02*
X70238096Y-6992426D01*
X70238096Y-6992426D02*
X70200001Y-7068617D01*
X70200001Y-7068617D02*
X70161906Y-7106712D01*
X70161906Y-7106712D02*
X70085715Y-7144807D01*
X70085715Y-7144807D02*
X69819049Y-7144807D01*
X71000001Y-7563855D02*
X70619049Y-7563855D01*
X70619049Y-7563855D02*
X70619049Y-6763855D01*
X71266668Y-7563855D02*
X71266668Y-6763855D01*
X71723811Y-7563855D02*
X71380953Y-7106712D01*
X71723811Y-6763855D02*
X71266668Y-7220998D01*
D10*
X21616667Y-51257200D02*
X21759524Y-51304819D01*
X21759524Y-51304819D02*
X21997619Y-51304819D01*
X21997619Y-51304819D02*
X22092857Y-51257200D01*
X22092857Y-51257200D02*
X22140476Y-51209580D01*
X22140476Y-51209580D02*
X22188095Y-51114342D01*
X22188095Y-51114342D02*
X22188095Y-51019104D01*
X22188095Y-51019104D02*
X22140476Y-50923866D01*
X22140476Y-50923866D02*
X22092857Y-50876247D01*
X22092857Y-50876247D02*
X21997619Y-50828628D01*
X21997619Y-50828628D02*
X21807143Y-50781009D01*
X21807143Y-50781009D02*
X21711905Y-50733390D01*
X21711905Y-50733390D02*
X21664286Y-50685771D01*
X21664286Y-50685771D02*
X21616667Y-50590533D01*
X21616667Y-50590533D02*
X21616667Y-50495295D01*
X21616667Y-50495295D02*
X21664286Y-50400057D01*
X21664286Y-50400057D02*
X21711905Y-50352438D01*
X21711905Y-50352438D02*
X21807143Y-50304819D01*
X21807143Y-50304819D02*
X22045238Y-50304819D01*
X22045238Y-50304819D02*
X22188095Y-50352438D01*
X22521429Y-50304819D02*
X22759524Y-51304819D01*
X22759524Y-51304819D02*
X22950000Y-50590533D01*
X22950000Y-50590533D02*
X23140476Y-51304819D01*
X23140476Y-51304819D02*
X23378572Y-50304819D01*
X23711905Y-50400057D02*
X23759524Y-50352438D01*
X23759524Y-50352438D02*
X23854762Y-50304819D01*
X23854762Y-50304819D02*
X24092857Y-50304819D01*
X24092857Y-50304819D02*
X24188095Y-50352438D01*
X24188095Y-50352438D02*
X24235714Y-50400057D01*
X24235714Y-50400057D02*
X24283333Y-50495295D01*
X24283333Y-50495295D02*
X24283333Y-50590533D01*
X24283333Y-50590533D02*
X24235714Y-50733390D01*
X24235714Y-50733390D02*
X23664286Y-51304819D01*
X23664286Y-51304819D02*
X24283333Y-51304819D01*
D12*
X22221428Y-66609077D02*
X22221428Y-65709077D01*
X22221428Y-65709077D02*
X22521428Y-66351934D01*
X22521428Y-66351934D02*
X22821428Y-65709077D01*
X22821428Y-65709077D02*
X22821428Y-66609077D01*
X23164285Y-65709077D02*
X23764285Y-66609077D01*
X23764285Y-65709077D02*
X23164285Y-66609077D01*
D10*
X59715067Y-51257200D02*
X59857924Y-51304819D01*
X59857924Y-51304819D02*
X60096019Y-51304819D01*
X60096019Y-51304819D02*
X60191257Y-51257200D01*
X60191257Y-51257200D02*
X60238876Y-51209580D01*
X60238876Y-51209580D02*
X60286495Y-51114342D01*
X60286495Y-51114342D02*
X60286495Y-51019104D01*
X60286495Y-51019104D02*
X60238876Y-50923866D01*
X60238876Y-50923866D02*
X60191257Y-50876247D01*
X60191257Y-50876247D02*
X60096019Y-50828628D01*
X60096019Y-50828628D02*
X59905543Y-50781009D01*
X59905543Y-50781009D02*
X59810305Y-50733390D01*
X59810305Y-50733390D02*
X59762686Y-50685771D01*
X59762686Y-50685771D02*
X59715067Y-50590533D01*
X59715067Y-50590533D02*
X59715067Y-50495295D01*
X59715067Y-50495295D02*
X59762686Y-50400057D01*
X59762686Y-50400057D02*
X59810305Y-50352438D01*
X59810305Y-50352438D02*
X59905543Y-50304819D01*
X59905543Y-50304819D02*
X60143638Y-50304819D01*
X60143638Y-50304819D02*
X60286495Y-50352438D01*
X60619829Y-50304819D02*
X60857924Y-51304819D01*
X60857924Y-51304819D02*
X61048400Y-50590533D01*
X61048400Y-50590533D02*
X61238876Y-51304819D01*
X61238876Y-51304819D02*
X61476972Y-50304819D01*
X62286495Y-50638152D02*
X62286495Y-51304819D01*
X62048400Y-50257200D02*
X61810305Y-50971485D01*
X61810305Y-50971485D02*
X62429352Y-50971485D01*
D12*
X60319828Y-66609077D02*
X60319828Y-65709077D01*
X60319828Y-65709077D02*
X60619828Y-66351934D01*
X60619828Y-66351934D02*
X60919828Y-65709077D01*
X60919828Y-65709077D02*
X60919828Y-66609077D01*
X61262685Y-65709077D02*
X61862685Y-66609077D01*
X61862685Y-65709077D02*
X61262685Y-66609077D01*
D10*
X40664567Y-51257200D02*
X40807424Y-51304819D01*
X40807424Y-51304819D02*
X41045519Y-51304819D01*
X41045519Y-51304819D02*
X41140757Y-51257200D01*
X41140757Y-51257200D02*
X41188376Y-51209580D01*
X41188376Y-51209580D02*
X41235995Y-51114342D01*
X41235995Y-51114342D02*
X41235995Y-51019104D01*
X41235995Y-51019104D02*
X41188376Y-50923866D01*
X41188376Y-50923866D02*
X41140757Y-50876247D01*
X41140757Y-50876247D02*
X41045519Y-50828628D01*
X41045519Y-50828628D02*
X40855043Y-50781009D01*
X40855043Y-50781009D02*
X40759805Y-50733390D01*
X40759805Y-50733390D02*
X40712186Y-50685771D01*
X40712186Y-50685771D02*
X40664567Y-50590533D01*
X40664567Y-50590533D02*
X40664567Y-50495295D01*
X40664567Y-50495295D02*
X40712186Y-50400057D01*
X40712186Y-50400057D02*
X40759805Y-50352438D01*
X40759805Y-50352438D02*
X40855043Y-50304819D01*
X40855043Y-50304819D02*
X41093138Y-50304819D01*
X41093138Y-50304819D02*
X41235995Y-50352438D01*
X41569329Y-50304819D02*
X41807424Y-51304819D01*
X41807424Y-51304819D02*
X41997900Y-50590533D01*
X41997900Y-50590533D02*
X42188376Y-51304819D01*
X42188376Y-51304819D02*
X42426472Y-50304819D01*
X42712186Y-50304819D02*
X43331233Y-50304819D01*
X43331233Y-50304819D02*
X42997900Y-50685771D01*
X42997900Y-50685771D02*
X43140757Y-50685771D01*
X43140757Y-50685771D02*
X43235995Y-50733390D01*
X43235995Y-50733390D02*
X43283614Y-50781009D01*
X43283614Y-50781009D02*
X43331233Y-50876247D01*
X43331233Y-50876247D02*
X43331233Y-51114342D01*
X43331233Y-51114342D02*
X43283614Y-51209580D01*
X43283614Y-51209580D02*
X43235995Y-51257200D01*
X43235995Y-51257200D02*
X43140757Y-51304819D01*
X43140757Y-51304819D02*
X42855043Y-51304819D01*
X42855043Y-51304819D02*
X42759805Y-51257200D01*
X42759805Y-51257200D02*
X42712186Y-51209580D01*
D12*
X41269328Y-66609077D02*
X41269328Y-65709077D01*
X41269328Y-65709077D02*
X41569328Y-66351934D01*
X41569328Y-66351934D02*
X41869328Y-65709077D01*
X41869328Y-65709077D02*
X41869328Y-66609077D01*
X42212185Y-65709077D02*
X42812185Y-66609077D01*
X42812185Y-65709077D02*
X42212185Y-66609077D01*
D10*
X59715067Y-32207200D02*
X59857924Y-32254819D01*
X59857924Y-32254819D02*
X60096019Y-32254819D01*
X60096019Y-32254819D02*
X60191257Y-32207200D01*
X60191257Y-32207200D02*
X60238876Y-32159580D01*
X60238876Y-32159580D02*
X60286495Y-32064342D01*
X60286495Y-32064342D02*
X60286495Y-31969104D01*
X60286495Y-31969104D02*
X60238876Y-31873866D01*
X60238876Y-31873866D02*
X60191257Y-31826247D01*
X60191257Y-31826247D02*
X60096019Y-31778628D01*
X60096019Y-31778628D02*
X59905543Y-31731009D01*
X59905543Y-31731009D02*
X59810305Y-31683390D01*
X59810305Y-31683390D02*
X59762686Y-31635771D01*
X59762686Y-31635771D02*
X59715067Y-31540533D01*
X59715067Y-31540533D02*
X59715067Y-31445295D01*
X59715067Y-31445295D02*
X59762686Y-31350057D01*
X59762686Y-31350057D02*
X59810305Y-31302438D01*
X59810305Y-31302438D02*
X59905543Y-31254819D01*
X59905543Y-31254819D02*
X60143638Y-31254819D01*
X60143638Y-31254819D02*
X60286495Y-31302438D01*
X60619829Y-31254819D02*
X60857924Y-32254819D01*
X60857924Y-32254819D02*
X61048400Y-31540533D01*
X61048400Y-31540533D02*
X61238876Y-32254819D01*
X61238876Y-32254819D02*
X61476972Y-31254819D01*
X61762686Y-31254819D02*
X62429352Y-31254819D01*
X62429352Y-31254819D02*
X62000781Y-32254819D01*
D12*
X60319828Y-47559077D02*
X60319828Y-46659077D01*
X60319828Y-46659077D02*
X60619828Y-47301934D01*
X60619828Y-47301934D02*
X60919828Y-46659077D01*
X60919828Y-46659077D02*
X60919828Y-47559077D01*
X61262685Y-46659077D02*
X61862685Y-47559077D01*
X61862685Y-46659077D02*
X61262685Y-47559077D01*
D10*
X40664567Y-32207200D02*
X40807424Y-32254819D01*
X40807424Y-32254819D02*
X41045519Y-32254819D01*
X41045519Y-32254819D02*
X41140757Y-32207200D01*
X41140757Y-32207200D02*
X41188376Y-32159580D01*
X41188376Y-32159580D02*
X41235995Y-32064342D01*
X41235995Y-32064342D02*
X41235995Y-31969104D01*
X41235995Y-31969104D02*
X41188376Y-31873866D01*
X41188376Y-31873866D02*
X41140757Y-31826247D01*
X41140757Y-31826247D02*
X41045519Y-31778628D01*
X41045519Y-31778628D02*
X40855043Y-31731009D01*
X40855043Y-31731009D02*
X40759805Y-31683390D01*
X40759805Y-31683390D02*
X40712186Y-31635771D01*
X40712186Y-31635771D02*
X40664567Y-31540533D01*
X40664567Y-31540533D02*
X40664567Y-31445295D01*
X40664567Y-31445295D02*
X40712186Y-31350057D01*
X40712186Y-31350057D02*
X40759805Y-31302438D01*
X40759805Y-31302438D02*
X40855043Y-31254819D01*
X40855043Y-31254819D02*
X41093138Y-31254819D01*
X41093138Y-31254819D02*
X41235995Y-31302438D01*
X41569329Y-31254819D02*
X41807424Y-32254819D01*
X41807424Y-32254819D02*
X41997900Y-31540533D01*
X41997900Y-31540533D02*
X42188376Y-32254819D01*
X42188376Y-32254819D02*
X42426472Y-31254819D01*
X43235995Y-31254819D02*
X43045519Y-31254819D01*
X43045519Y-31254819D02*
X42950281Y-31302438D01*
X42950281Y-31302438D02*
X42902662Y-31350057D01*
X42902662Y-31350057D02*
X42807424Y-31492914D01*
X42807424Y-31492914D02*
X42759805Y-31683390D01*
X42759805Y-31683390D02*
X42759805Y-32064342D01*
X42759805Y-32064342D02*
X42807424Y-32159580D01*
X42807424Y-32159580D02*
X42855043Y-32207200D01*
X42855043Y-32207200D02*
X42950281Y-32254819D01*
X42950281Y-32254819D02*
X43140757Y-32254819D01*
X43140757Y-32254819D02*
X43235995Y-32207200D01*
X43235995Y-32207200D02*
X43283614Y-32159580D01*
X43283614Y-32159580D02*
X43331233Y-32064342D01*
X43331233Y-32064342D02*
X43331233Y-31826247D01*
X43331233Y-31826247D02*
X43283614Y-31731009D01*
X43283614Y-31731009D02*
X43235995Y-31683390D01*
X43235995Y-31683390D02*
X43140757Y-31635771D01*
X43140757Y-31635771D02*
X42950281Y-31635771D01*
X42950281Y-31635771D02*
X42855043Y-31683390D01*
X42855043Y-31683390D02*
X42807424Y-31731009D01*
X42807424Y-31731009D02*
X42759805Y-31826247D01*
D12*
X41269328Y-47559077D02*
X41269328Y-46659077D01*
X41269328Y-46659077D02*
X41569328Y-47301934D01*
X41569328Y-47301934D02*
X41869328Y-46659077D01*
X41869328Y-46659077D02*
X41869328Y-47559077D01*
X42212185Y-46659077D02*
X42812185Y-47559077D01*
X42812185Y-46659077D02*
X42212185Y-47559077D01*
D10*
X21616667Y-32207200D02*
X21759524Y-32254819D01*
X21759524Y-32254819D02*
X21997619Y-32254819D01*
X21997619Y-32254819D02*
X22092857Y-32207200D01*
X22092857Y-32207200D02*
X22140476Y-32159580D01*
X22140476Y-32159580D02*
X22188095Y-32064342D01*
X22188095Y-32064342D02*
X22188095Y-31969104D01*
X22188095Y-31969104D02*
X22140476Y-31873866D01*
X22140476Y-31873866D02*
X22092857Y-31826247D01*
X22092857Y-31826247D02*
X21997619Y-31778628D01*
X21997619Y-31778628D02*
X21807143Y-31731009D01*
X21807143Y-31731009D02*
X21711905Y-31683390D01*
X21711905Y-31683390D02*
X21664286Y-31635771D01*
X21664286Y-31635771D02*
X21616667Y-31540533D01*
X21616667Y-31540533D02*
X21616667Y-31445295D01*
X21616667Y-31445295D02*
X21664286Y-31350057D01*
X21664286Y-31350057D02*
X21711905Y-31302438D01*
X21711905Y-31302438D02*
X21807143Y-31254819D01*
X21807143Y-31254819D02*
X22045238Y-31254819D01*
X22045238Y-31254819D02*
X22188095Y-31302438D01*
X22521429Y-31254819D02*
X22759524Y-32254819D01*
X22759524Y-32254819D02*
X22950000Y-31540533D01*
X22950000Y-31540533D02*
X23140476Y-32254819D01*
X23140476Y-32254819D02*
X23378572Y-31254819D01*
X24235714Y-31254819D02*
X23759524Y-31254819D01*
X23759524Y-31254819D02*
X23711905Y-31731009D01*
X23711905Y-31731009D02*
X23759524Y-31683390D01*
X23759524Y-31683390D02*
X23854762Y-31635771D01*
X23854762Y-31635771D02*
X24092857Y-31635771D01*
X24092857Y-31635771D02*
X24188095Y-31683390D01*
X24188095Y-31683390D02*
X24235714Y-31731009D01*
X24235714Y-31731009D02*
X24283333Y-31826247D01*
X24283333Y-31826247D02*
X24283333Y-32064342D01*
X24283333Y-32064342D02*
X24235714Y-32159580D01*
X24235714Y-32159580D02*
X24188095Y-32207200D01*
X24188095Y-32207200D02*
X24092857Y-32254819D01*
X24092857Y-32254819D02*
X23854762Y-32254819D01*
X23854762Y-32254819D02*
X23759524Y-32207200D01*
X23759524Y-32207200D02*
X23711905Y-32159580D01*
D12*
X22221428Y-47559077D02*
X22221428Y-46659077D01*
X22221428Y-46659077D02*
X22521428Y-47301934D01*
X22521428Y-47301934D02*
X22821428Y-46659077D01*
X22821428Y-46659077D02*
X22821428Y-47559077D01*
X23164285Y-46659077D02*
X23764285Y-47559077D01*
X23764285Y-46659077D02*
X23164285Y-47559077D01*
D10*
X14301667Y-24607200D02*
X14444524Y-24654819D01*
X14444524Y-24654819D02*
X14682619Y-24654819D01*
X14682619Y-24654819D02*
X14777857Y-24607200D01*
X14777857Y-24607200D02*
X14825476Y-24559580D01*
X14825476Y-24559580D02*
X14873095Y-24464342D01*
X14873095Y-24464342D02*
X14873095Y-24369104D01*
X14873095Y-24369104D02*
X14825476Y-24273866D01*
X14825476Y-24273866D02*
X14777857Y-24226247D01*
X14777857Y-24226247D02*
X14682619Y-24178628D01*
X14682619Y-24178628D02*
X14492143Y-24131009D01*
X14492143Y-24131009D02*
X14396905Y-24083390D01*
X14396905Y-24083390D02*
X14349286Y-24035771D01*
X14349286Y-24035771D02*
X14301667Y-23940533D01*
X14301667Y-23940533D02*
X14301667Y-23845295D01*
X14301667Y-23845295D02*
X14349286Y-23750057D01*
X14349286Y-23750057D02*
X14396905Y-23702438D01*
X14396905Y-23702438D02*
X14492143Y-23654819D01*
X14492143Y-23654819D02*
X14730238Y-23654819D01*
X14730238Y-23654819D02*
X14873095Y-23702438D01*
X15206429Y-23654819D02*
X15444524Y-24654819D01*
X15444524Y-24654819D02*
X15635000Y-23940533D01*
X15635000Y-23940533D02*
X15825476Y-24654819D01*
X15825476Y-24654819D02*
X16063572Y-23654819D01*
X16968333Y-24654819D02*
X16396905Y-24654819D01*
X16682619Y-24654819D02*
X16682619Y-23654819D01*
X16682619Y-23654819D02*
X16587381Y-23797676D01*
X16587381Y-23797676D02*
X16492143Y-23892914D01*
X16492143Y-23892914D02*
X16396905Y-23940533D01*
D12*
X14134999Y-25637648D02*
X14434999Y-25637648D01*
X14563571Y-26109077D02*
X14134999Y-26109077D01*
X14134999Y-26109077D02*
X14134999Y-25209077D01*
X14134999Y-25209077D02*
X14563571Y-25209077D01*
X15463571Y-26023362D02*
X15420714Y-26066220D01*
X15420714Y-26066220D02*
X15292142Y-26109077D01*
X15292142Y-26109077D02*
X15206428Y-26109077D01*
X15206428Y-26109077D02*
X15077857Y-26066220D01*
X15077857Y-26066220D02*
X14992142Y-25980505D01*
X14992142Y-25980505D02*
X14949285Y-25894791D01*
X14949285Y-25894791D02*
X14906428Y-25723362D01*
X14906428Y-25723362D02*
X14906428Y-25594791D01*
X14906428Y-25594791D02*
X14949285Y-25423362D01*
X14949285Y-25423362D02*
X14992142Y-25337648D01*
X14992142Y-25337648D02*
X15077857Y-25251934D01*
X15077857Y-25251934D02*
X15206428Y-25209077D01*
X15206428Y-25209077D02*
X15292142Y-25209077D01*
X15292142Y-25209077D02*
X15420714Y-25251934D01*
X15420714Y-25251934D02*
X15463571Y-25294791D01*
X16320714Y-26109077D02*
X15806428Y-26109077D01*
X16063571Y-26109077D02*
X16063571Y-25209077D01*
X16063571Y-25209077D02*
X15977857Y-25337648D01*
X15977857Y-25337648D02*
X15892142Y-25423362D01*
X15892142Y-25423362D02*
X15806428Y-25466220D01*
X17177857Y-26109077D02*
X16663571Y-26109077D01*
X16920714Y-26109077D02*
X16920714Y-25209077D01*
X16920714Y-25209077D02*
X16835000Y-25337648D01*
X16835000Y-25337648D02*
X16749285Y-25423362D01*
X16749285Y-25423362D02*
X16663571Y-25466220D01*
%TO.C,J1*%
D13*
X45300000Y-300000D02*
X76700000Y-300000D01*
X76700000Y-28000000D01*
X45300000Y-28000000D01*
X45300000Y-300000D01*
D14*
X50152000Y-9600000D02*
X71848000Y-9600000D01*
X71848000Y-20400000D01*
X50152000Y-20400000D01*
X50152000Y-9600000D01*
D13*
X50840000Y-1250000D02*
X71160000Y-1250000D01*
X71160000Y-3750000D01*
X50840000Y-3750000D01*
X50840000Y-1250000D01*
D10*
X49300000Y-2500000D02*
G75*
G02*
X46300000Y-2500000I-1500000J0D01*
G01*
X46300000Y-2500000D02*
G75*
G02*
X49300000Y-2500000I1500000J0D01*
G01*
X49300000Y-25500000D02*
G75*
G02*
X46300000Y-25500000I-1500000J0D01*
G01*
X46300000Y-25500000D02*
G75*
G02*
X49300000Y-25500000I1500000J0D01*
G01*
X75700000Y-2500000D02*
G75*
G02*
X72700000Y-2500000I-1500000J0D01*
G01*
X72700000Y-2500000D02*
G75*
G02*
X75700000Y-2500000I1500000J0D01*
G01*
X75700000Y-25500000D02*
G75*
G02*
X72700000Y-25500000I-1500000J0D01*
G01*
X72700000Y-25500000D02*
G75*
G02*
X75700000Y-25500000I1500000J0D01*
G01*
%TO.C,SW2*%
D13*
X15785000Y-52060000D02*
X31385000Y-52060000D01*
X31385000Y-67660000D01*
X15785000Y-67660000D01*
X15785000Y-52060000D01*
%TO.C,SW4*%
X53883400Y-52060000D02*
X69483400Y-52060000D01*
X69483400Y-67660000D01*
X53883400Y-67660000D01*
X53883400Y-52060000D01*
%TO.C,SW3*%
X34832900Y-52060000D02*
X50432900Y-52060000D01*
X50432900Y-67660000D01*
X34832900Y-67660000D01*
X34832900Y-52060000D01*
%TO.C,SW7*%
X53883400Y-33010000D02*
X69483400Y-33010000D01*
X69483400Y-48610000D01*
X53883400Y-48610000D01*
X53883400Y-33010000D01*
%TO.C,SW6*%
X34832900Y-33010000D02*
X50432900Y-33010000D01*
X50432900Y-48610000D01*
X34832900Y-48610000D01*
X34832900Y-33010000D01*
%TO.C,SW5*%
X15785000Y-33010000D02*
X31385000Y-33010000D01*
X31385000Y-48610000D01*
X15785000Y-48610000D01*
X15785000Y-33010000D01*
%TO.C,SW1*%
X18635000Y-14000000D02*
G75*
G02*
X12635000Y-14000000I-3000000J0D01*
G01*
X12635000Y-14000000D02*
G75*
G02*
X18635000Y-14000000I3000000J0D01*
G01*
%TD*%
M02*
