<svg xmlns="http://www.w3.org/2000/svg" viewBox="0 0 160 80" shape-rendering="crispEdges"><title>Flower Memory</title><rect width="160" height="80" fill="#fff7dc"/><circle cx="27" cy="34" r="6" fill="#ff9bb2"/><circle cx="20" cy="41" r="6" fill="#ff9bb2"/><circle cx="34" cy="41" r="6" fill="#ff9bb2"/><circle cx="23" cy="48" r="6" fill="#ff9bb2"/><circle cx="31" cy="48" r="6" fill="#ff9bb2"/><circle cx="27" cy="41" r="5" fill="#ffe29a"/><path d="M25 41h1m3 0h1m-3 3h3" stroke="#53536b"/><rect x="60" y="22" width="40" height="40" rx="8" fill="white"/><circle cx="80" cy="34" r="6" fill="#b4e6c6"/><circle cx="73" cy="41" r="6" fill="#b4e6c6"/><circle cx="87" cy="41" r="6" fill="#b4e6c6"/><circle cx="76" cy="48" r="6" fill="#b4e6c6"/><circle cx="84" cy="48" r="6" fill="#b4e6c6"/><circle cx="80" cy="41" r="5" fill="#ffe29a"/><path d="M78 41h1m3 0h1m-3 3h3" stroke="#53536b"/><circle cx="133" cy="34" r="6" fill="#a4d8f6"/><circle cx="126" cy="41" r="6" fill="#a4d8f6"/><circle cx="140" cy="41" r="6" fill="#a4d8f6"/><circle cx="129" cy="48" r="6" fill="#a4d8f6"/><circle cx="137" cy="48" r="6" fill="#a4d8f6"/><circle cx="133" cy="41" r="5" fill="#ffe29a"/><path d="M131 41h1m3 0h1m-3 3h3" stroke="#53536b"/></svg>