mtllib EC11_WITH_KNOB.mtl
v -6.00000 -6.00000 0.00000
v -6.00000 -6.00000 6.50000
v -6.00000 6.00000 0.00000
v -6.00000 6.00000 6.50000
v 6.00000 -6.00000 0.00000
v 6.00000 -6.00000 6.50000
v 6.00000 6.00000 0.00000
v 6.00000 6.00000 6.50000
v -6.00000 -6.00000 0.00000
v 6.00000 -6.00000 0.00000
v -6.00000 -6.00000 6.50000
v 6.00000 -6.00000 6.50000
v -6.00000 6.00000 0.00000
v 6.00000 6.00000 0.00000
v -6.00000 6.00000 6.50000
v 6.00000 6.00000 6.50000
v -6.00000 -6.00000 0.00000
v -6.00000 6.00000 0.00000
v 6.00000 -6.00000 0.00000
v 6.00000 6.00000 0.00000
v -6.00000 -6.00000 6.50000
v -6.00000 6.00000 6.50000
v 6.00000 -6.00000 6.50000
v 6.00000 6.00000 6.50000
v 3.00000 0.00000 6.45000
v 3.00000 0.00000 20.00000
v 2.99161 0.22419 20.00000
v 2.96649 0.44713 20.00000
v 2.92478 0.66756 20.00000
v 2.86672 0.88427 20.00000
v 2.79262 1.09602 20.00000
v 2.70291 1.30165 20.00000
v 2.59808 1.50000 20.00000
v 2.47872 1.68996 20.00000
v 2.34549 1.87047 20.00000
v 2.19916 2.04052 20.00000
v 2.04052 2.19916 20.00000
v 1.87047 2.34549 20.00000
v 1.68996 2.47872 20.00000
v 1.50000 2.59808 20.00000
v 1.30165 2.70291 20.00000
v 1.09602 2.79262 20.00000
v 0.88427 2.86672 20.00000
v 0.66756 2.92478 20.00000
v 0.44713 2.96649 20.00000
v 0.22419 2.99161 20.00000
v -0.00000 3.00000 20.00000
v -0.22419 2.99161 20.00000
v -0.44713 2.96649 20.00000
v -0.66756 2.92478 20.00000
v -0.88427 2.86672 20.00000
v -1.09602 2.79262 20.00000
v -1.30165 2.70291 20.00000
v -1.50000 2.59808 20.00000
v -1.68996 2.47872 20.00000
v -1.87047 2.34549 20.00000
v -2.04052 2.19916 20.00000
v -2.19916 2.04052 20.00000
v -2.34549 1.87047 20.00000
v -2.47872 1.68996 20.00000
v -2.59808 1.50000 20.00000
v -2.70291 1.30165 20.00000
v -2.79262 1.09602 20.00000
v -2.86672 0.88427 20.00000
v -2.92478 0.66756 20.00000
v -2.96649 0.44713 20.00000
v -2.99161 0.22419 20.00000
v -3.00000 0.00000 20.00000
v -2.99161 -0.22419 20.00000
v -2.96649 -0.44713 20.00000
v -2.92478 -0.66756 20.00000
v -2.86672 -0.88427 20.00000
v -2.79262 -1.09602 20.00000
v -2.70291 -1.30165 20.00000
v -2.59808 -1.50000 20.00000
v -2.47872 -1.68996 20.00000
v -2.34549 -1.87047 20.00000
v -2.19916 -2.04052 20.00000
v -2.04052 -2.19916 20.00000
v -1.87047 -2.34549 20.00000
v -1.68996 -2.47872 20.00000
v -1.50000 -2.59808 20.00000
v -1.30165 -2.70291 20.00000
v -1.09602 -2.79262 20.00000
v -0.88427 -2.86672 20.00000
v -0.66756 -2.92478 20.00000
v -0.44713 -2.96649 20.00000
v -0.22419 -2.99161 20.00000
v -0.00000 -3.00000 20.00000
v 0.22419 -2.99161 20.00000
v 0.44713 -2.96649 20.00000
v 0.66756 -2.92478 20.00000
v 0.88427 -2.86672 20.00000
v 1.09602 -2.79262 20.00000
v 1.30165 -2.70291 20.00000
v 1.50000 -2.59808 20.00000
v 1.68996 -2.47872 20.00000
v 1.87047 -2.34549 20.00000
v 2.04052 -2.19916 20.00000
v 2.19916 -2.04052 20.00000
v 2.34549 -1.87047 20.00000
v 2.47872 -1.68996 20.00000
v 2.59808 -1.50000 20.00000
v 2.70291 -1.30165 20.00000
v 2.79262 -1.09602 20.00000
v 2.86672 -0.88427 20.00000
v 2.92478 -0.66756 20.00000
v 2.96649 -0.44713 20.00000
v 2.99161 -0.22419 20.00000
v 3.00000 0.00000 20.00000
v 3.00000 0.00000 6.45000
v 2.99161 0.22419 6.45000
v 2.96649 0.44713 6.45000
v 2.92478 0.66756 6.45000
v 2.86672 0.88427 6.45000
v 2.79262 1.09602 6.45000
v 2.70291 1.30165 6.45000
v 2.59808 1.50000 6.45000
v 2.47872 1.68996 6.45000
v 2.34549 1.87047 6.45000
v 2.19916 2.04052 6.45000
v 2.04052 2.19916 6.45000
v 1.87047 2.34549 6.45000
v 1.68996 2.47872 6.45000
v 1.50000 2.59808 6.45000
v 1.30165 2.70291 6.45000
v 1.09602 2.79262 6.45000
v 0.88427 2.86672 6.45000
v 0.66756 2.92478 6.45000
v 0.44713 2.96649 6.45000
v 0.22419 2.99161 6.45000
v -0.00000 3.00000 6.45000
v -0.22419 2.99161 6.45000
v -0.44713 2.96649 6.45000
v -0.66756 2.92478 6.45000
v -0.88427 2.86672 6.45000
v -1.09602 2.79262 6.45000
v -1.30165 2.70291 6.45000
v -1.50000 2.59808 6.45000
v -1.68996 2.47872 6.45000
v -1.87047 2.34549 6.45000
v -2.04052 2.19916 6.45000
v -2.19916 2.04052 6.45000
v -2.34549 1.87047 6.45000
v -2.47872 1.68996 6.45000
v -2.59808 1.50000 6.45000
v -2.70291 1.30165 6.45000
v -2.79262 1.09602 6.45000
v -2.86672 0.88427 6.45000
v -2.92478 0.66756 6.45000
v -2.96649 0.44713 6.45000
v -2.99161 0.22419 6.45000
v -3.00000 0.00000 6.45000
v -2.99161 -0.22419 6.45000
v -2.96649 -0.44713 6.45000
v -2.92478 -0.66756 6.45000
v -2.86672 -0.88427 6.45000
v -2.79262 -1.09602 6.45000
v -2.70291 -1.30165 6.45000
v -2.59808 -1.50000 6.45000
v -2.47872 -1.68996 6.45000
v -2.34549 -1.87047 6.45000
v -2.19916 -2.04052 6.45000
v -2.04052 -2.19916 6.45000
v -1.87047 -2.34549 6.45000
v -1.68996 -2.47872 6.45000
v -1.50000 -2.59808 6.45000
v -1.30165 -2.70291 6.45000
v -1.09602 -2.79262 6.45000
v -0.88427 -2.86672 6.45000
v -0.66756 -2.92478 6.45000
v -0.44713 -2.96649 6.45000
v -0.22419 -2.99161 6.45000
v -0.00000 -3.00000 6.45000
v 0.22419 -2.99161 6.45000
v 0.44713 -2.96649 6.45000
v 0.66756 -2.92478 6.45000
v 0.88427 -2.86672 6.45000
v 1.09602 -2.79262 6.45000
v 1.30165 -2.70291 6.45000
v 1.50000 -2.59808 6.45000
v 1.68996 -2.47872 6.45000
v 1.87047 -2.34549 6.45000
v 2.04052 -2.19916 6.45000
v 2.19916 -2.04052 6.45000
v 2.34549 -1.87047 6.45000
v 2.47872 -1.68996 6.45000
v 2.59808 -1.50000 6.45000
v 2.70291 -1.30165 6.45000
v 2.79262 -1.09602 6.45000
v 2.86672 -0.88427 6.45000
v 2.92478 -0.66756 6.45000
v 2.96649 -0.44713 6.45000
v 2.99161 -0.22419 6.45000
v 3.00000 0.00000 6.45000
v 2.99161 0.22419 6.45000
v 2.96649 0.44713 6.45000
v 2.92478 0.66756 6.45000
v 2.86672 0.88427 6.45000
v 2.79262 1.09602 6.45000
v 2.70291 1.30165 6.45000
v 2.59808 1.50000 6.45000
v 2.47872 1.68996 6.45000
v 2.34549 1.87047 6.45000
v 2.19916 2.04052 6.45000
v 2.04052 2.19916 6.45000
v 1.87047 2.34549 6.45000
v 1.68996 2.47872 6.45000
v 1.50000 2.59808 6.45000
v 1.30165 2.70291 6.45000
v 1.09602 2.79262 6.45000
v 0.88427 2.86672 6.45000
v 0.66756 2.92478 6.45000
v 0.44713 2.96649 6.45000
v 0.22419 2.99161 6.45000
v -0.00000 3.00000 6.45000
v -0.22419 2.99161 6.45000
v -0.44713 2.96649 6.45000
v -0.66756 2.92478 6.45000
v -0.88427 2.86672 6.45000
v -1.09602 2.79262 6.45000
v -1.30165 2.70291 6.45000
v -1.50000 2.59808 6.45000
v -1.68996 2.47872 6.45000
v -1.87047 2.34549 6.45000
v -2.04052 2.19916 6.45000
v -2.19916 2.04052 6.45000
v -2.34549 1.87047 6.45000
v -2.47872 1.68996 6.45000
v -2.59808 1.50000 6.45000
v -2.70291 1.30165 6.45000
v -2.79262 1.09602 6.45000
v -2.86672 0.88427 6.45000
v -2.92478 0.66756 6.45000
v -2.96649 0.44713 6.45000
v -2.99161 0.22419 6.45000
v -3.00000 0.00000 6.45000
v -2.99161 -0.22419 6.45000
v -2.96649 -0.44713 6.45000
v -2.92478 -0.66756 6.45000
v -2.86672 -0.88427 6.45000
v -2.79262 -1.09602 6.45000
v -2.70291 -1.30165 6.45000
v -2.59808 -1.50000 6.45000
v -2.47872 -1.68996 6.45000
v -2.34549 -1.87047 6.45000
v -2.19916 -2.04052 6.45000
v -2.04052 -2.19916 6.45000
v -1.87047 -2.34549 6.45000
v -1.68996 -2.47872 6.45000
v -1.50000 -2.59808 6.45000
v -1.30165 -2.70291 6.45000
v -1.09602 -2.79262 6.45000
v -0.88427 -2.86672 6.45000
v -0.66756 -2.92478 6.45000
v -0.44713 -2.96649 6.45000
v -0.22419 -2.99161 6.45000
v -0.00000 -3.00000 6.45000
v 0.22419 -2.99161 6.45000
v 0.44713 -2.96649 6.45000
v 0.66756 -2.92478 6.45000
v 0.88427 -2.86672 6.45000
v 1.09602 -2.79262 6.45000
v 1.30165 -2.70291 6.45000
v 1.50000 -2.59808 6.45000
v 1.68996 -2.47872 6.45000
v 1.87047 -2.34549 6.45000
v 2.04052 -2.19916 6.45000
v 2.19916 -2.04052 6.45000
v 2.34549 -1.87047 6.45000
v 2.47872 -1.68996 6.45000
v 2.59808 -1.50000 6.45000
v 2.70291 -1.30165 6.45000
v 2.79262 -1.09602 6.45000
v 2.86672 -0.88427 6.45000
v 2.92478 -0.66756 6.45000
v 2.96649 -0.44713 6.45000
v 2.99161 -0.22419 6.45000
v 3.00000 0.00000 20.00000
v 2.99161 0.22419 20.00000
v 2.96649 0.44713 20.00000
v 2.92478 0.66756 20.00000
v 2.86672 0.88427 20.00000
v 2.79262 1.09602 20.00000
v 2.70291 1.30165 20.00000
v 2.59808 1.50000 20.00000
v 2.47872 1.68996 20.00000
v 2.34549 1.87047 20.00000
v 2.19916 2.04052 20.00000
v 2.04052 2.19916 20.00000
v 1.87047 2.34549 20.00000
v 1.68996 2.47872 20.00000
v 1.50000 2.59808 20.00000
v 1.30165 2.70291 20.00000
v 1.09602 2.79262 20.00000
v 0.88427 2.86672 20.00000
v 0.66756 2.92478 20.00000
v 0.44713 2.96649 20.00000
v 0.22419 2.99161 20.00000
v -0.00000 3.00000 20.00000
v -0.22419 2.99161 20.00000
v -0.44713 2.96649 20.00000
v -0.66756 2.92478 20.00000
v -0.88427 2.86672 20.00000
v -1.09602 2.79262 20.00000
v -1.30165 2.70291 20.00000
v -1.50000 2.59808 20.00000
v -1.68996 2.47872 20.00000
v -1.87047 2.34549 20.00000
v -2.04052 2.19916 20.00000
v -2.19916 2.04052 20.00000
v -2.34549 1.87047 20.00000
v -2.47872 1.68996 20.00000
v -2.59808 1.50000 20.00000
v -2.70291 1.30165 20.00000
v -2.79262 1.09602 20.00000
v -2.86672 0.88427 20.00000
v -2.92478 0.66756 20.00000
v -2.96649 0.44713 20.00000
v -2.99161 0.22419 20.00000
v -3.00000 0.00000 20.00000
v -2.99161 -0.22419 20.00000
v -2.96649 -0.44713 20.00000
v -2.92478 -0.66756 20.00000
v -2.86672 -0.88427 20.00000
v -2.79262 -1.09602 20.00000
v -2.70291 -1.30165 20.00000
v -2.59808 -1.50000 20.00000
v -2.47872 -1.68996 20.00000
v -2.34549 -1.87047 20.00000
v -2.19916 -2.04052 20.00000
v -2.04052 -2.19916 20.00000
v -1.87047 -2.34549 20.00000
v -1.68996 -2.47872 20.00000
v -1.50000 -2.59808 20.00000
v -1.30165 -2.70291 20.00000
v -1.09602 -2.79262 20.00000
v -0.88427 -2.86672 20.00000
v -0.66756 -2.92478 20.00000
v -0.44713 -2.96649 20.00000
v -0.22419 -2.99161 20.00000
v -0.00000 -3.00000 20.00000
v 0.22419 -2.99161 20.00000
v 0.44713 -2.96649 20.00000
v 0.66756 -2.92478 20.00000
v 0.88427 -2.86672 20.00000
v 1.09602 -2.79262 20.00000
v 1.30165 -2.70291 20.00000
v 1.50000 -2.59808 20.00000
v 1.68996 -2.47872 20.00000
v 1.87047 -2.34549 20.00000
v 2.04052 -2.19916 20.00000
v 2.19916 -2.04052 20.00000
v 2.34549 -1.87047 20.00000
v 2.47872 -1.68996 20.00000
v 2.59808 -1.50000 20.00000
v 2.70291 -1.30165 20.00000
v 2.79262 -1.09602 20.00000
v 2.86672 -0.88427 20.00000
v 2.92478 -0.66756 20.00000
v 2.96649 -0.44713 20.00000
v 2.99161 -0.22419 20.00000
v 6.00000 0.00000 11.00000
v 6.00000 0.00000 24.00000
v 5.98322 0.44838 24.00000
v 5.93298 0.89425 24.00000
v 5.84957 1.33513 24.00000
v 5.73344 1.76853 24.00000
v 5.58524 2.19205 24.00000
v 5.40581 2.60330 24.00000
v 5.19615 3.00000 24.00000
v 4.95743 3.37992 24.00000
v 4.69099 3.74094 24.00000
v 4.39831 4.08104 24.00000
v 4.08104 4.39831 24.00000
v 3.74094 4.69099 24.00000
v 3.37992 4.95743 24.00000
v 3.00000 5.19615 24.00000
v 2.60330 5.40581 24.00000
v 2.19205 5.58524 24.00000
v 1.76853 5.73344 24.00000
v 1.33513 5.84957 24.00000
v 0.89425 5.93298 24.00000
v 0.44838 5.98322 24.00000
v -0.00000 6.00000 24.00000
v -0.44838 5.98322 24.00000
v -0.89425 5.93298 24.00000
v -1.33513 5.84957 24.00000
v -1.76853 5.73344 24.00000
v -2.19205 5.58524 24.00000
v -2.60330 5.40581 24.00000
v -3.00000 5.19615 24.00000
v -3.37992 4.95743 24.00000
v -3.74094 4.69099 24.00000
v -4.08104 4.39831 24.00000
v -4.39831 4.08104 24.00000
v -4.69099 3.74094 24.00000
v -4.95743 3.37992 24.00000
v -5.19615 3.00000 24.00000
v -5.40581 2.60330 24.00000
v -5.58524 2.19205 24.00000
v -5.73344 1.76853 24.00000
v -5.84957 1.33513 24.00000
v -5.93298 0.89425 24.00000
v -5.98322 0.44838 24.00000
v -6.00000 0.00000 24.00000
v -5.98322 -0.44838 24.00000
v -5.93298 -0.89425 24.00000
v -5.84957 -1.33513 24.00000
v -5.73344 -1.76853 24.00000
v -5.58524 -2.19205 24.00000
v -5.40581 -2.60330 24.00000
v -5.19615 -3.00000 24.00000
v -4.95743 -3.37992 24.00000
v -4.69099 -3.74094 24.00000
v -4.39831 -4.08104 24.00000
v -4.08104 -4.39831 24.00000
v -3.74094 -4.69099 24.00000
v -3.37992 -4.95743 24.00000
v -3.00000 -5.19615 24.00000
v -2.60330 -5.40581 24.00000
v -2.19205 -5.58524 24.00000
v -1.76853 -5.73344 24.00000
v -1.33513 -5.84957 24.00000
v -0.89425 -5.93298 24.00000
v -0.44838 -5.98322 24.00000
v -0.00000 -6.00000 24.00000
v 0.44838 -5.98322 24.00000
v 0.89425 -5.93298 24.00000
v 1.33513 -5.84957 24.00000
v 1.76853 -5.73344 24.00000
v 2.19205 -5.58524 24.00000
v 2.60330 -5.40581 24.00000
v 3.00000 -5.19615 24.00000
v 3.37992 -4.95743 24.00000
v 3.74094 -4.69099 24.00000
v 4.08104 -4.39831 24.00000
v 4.39831 -4.08104 24.00000
v 4.69099 -3.74094 24.00000
v 4.95743 -3.37992 24.00000
v 5.19615 -3.00000 24.00000
v 5.40581 -2.60330 24.00000
v 5.58524 -2.19205 24.00000
v 5.73344 -1.76853 24.00000
v 5.84957 -1.33513 24.00000
v 5.93298 -0.89425 24.00000
v 5.98322 -0.44838 24.00000
v 6.00000 0.00000 24.00000
v 6.00000 0.00000 11.00000
v 5.98322 0.44838 11.00000
v 5.93298 0.89425 11.00000
v 5.84957 1.33513 11.00000
v 5.73344 1.76853 11.00000
v 5.58524 2.19205 11.00000
v 5.40581 2.60330 11.00000
v 5.19615 3.00000 11.00000
v 4.95743 3.37992 11.00000
v 4.69099 3.74094 11.00000
v 4.39831 4.08104 11.00000
v 4.08104 4.39831 11.00000
v 3.74094 4.69099 11.00000
v 3.37992 4.95743 11.00000
v 3.00000 5.19615 11.00000
v 2.60330 5.40581 11.00000
v 2.19205 5.58524 11.00000
v 1.76853 5.73344 11.00000
v 1.33513 5.84957 11.00000
v 0.89425 5.93298 11.00000
v 0.44838 5.98322 11.00000
v -0.00000 6.00000 11.00000
v -0.44838 5.98322 11.00000
v -0.89425 5.93298 11.00000
v -1.33513 5.84957 11.00000
v -1.76853 5.73344 11.00000
v -2.19205 5.58524 11.00000
v -2.60330 5.40581 11.00000
v -3.00000 5.19615 11.00000
v -3.37992 4.95743 11.00000
v -3.74094 4.69099 11.00000
v -4.08104 4.39831 11.00000
v -4.39831 4.08104 11.00000
v -4.69099 3.74094 11.00000
v -4.95743 3.37992 11.00000
v -5.19615 3.00000 11.00000
v -5.40581 2.60330 11.00000
v -5.58524 2.19205 11.00000
v -5.73344 1.76853 11.00000
v -5.84957 1.33513 11.00000
v -5.93298 0.89425 11.00000
v -5.98322 0.44838 11.00000
v -6.00000 0.00000 11.00000
v -5.98322 -0.44838 11.00000
v -5.93298 -0.89425 11.00000
v -5.84957 -1.33513 11.00000
v -5.73344 -1.76853 11.00000
v -5.58524 -2.19205 11.00000
v -5.40581 -2.60330 11.00000
v -5.19615 -3.00000 11.00000
v -4.95743 -3.37992 11.00000
v -4.69099 -3.74094 11.00000
v -4.39831 -4.08104 11.00000
v -4.08104 -4.39831 11.00000
v -3.74094 -4.69099 11.00000
v -3.37992 -4.95743 11.00000
v -3.00000 -5.19615 11.00000
v -2.60330 -5.40581 11.00000
v -2.19205 -5.58524 11.00000
v -1.76853 -5.73344 11.00000
v -1.33513 -5.84957 11.00000
v -0.89425 -5.93298 11.00000
v -0.44838 -5.98322 11.00000
v -0.00000 -6.00000 11.00000
v 0.44838 -5.98322 11.00000
v 0.89425 -5.93298 11.00000
v 1.33513 -5.84957 11.00000
v 1.76853 -5.73344 11.00000
v 2.19205 -5.58524 11.00000
v 2.60330 -5.40581 11.00000
v 3.00000 -5.19615 11.00000
v 3.37992 -4.95743 11.00000
v 3.74094 -4.69099 11.00000
v 4.08104 -4.39831 11.00000
v 4.39831 -4.08104 11.00000
v 4.69099 -3.74094 11.00000
v 4.95743 -3.37992 11.00000
v 5.19615 -3.00000 11.00000
v 5.40581 -2.60330 11.00000
v 5.58524 -2.19205 11.00000
v 5.73344 -1.76853 11.00000
v 5.84957 -1.33513 11.00000
v 5.93298 -0.89425 11.00000
v 5.98322 -0.44838 11.00000
v 6.00000 0.00000 11.00000
v 5.98322 0.44838 11.00000
v 5.93298 0.89425 11.00000
v 5.84957 1.33513 11.00000
v 5.73344 1.76853 11.00000
v 5.58524 2.19205 11.00000
v 5.40581 2.60330 11.00000
v 5.19615 3.00000 11.00000
v 4.95743 3.37992 11.00000
v 4.69099 3.74094 11.00000
v 4.39831 4.08104 11.00000
v 4.08104 4.39831 11.00000
v 3.74094 4.69099 11.00000
v 3.37992 4.95743 11.00000
v 3.00000 5.19615 11.00000
v 2.60330 5.40581 11.00000
v 2.19205 5.58524 11.00000
v 1.76853 5.73344 11.00000
v 1.33513 5.84957 11.00000
v 0.89425 5.93298 11.00000
v 0.44838 5.98322 11.00000
v -0.00000 6.00000 11.00000
v -0.44838 5.98322 11.00000
v -0.89425 5.93298 11.00000
v -1.33513 5.84957 11.00000
v -1.76853 5.73344 11.00000
v -2.19205 5.58524 11.00000
v -2.60330 5.40581 11.00000
v -3.00000 5.19615 11.00000
v -3.37992 4.95743 11.00000
v -3.74094 4.69099 11.00000
v -4.08104 4.39831 11.00000
v -4.39831 4.08104 11.00000
v -4.69099 3.74094 11.00000
v -4.95743 3.37992 11.00000
v -5.19615 3.00000 11.00000
v -5.40581 2.60330 11.00000
v -5.58524 2.19205 11.00000
v -5.73344 1.76853 11.00000
v -5.84957 1.33513 11.00000
v -5.93298 0.89425 11.00000
v -5.98322 0.44838 11.00000
v -6.00000 0.00000 11.00000
v -5.98322 -0.44838 11.00000
v -5.93298 -0.89425 11.00000
v -5.84957 -1.33513 11.00000
v -5.73344 -1.76853 11.00000
v -5.58524 -2.19205 11.00000
v -5.40581 -2.60330 11.00000
v -5.19615 -3.00000 11.00000
v -4.95743 -3.37992 11.00000
v -4.69099 -3.74094 11.00000
v -4.39831 -4.08104 11.00000
v -4.08104 -4.39831 11.00000
v -3.74094 -4.69099 11.00000
v -3.37992 -4.95743 11.00000
v -3.00000 -5.19615 11.00000
v -2.60330 -5.40581 11.00000
v -2.19205 -5.58524 11.00000
v -1.76853 -5.73344 11.00000
v -1.33513 -5.84957 11.00000
v -0.89425 -5.93298 11.00000
v -0.44838 -5.98322 11.00000
v -0.00000 -6.00000 11.00000
v 0.44838 -5.98322 11.00000
v 0.89425 -5.93298 11.00000
v 1.33513 -5.84957 11.00000
v 1.76853 -5.73344 11.00000
v 2.19205 -5.58524 11.00000
v 2.60330 -5.40581 11.00000
v 3.00000 -5.19615 11.00000
v 3.37992 -4.95743 11.00000
v 3.74094 -4.69099 11.00000
v 4.08104 -4.39831 11.00000
v 4.39831 -4.08104 11.00000
v 4.69099 -3.74094 11.00000
v 4.95743 -3.37992 11.00000
v 5.19615 -3.00000 11.00000
v 5.40581 -2.60330 11.00000
v 5.58524 -2.19205 11.00000
v 5.73344 -1.76853 11.00000
v 5.84957 -1.33513 11.00000
v 5.93298 -0.89425 11.00000
v 5.98322 -0.44838 11.00000
v 6.00000 0.00000 24.00000
v 5.98322 0.44838 24.00000
v 5.93298 0.89425 24.00000
v 5.84957 1.33513 24.00000
v 5.73344 1.76853 24.00000
v 5.58524 2.19205 24.00000
v 5.40581 2.60330 24.00000
v 5.19615 3.00000 24.00000
v 4.95743 3.37992 24.00000
v 4.69099 3.74094 24.00000
v 4.39831 4.08104 24.00000
v 4.08104 4.39831 24.00000
v 3.74094 4.69099 24.00000
v 3.37992 4.95743 24.00000
v 3.00000 5.19615 24.00000
v 2.60330 5.40581 24.00000
v 2.19205 5.58524 24.00000
v 1.76853 5.73344 24.00000
v 1.33513 5.84957 24.00000
v 0.89425 5.93298 24.00000
v 0.44838 5.98322 24.00000
v -0.00000 6.00000 24.00000
v -0.44838 5.98322 24.00000
v -0.89425 5.93298 24.00000
v -1.33513 5.84957 24.00000
v -1.76853 5.73344 24.00000
v -2.19205 5.58524 24.00000
v -2.60330 5.40581 24.00000
v -3.00000 5.19615 24.00000
v -3.37992 4.95743 24.00000
v -3.74094 4.69099 24.00000
v -4.08104 4.39831 24.00000
v -4.39831 4.08104 24.00000
v -4.69099 3.74094 24.00000
v -4.95743 3.37992 24.00000
v -5.19615 3.00000 24.00000
v -5.40581 2.60330 24.00000
v -5.58524 2.19205 24.00000
v -5.73344 1.76853 24.00000
v -5.84957 1.33513 24.00000
v -5.93298 0.89425 24.00000
v -5.98322 0.44838 24.00000
v -6.00000 0.00000 24.00000
v -5.98322 -0.44838 24.00000
v -5.93298 -0.89425 24.00000
v -5.84957 -1.33513 24.00000
v -5.73344 -1.76853 24.00000
v -5.58524 -2.19205 24.00000
v -5.40581 -2.60330 24.00000
v -5.19615 -3.00000 24.00000
v -4.95743 -3.37992 24.00000
v -4.69099 -3.74094 24.00000
v -4.39831 -4.08104 24.00000
v -4.08104 -4.39831 24.00000
v -3.74094 -4.69099 24.00000
v -3.37992 -4.95743 24.00000
v -3.00000 -5.19615 24.00000
v -2.60330 -5.40581 24.00000
v -2.19205 -5.58524 24.00000
v -1.76853 -5.73344 24.00000
v -1.33513 -5.84957 24.00000
v -0.89425 -5.93298 24.00000
v -0.44838 -5.98322 24.00000
v -0.00000 -6.00000 24.00000
v 0.44838 -5.98322 24.00000
v 0.89425 -5.93298 24.00000
v 1.33513 -5.84957 24.00000
v 1.76853 -5.73344 24.00000
v 2.19205 -5.58524 24.00000
v 2.60330 -5.40581 24.00000
v 3.00000 -5.19615 24.00000
v 3.37992 -4.95743 24.00000
v 3.74094 -4.69099 24.00000
v 4.08104 -4.39831 24.00000
v 4.39831 -4.08104 24.00000
v 4.69099 -3.74094 24.00000
v 4.95743 -3.37992 24.00000
v 5.19615 -3.00000 24.00000
v 5.40581 -2.60330 24.00000
v 5.58524 -2.19205 24.00000
v 5.73344 -1.76853 24.00000
v 5.84957 -1.33513 24.00000
v 5.93298 -0.89425 24.00000
v 5.98322 -0.44838 24.00000
usemtl c0
f 2 3 1
f 2 4 3
f 6 5 7
f 6 7 8
f 10 11 9
f 12 11 10
f 14 13 15
f 16 14 15
f 20 17 18
f 20 19 17
f 24 22 21
f 24 21 23
f 25 27 26
f 112 28 27
f 112 27 25
f 113 28 112
f 114 29 28
f 114 30 29
f 114 28 113
f 115 30 114
f 116 31 30
f 116 32 31
f 116 30 115
f 117 32 116
f 118 33 32
f 118 34 33
f 118 32 117
f 119 34 118
f 120 35 34
f 120 34 119
f 121 36 35
f 121 35 120
f 121 37 36
f 122 38 37
f 122 37 121
f 123 38 122
f 124 39 38
f 124 40 39
f 124 38 123
f 125 40 124
f 126 41 40
f 126 42 41
f 126 40 125
f 127 42 126
f 128 43 42
f 128 42 127
f 129 44 43
f 129 45 44
f 129 43 128
f 130 45 129
f 131 46 45
f 131 47 46
f 131 45 130
f 132 47 131
f 133 48 47
f 133 47 132
f 134 49 48
f 134 50 49
f 134 48 133
f 135 50 134
f 136 51 50
f 136 50 135
f 137 52 51
f 137 53 52
f 137 51 136
f 138 53 137
f 139 54 53
f 139 53 138
f 140 55 54
f 140 56 55
f 140 54 139
f 141 57 56
f 141 56 140
f 142 57 141
f 143 57 142
f 143 58 57
f 144 58 143
f 144 59 58
f 145 59 144
f 145 60 59
f 146 60 145
f 146 61 60
f 147 61 146
f 147 62 61
f 148 62 147
f 148 63 62
f 149 63 148
f 149 64 63
f 149 65 64
f 150 65 149
f 151 65 150
f 151 66 65
f 152 66 151
f 152 67 66
f 152 68 67
f 153 68 152
f 154 69 68
f 154 70 69
f 154 68 153
f 155 71 70
f 155 70 154
f 156 71 155
f 157 72 71
f 157 73 72
f 157 71 156
f 158 73 157
f 159 74 73
f 159 73 158
f 160 75 74
f 160 76 75
f 160 74 159
f 161 76 160
f 162 77 76
f 162 78 77
f 162 76 161
f 163 78 162
f 164 79 78
f 164 80 79
f 164 78 163
f 165 80 164
f 166 81 80
f 166 80 165
f 167 82 81
f 167 81 166
f 168 83 82
f 168 82 167
f 169 83 168
f 169 84 83
f 170 84 169
f 170 85 84
f 171 85 170
f 171 86 85
f 172 86 171
f 172 87 86
f 173 87 172
f 173 88 87
f 174 88 173
f 174 89 88
f 175 89 174
f 175 90 89
f 176 90 175
f 176 91 90
f 177 91 176
f 177 92 91
f 178 92 177
f 178 93 92
f 179 93 178
f 179 94 93
f 180 94 179
f 180 95 94
f 181 95 180
f 181 96 95
f 182 96 181
f 182 97 96
f 183 97 182
f 183 98 97
f 184 98 183
f 184 99 98
f 185 99 184
f 185 100 99
f 186 100 185
f 186 101 100
f 187 101 186
f 187 102 101
f 187 103 102
f 188 103 187
f 189 104 103
f 189 103 188
f 189 105 104
f 190 105 189
f 191 106 105
f 191 107 106
f 191 105 190
f 192 107 191
f 193 108 107
f 193 109 108
f 193 107 192
f 194 109 193
f 111 109 194
f 111 110 109
f 251 248 247
f 251 249 248
f 251 250 249
f 244 246 245
f 255 252 251
f 255 253 252
f 255 254 253
f 238 240 239
f 238 241 240
f 238 242 241
f 238 243 242
f 238 244 243
f 259 257 256
f 259 258 257
f 236 238 237
f 234 236 235
f 233 236 234
f 262 259 256
f 262 260 259
f 262 261 260
f 232 236 233
f 264 263 262
f 229 231 230
f 267 265 264
f 267 266 265
f 268 267 264
f 268 264 262
f 226 228 227
f 226 229 228
f 226 232 231
f 226 231 229
f 270 269 268
f 224 226 225
f 271 270 268
f 223 244 238
f 223 238 236
f 223 236 232
f 223 247 246
f 223 232 226
f 223 226 224
f 223 246 244
f 272 268 262
f 272 271 268
f 221 223 222
f 275 274 273
f 276 273 272
f 276 275 273
f 218 255 251
f 218 220 219
f 218 221 220
f 218 256 255
f 218 247 223
f 218 223 221
f 218 251 247
f 277 276 272
f 278 277 272
f 216 218 217
f 214 216 215
f 197 196 195
f 197 195 278
f 199 198 197
f 211 218 216
f 211 213 212
f 211 216 214
f 211 214 213
f 200 199 197
f 201 197 278
f 201 200 197
f 209 211 210
f 208 211 209
f 204 202 201
f 204 203 202
f 204 278 272
f 204 201 278
f 207 211 208
f 206 262 256
f 206 205 204
f 206 218 211
f 206 204 272
f 206 211 207
f 206 272 262
f 206 256 218
f 335 331 332
f 335 332 333
f 335 333 334
f 328 329 330
f 339 335 336
f 339 336 337
f 339 337 338
f 322 323 324
f 322 324 325
f 322 325 326
f 322 326 327
f 322 327 328
f 343 340 341
f 343 341 342
f 320 321 322
f 318 319 320
f 317 318 320
f 346 340 343
f 346 343 344
f 346 344 345
f 316 317 320
f 348 346 347
f 313 314 315
f 351 348 349
f 351 349 350
f 352 348 351
f 352 346 348
f 310 311 312
f 310 312 313
f 310 315 316
f 310 313 315
f 354 352 353
f 308 309 310
f 355 352 354
f 307 322 328
f 307 320 322
f 307 316 320
f 307 330 331
f 307 310 316
f 307 308 310
f 307 328 330
f 356 346 352
f 356 352 355
f 305 306 307
f 359 357 358
f 360 356 357
f 360 357 359
f 302 335 339
f 302 303 304
f 302 304 305
f 302 339 340
f 302 307 331
f 302 305 307
f 302 331 335
f 361 356 360
f 362 356 361
f 300 301 302
f 298 299 300
f 281 279 280
f 281 362 279
f 283 281 282
f 295 300 302
f 295 296 297
f 295 298 300
f 295 297 298
f 284 281 283
f 285 362 281
f 285 281 284
f 293 294 295
f 292 293 295
f 288 285 286
f 288 286 287
f 288 356 362
f 288 362 285
f 291 292 295
f 290 340 346
f 290 288 289
f 290 295 302
f 290 356 288
f 290 291 295
f 290 346 356
f 290 302 340
usemtl c1
f 450 364 363
f 450 365 364
f 451 366 365
f 451 367 366
f 451 365 450
f 452 367 451
f 453 368 367
f 453 367 452
f 454 369 368
f 454 370 369
f 454 368 453
f 455 370 454
f 456 371 370
f 456 370 455
f 457 371 456
f 457 372 371
f 457 373 372
f 458 373 457
f 459 374 373
f 459 373 458
f 460 375 374
f 460 374 459
f 461 376 375
f 461 375 460
f 462 377 376
f 462 376 461
f 463 378 377
f 463 377 462
f 464 379 378
f 464 378 463
f 465 380 379
f 465 379 464
f 466 381 380
f 466 380 465
f 467 382 381
f 467 381 466
f 468 383 382
f 468 382 467
f 469 384 383
f 469 383 468
f 470 385 384
f 470 384 469
f 471 386 385
f 471 385 470
f 472 387 386
f 472 386 471
f 473 388 387
f 473 387 472
f 474 389 388
f 474 388 473
f 475 390 389
f 475 389 474
f 476 391 390
f 476 390 475
f 477 392 391
f 477 391 476
f 478 393 392
f 478 392 477
f 479 394 393
f 479 393 478
f 480 395 394
f 480 394 479
f 481 395 480
f 481 396 395
f 482 396 481
f 482 397 396
f 483 397 482
f 483 398 397
f 484 398 483
f 484 399 398
f 485 399 484
f 485 400 399
f 485 401 400
f 486 401 485
f 487 401 486
f 487 402 401
f 488 402 487
f 488 403 402
f 489 403 488
f 489 404 403
f 490 404 489
f 490 405 404
f 491 405 490
f 491 406 405
f 492 407 406
f 492 406 491
f 493 407 492
f 493 408 407
f 494 409 408
f 494 408 493
f 495 410 409
f 495 409 494
f 496 411 410
f 496 410 495
f 497 412 411
f 497 411 496
f 498 413 412
f 498 412 497
f 499 414 413
f 499 415 414
f 499 413 498
f 500 415 499
f 501 416 415
f 501 415 500
f 502 417 416
f 502 416 501
f 503 418 417
f 503 419 418
f 503 417 502
f 504 419 503
f 505 420 419
f 505 421 420
f 505 419 504
f 506 421 505
f 507 421 506
f 507 422 421
f 508 422 507
f 508 423 422
f 508 424 423
f 509 424 508
f 510 424 509
f 510 425 424
f 510 426 425
f 511 426 510
f 512 426 511
f 512 427 426
f 513 427 512
f 513 428 427
f 513 429 428
f 514 429 513
f 515 429 514
f 515 430 429
f 515 431 430
f 516 431 515
f 517 431 516
f 517 432 431
f 518 432 517
f 518 433 432
f 518 434 433
f 519 434 518
f 520 434 519
f 520 435 434
f 521 435 520
f 521 436 435
f 522 436 521
f 522 437 436
f 523 437 522
f 523 438 437
f 523 439 438
f 524 439 523
f 525 439 524
f 525 440 439
f 526 441 440
f 526 442 441
f 526 440 525
f 527 442 526
f 528 443 442
f 528 444 443
f 528 442 527
f 529 444 528
f 530 445 444
f 530 444 529
f 531 446 445
f 531 447 446
f 531 445 530
f 532 447 531
f 449 447 532
f 449 448 447
f 589 586 585
f 589 587 586
f 589 588 587
f 582 584 583
f 593 590 589
f 593 591 590
f 593 592 591
f 578 580 579
f 578 581 580
f 578 582 581
f 576 582 578
f 576 578 577
f 576 584 582
f 597 595 594
f 597 596 595
f 574 576 575
f 572 574 573
f 571 574 572
f 600 597 594
f 600 598 597
f 600 599 598
f 570 574 571
f 602 601 600
f 567 569 568
f 605 603 602
f 605 604 603
f 606 602 600
f 606 605 602
f 564 566 565
f 564 567 566
f 564 570 569
f 564 574 570
f 564 569 567
f 608 607 606
f 562 564 563
f 609 608 606
f 561 574 564
f 561 584 576
f 561 576 574
f 561 585 584
f 561 564 562
f 610 606 600
f 610 609 606
f 559 561 560
f 613 612 611
f 614 613 611
f 614 611 610
f 556 585 561
f 556 593 589
f 556 558 557
f 556 559 558
f 556 594 593
f 556 561 559
f 556 589 585
f 615 614 610
f 616 615 610
f 554 556 555
f 552 554 553
f 535 534 533
f 535 533 616
f 537 536 535
f 549 594 556
f 549 556 554
f 549 551 550
f 549 554 552
f 549 552 551
f 549 600 594
f 538 537 535
f 539 535 616
f 539 538 535
f 547 549 548
f 546 549 547
f 542 540 539
f 542 541 540
f 542 616 610
f 542 539 616
f 545 549 546
f 544 543 542
f 544 600 549
f 544 542 610
f 544 549 545
f 544 610 600
f 673 669 670
f 673 670 671
f 673 671 672
f 666 667 668
f 677 673 674
f 677 674 675
f 677 675 676
f 662 663 664
f 662 664 665
f 662 665 666
f 660 662 666
f 660 661 662
f 660 666 668
f 681 678 679
f 681 679 680
f 658 659 660
f 656 657 658
f 655 656 658
f 684 678 681
f 684 681 682
f 684 682 683
f 654 655 658
f 686 684 685
f 651 652 653
f 689 686 687
f 689 687 688
f 690 684 686
f 690 686 689
f 648 649 650
f 648 650 651
f 648 653 654
f 648 654 658
f 648 651 653
f 692 690 691
f 646 647 648
f 693 690 692
f 645 648 658
f 645 660 668
f 645 658 660
f 645 668 669
f 645 646 648
f 694 684 690
f 694 690 693
f 643 644 645
f 697 695 696
f 698 695 697
f 698 694 695
f 640 645 669
f 640 673 677
f 640 641 642
f 640 642 643
f 640 677 678
f 640 643 645
f 640 669 673
f 699 694 698
f 700 694 699
f 638 639 640
f 636 637 638
f 619 617 618
f 619 700 617
f 621 619 620
f 633 640 678
f 633 638 640
f 633 634 635
f 633 636 638
f 633 635 636
f 633 678 684
f 622 619 621
f 623 700 619
f 623 619 622
f 631 632 633
f 630 631 633
f 626 623 624
f 626 624 625
f 626 694 700
f 626 700 623
f 629 630 633
f 628 626 627
f 628 633 684
f 628 694 626
f 628 629 633
f 628 684 694