#VRML V2.0 utf8
# Dimensions are millimetres; case exercise envelope, not manufacturing geometry.
Shape { appearance Appearance { material Material { diffuseColor 0.65 0.68 0.72 } } geometry IndexedFaceSet { coord Coordinate { point [ -6.00000 -6.00000 0.00000,-6.00000 -6.00000 6.50000,-6.00000 6.00000 0.00000,-6.00000 6.00000 6.50000,6.00000 -6.00000 0.00000,6.00000 -6.00000 6.50000,6.00000 6.00000 0.00000,6.00000 6.00000 6.50000,-6.00000 -6.00000 0.00000,6.00000 -6.00000 0.00000,-6.00000 -6.00000 6.50000,6.00000 -6.00000 6.50000,-6.00000 6.00000 0.00000,6.00000 6.00000 0.00000,-6.00000 6.00000 6.50000,6.00000 6.00000 6.50000,-6.00000 -6.00000 0.00000,-6.00000 6.00000 0.00000,6.00000 -6.00000 0.00000,6.00000 6.00000 0.00000,-6.00000 -6.00000 6.50000,-6.00000 6.00000 6.50000,6.00000 -6.00000 6.50000,6.00000 6.00000 6.50000,3.00000 0.00000 6.45000,3.00000 0.00000 20.00000,2.99161 0.22419 20.00000,2.96649 0.44713 20.00000,2.92478 0.66756 20.00000,2.86672 0.88427 20.00000,2.79262 1.09602 20.00000,2.70291 1.30165 20.00000,2.59808 1.50000 20.00000,2.47872 1.68996 20.00000,2.34549 1.87047 20.00000,2.19916 2.04052 20.00000,2.04052 2.19916 20.00000,1.87047 2.34549 20.00000,1.68996 2.47872 20.00000,1.50000 2.59808 20.00000,1.30165 2.70291 20.00000,1.09602 2.79262 20.00000,0.88427 2.86672 20.00000,0.66756 2.92478 20.00000,0.44713 2.96649 20.00000,0.22419 2.99161 20.00000,-0.00000 3.00000 20.00000,-0.22419 2.99161 20.00000,-0.44713 2.96649 20.00000,-0.66756 2.92478 20.00000,-0.88427 2.86672 20.00000,-1.09602 2.79262 20.00000,-1.30165 2.70291 20.00000,-1.50000 2.59808 20.00000,-1.68996 2.47872 20.00000,-1.87047 2.34549 20.00000,-2.04052 2.19916 20.00000,-2.19916 2.04052 20.00000,-2.34549 1.87047 20.00000,-2.47872 1.68996 20.00000,-2.59808 1.50000 20.00000,-2.70291 1.30165 20.00000,-2.79262 1.09602 20.00000,-2.86672 0.88427 20.00000,-2.92478 0.66756 20.00000,-2.96649 0.44713 20.00000,-2.99161 0.22419 20.00000,-3.00000 0.00000 20.00000,-2.99161 -0.22419 20.00000,-2.96649 -0.44713 20.00000,-2.92478 -0.66756 20.00000,-2.86672 -0.88427 20.00000,-2.79262 -1.09602 20.00000,-2.70291 -1.30165 20.00000,-2.59808 -1.50000 20.00000,-2.47872 -1.68996 20.00000,-2.34549 -1.87047 20.00000,-2.19916 -2.04052 20.00000,-2.04052 -2.19916 20.00000,-1.87047 -2.34549 20.00000,-1.68996 -2.47872 20.00000,-1.50000 -2.59808 20.00000,-1.30165 -2.70291 20.00000,-1.09602 -2.79262 20.00000,-0.88427 -2.86672 20.00000,-0.66756 -2.92478 20.00000,-0.44713 -2.96649 20.00000,-0.22419 -2.99161 20.00000,-0.00000 -3.00000 20.00000,0.22419 -2.99161 20.00000,0.44713 -2.96649 20.00000,0.66756 -2.92478 20.00000,0.88427 -2.86672 20.00000,1.09602 -2.79262 20.00000,1.30165 -2.70291 20.00000,1.50000 -2.59808 20.00000,1.68996 -2.47872 20.00000,1.87047 -2.34549 20.00000,2.04052 -2.19916 20.00000,2.19916 -2.04052 20.00000,2.34549 -1.87047 20.00000,2.47872 -1.68996 20.00000,2.59808 -1.50000 20.00000,2.70291 -1.30165 20.00000,2.79262 -1.09602 20.00000,2.86672 -0.88427 20.00000,2.92478 -0.66756 20.00000,2.96649 -0.44713 20.00000,2.99161 -0.22419 20.00000,3.00000 0.00000 20.00000,3.00000 0.00000 6.45000,2.99161 0.22419 6.45000,2.96649 0.44713 6.45000,2.92478 0.66756 6.45000,2.86672 0.88427 6.45000,2.79262 1.09602 6.45000,2.70291 1.30165 6.45000,2.59808 1.50000 6.45000,2.47872 1.68996 6.45000,2.34549 1.87047 6.45000,2.19916 2.04052 6.45000,2.04052 2.19916 6.45000,1.87047 2.34549 6.45000,1.68996 2.47872 6.45000,1.50000 2.59808 6.45000,1.30165 2.70291 6.45000,1.09602 2.79262 6.45000,0.88427 2.86672 6.45000,0.66756 2.92478 6.45000,0.44713 2.96649 6.45000,0.22419 2.99161 6.45000,-0.00000 3.00000 6.45000,-0.22419 2.99161 6.45000,-0.44713 2.96649 6.45000,-0.66756 2.92478 6.45000,-0.88427 2.86672 6.45000,-1.09602 2.79262 6.45000,-1.30165 2.70291 6.45000,-1.50000 2.59808 6.45000,-1.68996 2.47872 6.45000,-1.87047 2.34549 6.45000,-2.04052 2.19916 6.45000,-2.19916 2.04052 6.45000,-2.34549 1.87047 6.45000,-2.47872 1.68996 6.45000,-2.59808 1.50000 6.45000,-2.70291 1.30165 6.45000,-2.79262 1.09602 6.45000,-2.86672 0.88427 6.45000,-2.92478 0.66756 6.45000,-2.96649 0.44713 6.45000,-2.99161 0.22419 6.45000,-3.00000 0.00000 6.45000,-2.99161 -0.22419 6.45000,-2.96649 -0.44713 6.45000,-2.92478 -0.66756 6.45000,-2.86672 -0.88427 6.45000,-2.79262 -1.09602 6.45000,-2.70291 -1.30165 6.45000,-2.59808 -1.50000 6.45000,-2.47872 -1.68996 6.45000,-2.34549 -1.87047 6.45000,-2.19916 -2.04052 6.45000,-2.04052 -2.19916 6.45000,-1.87047 -2.34549 6.45000,-1.68996 -2.47872 6.45000,-1.50000 -2.59808 6.45000,-1.30165 -2.70291 6.45000,-1.09602 -2.79262 6.45000,-0.88427 -2.86672 6.45000,-0.66756 -2.92478 6.45000,-0.44713 -2.96649 6.45000,-0.22419 -2.99161 6.45000,-0.00000 -3.00000 6.45000,0.22419 -2.99161 6.45000,0.44713 -2.96649 6.45000,0.66756 -2.92478 6.45000,0.88427 -2.86672 6.45000,1.09602 -2.79262 6.45000,1.30165 -2.70291 6.45000,1.50000 -2.59808 6.45000,1.68996 -2.47872 6.45000,1.87047 -2.34549 6.45000,2.04052 -2.19916 6.45000,2.19916 -2.04052 6.45000,2.34549 -1.87047 6.45000,2.47872 -1.68996 6.45000,2.59808 -1.50000 6.45000,2.70291 -1.30165 6.45000,2.79262 -1.09602 6.45000,2.86672 -0.88427 6.45000,2.92478 -0.66756 6.45000,2.96649 -0.44713 6.45000,2.99161 -0.22419 6.45000,3.00000 0.00000 6.45000,2.99161 0.22419 6.45000,2.96649 0.44713 6.45000,2.92478 0.66756 6.45000,2.86672 0.88427 6.45000,2.79262 1.09602 6.45000,2.70291 1.30165 6.45000,2.59808 1.50000 6.45000,2.47872 1.68996 6.45000,2.34549 1.87047 6.45000,2.19916 2.04052 6.45000,2.04052 2.19916 6.45000,1.87047 2.34549 6.45000,1.68996 2.47872 6.45000,1.50000 2.59808 6.45000,1.30165 2.70291 6.45000,1.09602 2.79262 6.45000,0.88427 2.86672 6.45000,0.66756 2.92478 6.45000,0.44713 2.96649 6.45000,0.22419 2.99161 6.45000,-0.00000 3.00000 6.45000,-0.22419 2.99161 6.45000,-0.44713 2.96649 6.45000,-0.66756 2.92478 6.45000,-0.88427 2.86672 6.45000,-1.09602 2.79262 6.45000,-1.30165 2.70291 6.45000,-1.50000 2.59808 6.45000,-1.68996 2.47872 6.45000,-1.87047 2.34549 6.45000,-2.04052 2.19916 6.45000,-2.19916 2.04052 6.45000,-2.34549 1.87047 6.45000,-2.47872 1.68996 6.45000,-2.59808 1.50000 6.45000,-2.70291 1.30165 6.45000,-2.79262 1.09602 6.45000,-2.86672 0.88427 6.45000,-2.92478 0.66756 6.45000,-2.96649 0.44713 6.45000,-2.99161 0.22419 6.45000,-3.00000 0.00000 6.45000,-2.99161 -0.22419 6.45000,-2.96649 -0.44713 6.45000,-2.92478 -0.66756 6.45000,-2.86672 -0.88427 6.45000,-2.79262 -1.09602 6.45000,-2.70291 -1.30165 6.45000,-2.59808 -1.50000 6.45000,-2.47872 -1.68996 6.45000,-2.34549 -1.87047 6.45000,-2.19916 -2.04052 6.45000,-2.04052 -2.19916 6.45000,-1.87047 -2.34549 6.45000,-1.68996 -2.47872 6.45000,-1.50000 -2.59808 6.45000,-1.30165 -2.70291 6.45000,-1.09602 -2.79262 6.45000,-0.88427 -2.86672 6.45000,-0.66756 -2.92478 6.45000,-0.44713 -2.96649 6.45000,-0.22419 -2.99161 6.45000,-0.00000 -3.00000 6.45000,0.22419 -2.99161 6.45000,0.44713 -2.96649 6.45000,0.66756 -2.92478 6.45000,0.88427 -2.86672 6.45000,1.09602 -2.79262 6.45000,1.30165 -2.70291 6.45000,1.50000 -2.59808 6.45000,1.68996 -2.47872 6.45000,1.87047 -2.34549 6.45000,2.04052 -2.19916 6.45000,2.19916 -2.04052 6.45000,2.34549 -1.87047 6.45000,2.47872 -1.68996 6.45000,2.59808 -1.50000 6.45000,2.70291 -1.30165 6.45000,2.79262 -1.09602 6.45000,2.86672 -0.88427 6.45000,2.92478 -0.66756 6.45000,2.96649 -0.44713 6.45000,2.99161 -0.22419 6.45000,3.00000 0.00000 20.00000,2.99161 0.22419 20.00000,2.96649 0.44713 20.00000,2.92478 0.66756 20.00000,2.86672 0.88427 20.00000,2.79262 1.09602 20.00000,2.70291 1.30165 20.00000,2.59808 1.50000 20.00000,2.47872 1.68996 20.00000,2.34549 1.87047 20.00000,2.19916 2.04052 20.00000,2.04052 2.19916 20.00000,1.87047 2.34549 20.00000,1.68996 2.47872 20.00000,1.50000 2.59808 20.00000,1.30165 2.70291 20.00000,1.09602 2.79262 20.00000,0.88427 2.86672 20.00000,0.66756 2.92478 20.00000,0.44713 2.96649 20.00000,0.22419 2.99161 20.00000,-0.00000 3.00000 20.00000,-0.22419 2.99161 20.00000,-0.44713 2.96649 20.00000,-0.66756 2.92478 20.00000,-0.88427 2.86672 20.00000,-1.09602 2.79262 20.00000,-1.30165 2.70291 20.00000,-1.50000 2.59808 20.00000,-1.68996 2.47872 20.00000,-1.87047 2.34549 20.00000,-2.04052 2.19916 20.00000,-2.19916 2.04052 20.00000,-2.34549 1.87047 20.00000,-2.47872 1.68996 20.00000,-2.59808 1.50000 20.00000,-2.70291 1.30165 20.00000,-2.79262 1.09602 20.00000,-2.86672 0.88427 20.00000,-2.92478 0.66756 20.00000,-2.96649 0.44713 20.00000,-2.99161 0.22419 20.00000,-3.00000 0.00000 20.00000,-2.99161 -0.22419 20.00000,-2.96649 -0.44713 20.00000,-2.92478 -0.66756 20.00000,-2.86672 -0.88427 20.00000,-2.79262 -1.09602 20.00000,-2.70291 -1.30165 20.00000,-2.59808 -1.50000 20.00000,-2.47872 -1.68996 20.00000,-2.34549 -1.87047 20.00000,-2.19916 -2.04052 20.00000,-2.04052 -2.19916 20.00000,-1.87047 -2.34549 20.00000,-1.68996 -2.47872 20.00000,-1.50000 -2.59808 20.00000,-1.30165 -2.70291 20.00000,-1.09602 -2.79262 20.00000,-0.88427 -2.86672 20.00000,-0.66756 -2.92478 20.00000,-0.44713 -2.96649 20.00000,-0.22419 -2.99161 20.00000,-0.00000 -3.00000 20.00000,0.22419 -2.99161 20.00000,0.44713 -2.96649 20.00000,0.66756 -2.92478 20.00000,0.88427 -2.86672 20.00000,1.09602 -2.79262 20.00000,1.30165 -2.70291 20.00000,1.50000 -2.59808 20.00000,1.68996 -2.47872 20.00000,1.87047 -2.34549 20.00000,2.04052 -2.19916 20.00000,2.19916 -2.04052 20.00000,2.34549 -1.87047 20.00000,2.47872 -1.68996 20.00000,2.59808 -1.50000 20.00000,2.70291 -1.30165 20.00000,2.79262 -1.09602 20.00000,2.86672 -0.88427 20.00000,2.92478 -0.66756 20.00000,2.96649 -0.44713 20.00000,2.99161 -0.22419 20.00000 ] } coordIndex [ 1 2 0 -1,1 3 2 -1,5 4 6 -1,5 6 7 -1,9 10 8 -1,11 10 9 -1,13 12 14 -1,15 13 14 -1,19 16 17 -1,19 18 16 -1,23 21 20 -1,23 20 22 -1,24 26 25 -1,111 27 26 -1,111 26 24 -1,112 27 111 -1,113 28 27 -1,113 29 28 -1,113 27 112 -1,114 29 113 -1,115 30 29 -1,115 31 30 -1,115 29 114 -1,116 31 115 -1,117 32 31 -1,117 33 32 -1,117 31 116 -1,118 33 117 -1,119 34 33 -1,119 33 118 -1,120 35 34 -1,120 34 119 -1,120 36 35 -1,121 37 36 -1,121 36 120 -1,122 37 121 -1,123 38 37 -1,123 39 38 -1,123 37 122 -1,124 39 123 -1,125 40 39 -1,125 41 40 -1,125 39 124 -1,126 41 125 -1,127 42 41 -1,127 41 126 -1,128 43 42 -1,128 44 43 -1,128 42 127 -1,129 44 128 -1,130 45 44 -1,130 46 45 -1,130 44 129 -1,131 46 130 -1,132 47 46 -1,132 46 131 -1,133 48 47 -1,133 49 48 -1,133 47 132 -1,134 49 133 -1,135 50 49 -1,135 49 134 -1,136 51 50 -1,136 52 51 -1,136 50 135 -1,137 52 136 -1,138 53 52 -1,138 52 137 -1,139 54 53 -1,139 55 54 -1,139 53 138 -1,140 56 55 -1,140 55 139 -1,141 56 140 -1,142 56 141 -1,142 57 56 -1,143 57 142 -1,143 58 57 -1,144 58 143 -1,144 59 58 -1,145 59 144 -1,145 60 59 -1,146 60 145 -1,146 61 60 -1,147 61 146 -1,147 62 61 -1,148 62 147 -1,148 63 62 -1,148 64 63 -1,149 64 148 -1,150 64 149 -1,150 65 64 -1,151 65 150 -1,151 66 65 -1,151 67 66 -1,152 67 151 -1,153 68 67 -1,153 69 68 -1,153 67 152 -1,154 70 69 -1,154 69 153 -1,155 70 154 -1,156 71 70 -1,156 72 71 -1,156 70 155 -1,157 72 156 -1,158 73 72 -1,158 72 157 -1,159 74 73 -1,159 75 74 -1,159 73 158 -1,160 75 159 -1,161 76 75 -1,161 77 76 -1,161 75 160 -1,162 77 161 -1,163 78 77 -1,163 79 78 -1,163 77 162 -1,164 79 163 -1,165 80 79 -1,165 79 164 -1,166 81 80 -1,166 80 165 -1,167 82 81 -1,167 81 166 -1,168 82 167 -1,168 83 82 -1,169 83 168 -1,169 84 83 -1,170 84 169 -1,170 85 84 -1,171 85 170 -1,171 86 85 -1,172 86 171 -1,172 87 86 -1,173 87 172 -1,173 88 87 -1,174 88 173 -1,174 89 88 -1,175 89 174 -1,175 90 89 -1,176 90 175 -1,176 91 90 -1,177 91 176 -1,177 92 91 -1,178 92 177 -1,178 93 92 -1,179 93 178 -1,179 94 93 -1,180 94 179 -1,180 95 94 -1,181 95 180 -1,181 96 95 -1,182 96 181 -1,182 97 96 -1,183 97 182 -1,183 98 97 -1,184 98 183 -1,184 99 98 -1,185 99 184 -1,185 100 99 -1,186 100 185 -1,186 101 100 -1,186 102 101 -1,187 102 186 -1,188 103 102 -1,188 102 187 -1,188 104 103 -1,189 104 188 -1,190 105 104 -1,190 106 105 -1,190 104 189 -1,191 106 190 -1,192 107 106 -1,192 108 107 -1,192 106 191 -1,193 108 192 -1,110 108 193 -1,110 109 108 -1,250 247 246 -1,250 248 247 -1,250 249 248 -1,243 245 244 -1,254 251 250 -1,254 252 251 -1,254 253 252 -1,237 239 238 -1,237 240 239 -1,237 241 240 -1,237 242 241 -1,237 243 242 -1,258 256 255 -1,258 257 256 -1,235 237 236 -1,233 235 234 -1,232 235 233 -1,261 258 255 -1,261 259 258 -1,261 260 259 -1,231 235 232 -1,263 262 261 -1,228 230 229 -1,266 264 263 -1,266 265 264 -1,267 266 263 -1,267 263 261 -1,225 227 226 -1,225 228 227 -1,225 231 230 -1,225 230 228 -1,269 268 267 -1,223 225 224 -1,270 269 267 -1,222 243 237 -1,222 237 235 -1,222 235 231 -1,222 246 245 -1,222 231 225 -1,222 225 223 -1,222 245 243 -1,271 267 261 -1,271 270 267 -1,220 222 221 -1,274 273 272 -1,275 272 271 -1,275 274 272 -1,217 254 250 -1,217 219 218 -1,217 220 219 -1,217 255 254 -1,217 246 222 -1,217 222 220 -1,217 250 246 -1,276 275 271 -1,277 276 271 -1,215 217 216 -1,213 215 214 -1,196 195 194 -1,196 194 277 -1,198 197 196 -1,210 217 215 -1,210 212 211 -1,210 215 213 -1,210 213 212 -1,199 198 196 -1,200 196 277 -1,200 199 196 -1,208 210 209 -1,207 210 208 -1,203 201 200 -1,203 202 201 -1,203 277 271 -1,203 200 277 -1,206 210 207 -1,205 261 255 -1,205 204 203 -1,205 217 210 -1,205 203 271 -1,205 210 206 -1,205 271 261 -1,205 255 217 -1,334 330 331 -1,334 331 332 -1,334 332 333 -1,327 328 329 -1,338 334 335 -1,338 335 336 -1,338 336 337 -1,321 322 323 -1,321 323 324 -1,321 324 325 -1,321 325 326 -1,321 326 327 -1,342 339 340 -1,342 340 341 -1,319 320 321 -1,317 318 319 -1,316 317 319 -1,345 339 342 -1,345 342 343 -1,345 343 344 -1,315 316 319 -1,347 345 346 -1,312 313 314 -1,350 347 348 -1,350 348 349 -1,351 347 350 -1,351 345 347 -1,309 310 311 -1,309 311 312 -1,309 314 315 -1,309 312 314 -1,353 351 352 -1,307 308 309 -1,354 351 353 -1,306 321 327 -1,306 319 321 -1,306 315 319 -1,306 329 330 -1,306 309 315 -1,306 307 309 -1,306 327 329 -1,355 345 351 -1,355 351 354 -1,304 305 306 -1,358 356 357 -1,359 355 356 -1,359 356 358 -1,301 334 338 -1,301 302 303 -1,301 303 304 -1,301 338 339 -1,301 306 330 -1,301 304 306 -1,301 330 334 -1,360 355 359 -1,361 355 360 -1,299 300 301 -1,297 298 299 -1,280 278 279 -1,280 361 278 -1,282 280 281 -1,294 299 301 -1,294 295 296 -1,294 297 299 -1,294 296 297 -1,283 280 282 -1,284 361 280 -1,284 280 283 -1,292 293 294 -1,291 292 294 -1,287 284 285 -1,287 285 286 -1,287 355 361 -1,287 361 284 -1,290 291 294 -1,289 339 345 -1,289 287 288 -1,289 294 301 -1,289 355 287 -1,289 290 294 -1,289 345 355 -1,289 301 339 -1 ] solid TRUE } }
Shape { appearance Appearance { material Material { diffuseColor 0.08 0.09 0.11 } } geometry IndexedFaceSet { coord Coordinate { point [ 6.00000 0.00000 11.00000,6.00000 0.00000 24.00000,5.98322 0.44838 24.00000,5.93298 0.89425 24.00000,5.84957 1.33513 24.00000,5.73344 1.76853 24.00000,5.58524 2.19205 24.00000,5.40581 2.60330 24.00000,5.19615 3.00000 24.00000,4.95743 3.37992 24.00000,4.69099 3.74094 24.00000,4.39831 4.08104 24.00000,4.08104 4.39831 24.00000,3.74094 4.69099 24.00000,3.37992 4.95743 24.00000,3.00000 5.19615 24.00000,2.60330 5.40581 24.00000,2.19205 5.58524 24.00000,1.76853 5.73344 24.00000,1.33513 5.84957 24.00000,0.89425 5.93298 24.00000,0.44838 5.98322 24.00000,-0.00000 6.00000 24.00000,-0.44838 5.98322 24.00000,-0.89425 5.93298 24.00000,-1.33513 5.84957 24.00000,-1.76853 5.73344 24.00000,-2.19205 5.58524 24.00000,-2.60330 5.40581 24.00000,-3.00000 5.19615 24.00000,-3.37992 4.95743 24.00000,-3.74094 4.69099 24.00000,-4.08104 4.39831 24.00000,-4.39831 4.08104 24.00000,-4.69099 3.74094 24.00000,-4.95743 3.37992 24.00000,-5.19615 3.00000 24.00000,-5.40581 2.60330 24.00000,-5.58524 2.19205 24.00000,-5.73344 1.76853 24.00000,-5.84957 1.33513 24.00000,-5.93298 0.89425 24.00000,-5.98322 0.44838 24.00000,-6.00000 0.00000 24.00000,-5.98322 -0.44838 24.00000,-5.93298 -0.89425 24.00000,-5.84957 -1.33513 24.00000,-5.73344 -1.76853 24.00000,-5.58524 -2.19205 24.00000,-5.40581 -2.60330 24.00000,-5.19615 -3.00000 24.00000,-4.95743 -3.37992 24.00000,-4.69099 -3.74094 24.00000,-4.39831 -4.08104 24.00000,-4.08104 -4.39831 24.00000,-3.74094 -4.69099 24.00000,-3.37992 -4.95743 24.00000,-3.00000 -5.19615 24.00000,-2.60330 -5.40581 24.00000,-2.19205 -5.58524 24.00000,-1.76853 -5.73344 24.00000,-1.33513 -5.84957 24.00000,-0.89425 -5.93298 24.00000,-0.44838 -5.98322 24.00000,-0.00000 -6.00000 24.00000,0.44838 -5.98322 24.00000,0.89425 -5.93298 24.00000,1.33513 -5.84957 24.00000,1.76853 -5.73344 24.00000,2.19205 -5.58524 24.00000,2.60330 -5.40581 24.00000,3.00000 -5.19615 24.00000,3.37992 -4.95743 24.00000,3.74094 -4.69099 24.00000,4.08104 -4.39831 24.00000,4.39831 -4.08104 24.00000,4.69099 -3.74094 24.00000,4.95743 -3.37992 24.00000,5.19615 -3.00000 24.00000,5.40581 -2.60330 24.00000,5.58524 -2.19205 24.00000,5.73344 -1.76853 24.00000,5.84957 -1.33513 24.00000,5.93298 -0.89425 24.00000,5.98322 -0.44838 24.00000,6.00000 0.00000 24.00000,6.00000 0.00000 11.00000,5.98322 0.44838 11.00000,5.93298 0.89425 11.00000,5.84957 1.33513 11.00000,5.73344 1.76853 11.00000,5.58524 2.19205 11.00000,5.40581 2.60330 11.00000,5.19615 3.00000 11.00000,4.95743 3.37992 11.00000,4.69099 3.74094 11.00000,4.39831 4.08104 11.00000,4.08104 4.39831 11.00000,3.74094 4.69099 11.00000,3.37992 4.95743 11.00000,3.00000 5.19615 11.00000,2.60330 5.40581 11.00000,2.19205 5.58524 11.00000,1.76853 5.73344 11.00000,1.33513 5.84957 11.00000,0.89425 5.93298 11.00000,0.44838 5.98322 11.00000,-0.00000 6.00000 11.00000,-0.44838 5.98322 11.00000,-0.89425 5.93298 11.00000,-1.33513 5.84957 11.00000,-1.76853 5.73344 11.00000,-2.19205 5.58524 11.00000,-2.60330 5.40581 11.00000,-3.00000 5.19615 11.00000,-3.37992 4.95743 11.00000,-3.74094 4.69099 11.00000,-4.08104 4.39831 11.00000,-4.39831 4.08104 11.00000,-4.69099 3.74094 11.00000,-4.95743 3.37992 11.00000,-5.19615 3.00000 11.00000,-5.40581 2.60330 11.00000,-5.58524 2.19205 11.00000,-5.73344 1.76853 11.00000,-5.84957 1.33513 11.00000,-5.93298 0.89425 11.00000,-5.98322 0.44838 11.00000,-6.00000 0.00000 11.00000,-5.98322 -0.44838 11.00000,-5.93298 -0.89425 11.00000,-5.84957 -1.33513 11.00000,-5.73344 -1.76853 11.00000,-5.58524 -2.19205 11.00000,-5.40581 -2.60330 11.00000,-5.19615 -3.00000 11.00000,-4.95743 -3.37992 11.00000,-4.69099 -3.74094 11.00000,-4.39831 -4.08104 11.00000,-4.08104 -4.39831 11.00000,-3.74094 -4.69099 11.00000,-3.37992 -4.95743 11.00000,-3.00000 -5.19615 11.00000,-2.60330 -5.40581 11.00000,-2.19205 -5.58524 11.00000,-1.76853 -5.73344 11.00000,-1.33513 -5.84957 11.00000,-0.89425 -5.93298 11.00000,-0.44838 -5.98322 11.00000,-0.00000 -6.00000 11.00000,0.44838 -5.98322 11.00000,0.89425 -5.93298 11.00000,1.33513 -5.84957 11.00000,1.76853 -5.73344 11.00000,2.19205 -5.58524 11.00000,2.60330 -5.40581 11.00000,3.00000 -5.19615 11.00000,3.37992 -4.95743 11.00000,3.74094 -4.69099 11.00000,4.08104 -4.39831 11.00000,4.39831 -4.08104 11.00000,4.69099 -3.74094 11.00000,4.95743 -3.37992 11.00000,5.19615 -3.00000 11.00000,5.40581 -2.60330 11.00000,5.58524 -2.19205 11.00000,5.73344 -1.76853 11.00000,5.84957 -1.33513 11.00000,5.93298 -0.89425 11.00000,5.98322 -0.44838 11.00000,6.00000 0.00000 11.00000,5.98322 0.44838 11.00000,5.93298 0.89425 11.00000,5.84957 1.33513 11.00000,5.73344 1.76853 11.00000,5.58524 2.19205 11.00000,5.40581 2.60330 11.00000,5.19615 3.00000 11.00000,4.95743 3.37992 11.00000,4.69099 3.74094 11.00000,4.39831 4.08104 11.00000,4.08104 4.39831 11.00000,3.74094 4.69099 11.00000,3.37992 4.95743 11.00000,3.00000 5.19615 11.00000,2.60330 5.40581 11.00000,2.19205 5.58524 11.00000,1.76853 5.73344 11.00000,1.33513 5.84957 11.00000,0.89425 5.93298 11.00000,0.44838 5.98322 11.00000,-0.00000 6.00000 11.00000,-0.44838 5.98322 11.00000,-0.89425 5.93298 11.00000,-1.33513 5.84957 11.00000,-1.76853 5.73344 11.00000,-2.19205 5.58524 11.00000,-2.60330 5.40581 11.00000,-3.00000 5.19615 11.00000,-3.37992 4.95743 11.00000,-3.74094 4.69099 11.00000,-4.08104 4.39831 11.00000,-4.39831 4.08104 11.00000,-4.69099 3.74094 11.00000,-4.95743 3.37992 11.00000,-5.19615 3.00000 11.00000,-5.40581 2.60330 11.00000,-5.58524 2.19205 11.00000,-5.73344 1.76853 11.00000,-5.84957 1.33513 11.00000,-5.93298 0.89425 11.00000,-5.98322 0.44838 11.00000,-6.00000 0.00000 11.00000,-5.98322 -0.44838 11.00000,-5.93298 -0.89425 11.00000,-5.84957 -1.33513 11.00000,-5.73344 -1.76853 11.00000,-5.58524 -2.19205 11.00000,-5.40581 -2.60330 11.00000,-5.19615 -3.00000 11.00000,-4.95743 -3.37992 11.00000,-4.69099 -3.74094 11.00000,-4.39831 -4.08104 11.00000,-4.08104 -4.39831 11.00000,-3.74094 -4.69099 11.00000,-3.37992 -4.95743 11.00000,-3.00000 -5.19615 11.00000,-2.60330 -5.40581 11.00000,-2.19205 -5.58524 11.00000,-1.76853 -5.73344 11.00000,-1.33513 -5.84957 11.00000,-0.89425 -5.93298 11.00000,-0.44838 -5.98322 11.00000,-0.00000 -6.00000 11.00000,0.44838 -5.98322 11.00000,0.89425 -5.93298 11.00000,1.33513 -5.84957 11.00000,1.76853 -5.73344 11.00000,2.19205 -5.58524 11.00000,2.60330 -5.40581 11.00000,3.00000 -5.19615 11.00000,3.37992 -4.95743 11.00000,3.74094 -4.69099 11.00000,4.08104 -4.39831 11.00000,4.39831 -4.08104 11.00000,4.69099 -3.74094 11.00000,4.95743 -3.37992 11.00000,5.19615 -3.00000 11.00000,5.40581 -2.60330 11.00000,5.58524 -2.19205 11.00000,5.73344 -1.76853 11.00000,5.84957 -1.33513 11.00000,5.93298 -0.89425 11.00000,5.98322 -0.44838 11.00000,6.00000 0.00000 24.00000,5.98322 0.44838 24.00000,5.93298 0.89425 24.00000,5.84957 1.33513 24.00000,5.73344 1.76853 24.00000,5.58524 2.19205 24.00000,5.40581 2.60330 24.00000,5.19615 3.00000 24.00000,4.95743 3.37992 24.00000,4.69099 3.74094 24.00000,4.39831 4.08104 24.00000,4.08104 4.39831 24.00000,3.74094 4.69099 24.00000,3.37992 4.95743 24.00000,3.00000 5.19615 24.00000,2.60330 5.40581 24.00000,2.19205 5.58524 24.00000,1.76853 5.73344 24.00000,1.33513 5.84957 24.00000,0.89425 5.93298 24.00000,0.44838 5.98322 24.00000,-0.00000 6.00000 24.00000,-0.44838 5.98322 24.00000,-0.89425 5.93298 24.00000,-1.33513 5.84957 24.00000,-1.76853 5.73344 24.00000,-2.19205 5.58524 24.00000,-2.60330 5.40581 24.00000,-3.00000 5.19615 24.00000,-3.37992 4.95743 24.00000,-3.74094 4.69099 24.00000,-4.08104 4.39831 24.00000,-4.39831 4.08104 24.00000,-4.69099 3.74094 24.00000,-4.95743 3.37992 24.00000,-5.19615 3.00000 24.00000,-5.40581 2.60330 24.00000,-5.58524 2.19205 24.00000,-5.73344 1.76853 24.00000,-5.84957 1.33513 24.00000,-5.93298 0.89425 24.00000,-5.98322 0.44838 24.00000,-6.00000 0.00000 24.00000,-5.98322 -0.44838 24.00000,-5.93298 -0.89425 24.00000,-5.84957 -1.33513 24.00000,-5.73344 -1.76853 24.00000,-5.58524 -2.19205 24.00000,-5.40581 -2.60330 24.00000,-5.19615 -3.00000 24.00000,-4.95743 -3.37992 24.00000,-4.69099 -3.74094 24.00000,-4.39831 -4.08104 24.00000,-4.08104 -4.39831 24.00000,-3.74094 -4.69099 24.00000,-3.37992 -4.95743 24.00000,-3.00000 -5.19615 24.00000,-2.60330 -5.40581 24.00000,-2.19205 -5.58524 24.00000,-1.76853 -5.73344 24.00000,-1.33513 -5.84957 24.00000,-0.89425 -5.93298 24.00000,-0.44838 -5.98322 24.00000,-0.00000 -6.00000 24.00000,0.44838 -5.98322 24.00000,0.89425 -5.93298 24.00000,1.33513 -5.84957 24.00000,1.76853 -5.73344 24.00000,2.19205 -5.58524 24.00000,2.60330 -5.40581 24.00000,3.00000 -5.19615 24.00000,3.37992 -4.95743 24.00000,3.74094 -4.69099 24.00000,4.08104 -4.39831 24.00000,4.39831 -4.08104 24.00000,4.69099 -3.74094 24.00000,4.95743 -3.37992 24.00000,5.19615 -3.00000 24.00000,5.40581 -2.60330 24.00000,5.58524 -2.19205 24.00000,5.73344 -1.76853 24.00000,5.84957 -1.33513 24.00000,5.93298 -0.89425 24.00000,5.98322 -0.44838 24.00000 ] } coordIndex [ 87 1 0 -1,87 2 1 -1,88 3 2 -1,88 4 3 -1,88 2 87 -1,89 4 88 -1,90 5 4 -1,90 4 89 -1,91 6 5 -1,91 7 6 -1,91 5 90 -1,92 7 91 -1,93 8 7 -1,93 7 92 -1,94 8 93 -1,94 9 8 -1,94 10 9 -1,95 10 94 -1,96 11 10 -1,96 10 95 -1,97 12 11 -1,97 11 96 -1,98 13 12 -1,98 12 97 -1,99 14 13 -1,99 13 98 -1,100 15 14 -1,100 14 99 -1,101 16 15 -1,101 15 100 -1,102 17 16 -1,102 16 101 -1,103 18 17 -1,103 17 102 -1,104 19 18 -1,104 18 103 -1,105 20 19 -1,105 19 104 -1,106 21 20 -1,106 20 105 -1,107 22 21 -1,107 21 106 -1,108 23 22 -1,108 22 107 -1,109 24 23 -1,109 23 108 -1,110 25 24 -1,110 24 109 -1,111 26 25 -1,111 25 110 -1,112 27 26 -1,112 26 111 -1,113 28 27 -1,113 27 112 -1,114 29 28 -1,114 28 113 -1,115 30 29 -1,115 29 114 -1,116 31 30 -1,116 30 115 -1,117 32 31 -1,117 31 116 -1,118 32 117 -1,118 33 32 -1,119 33 118 -1,119 34 33 -1,120 34 119 -1,120 35 34 -1,121 35 120 -1,121 36 35 -1,122 36 121 -1,122 37 36 -1,122 38 37 -1,123 38 122 -1,124 38 123 -1,124 39 38 -1,125 39 124 -1,125 40 39 -1,126 40 125 -1,126 41 40 -1,127 41 126 -1,127 42 41 -1,128 42 127 -1,128 43 42 -1,129 44 43 -1,129 43 128 -1,130 44 129 -1,130 45 44 -1,131 46 45 -1,131 45 130 -1,132 47 46 -1,132 46 131 -1,133 48 47 -1,133 47 132 -1,134 49 48 -1,134 48 133 -1,135 50 49 -1,135 49 134 -1,136 51 50 -1,136 52 51 -1,136 50 135 -1,137 52 136 -1,138 53 52 -1,138 52 137 -1,139 54 53 -1,139 53 138 -1,140 55 54 -1,140 56 55 -1,140 54 139 -1,141 56 140 -1,142 57 56 -1,142 58 57 -1,142 56 141 -1,143 58 142 -1,144 58 143 -1,144 59 58 -1,145 59 144 -1,145 60 59 -1,145 61 60 -1,146 61 145 -1,147 61 146 -1,147 62 61 -1,147 63 62 -1,148 63 147 -1,149 63 148 -1,149 64 63 -1,150 64 149 -1,150 65 64 -1,150 66 65 -1,151 66 150 -1,152 66 151 -1,152 67 66 -1,152 68 67 -1,153 68 152 -1,154 68 153 -1,154 69 68 -1,155 69 154 -1,155 70 69 -1,155 71 70 -1,156 71 155 -1,157 71 156 -1,157 72 71 -1,158 72 157 -1,158 73 72 -1,159 73 158 -1,159 74 73 -1,160 74 159 -1,160 75 74 -1,160 76 75 -1,161 76 160 -1,162 76 161 -1,162 77 76 -1,163 78 77 -1,163 79 78 -1,163 77 162 -1,164 79 163 -1,165 80 79 -1,165 81 80 -1,165 79 164 -1,166 81 165 -1,167 82 81 -1,167 81 166 -1,168 83 82 -1,168 84 83 -1,168 82 167 -1,169 84 168 -1,86 84 169 -1,86 85 84 -1,226 223 222 -1,226 224 223 -1,226 225 224 -1,219 221 220 -1,230 227 226 -1,230 228 227 -1,230 229 228 -1,215 217 216 -1,215 218 217 -1,215 219 218 -1,213 219 215 -1,213 215 214 -1,213 221 219 -1,234 232 231 -1,234 233 232 -1,211 213 212 -1,209 211 210 -1,208 211 209 -1,237 234 231 -1,237 235 234 -1,237 236 235 -1,207 211 208 -1,239 238 237 -1,204 206 205 -1,242 240 239 -1,242 241 240 -1,243 239 237 -1,243 242 239 -1,201 203 202 -1,201 204 203 -1,201 207 206 -1,201 211 207 -1,201 206 204 -1,245 244 243 -1,199 201 200 -1,246 245 243 -1,198 211 201 -1,198 221 213 -1,198 213 211 -1,198 222 221 -1,198 201 199 -1,247 243 237 -1,247 246 243 -1,196 198 197 -1,250 249 248 -1,251 250 248 -1,251 248 247 -1,193 222 198 -1,193 230 226 -1,193 195 194 -1,193 196 195 -1,193 231 230 -1,193 198 196 -1,193 226 222 -1,252 251 247 -1,253 252 247 -1,191 193 192 -1,189 191 190 -1,172 171 170 -1,172 170 253 -1,174 173 172 -1,186 231 193 -1,186 193 191 -1,186 188 187 -1,186 191 189 -1,186 189 188 -1,186 237 231 -1,175 174 172 -1,176 172 253 -1,176 175 172 -1,184 186 185 -1,183 186 184 -1,179 177 176 -1,179 178 177 -1,179 253 247 -1,179 176 253 -1,182 186 183 -1,181 180 179 -1,181 237 186 -1,181 179 247 -1,181 186 182 -1,181 247 237 -1,310 306 307 -1,310 307 308 -1,310 308 309 -1,303 304 305 -1,314 310 311 -1,314 311 312 -1,314 312 313 -1,299 300 301 -1,299 301 302 -1,299 302 303 -1,297 299 303 -1,297 298 299 -1,297 303 305 -1,318 315 316 -1,318 316 317 -1,295 296 297 -1,293 294 295 -1,292 293 295 -1,321 315 318 -1,321 318 319 -1,321 319 320 -1,291 292 295 -1,323 321 322 -1,288 289 290 -1,326 323 324 -1,326 324 325 -1,327 321 323 -1,327 323 326 -1,285 286 287 -1,285 287 288 -1,285 290 291 -1,285 291 295 -1,285 288 290 -1,329 327 328 -1,283 284 285 -1,330 327 329 -1,282 285 295 -1,282 297 305 -1,282 295 297 -1,282 305 306 -1,282 283 285 -1,331 321 327 -1,331 327 330 -1,280 281 282 -1,334 332 333 -1,335 332 334 -1,335 331 332 -1,277 282 306 -1,277 310 314 -1,277 278 279 -1,277 279 280 -1,277 314 315 -1,277 280 282 -1,277 306 310 -1,336 331 335 -1,337 331 336 -1,275 276 277 -1,273 274 275 -1,256 254 255 -1,256 337 254 -1,258 256 257 -1,270 277 315 -1,270 275 277 -1,270 271 272 -1,270 273 275 -1,270 272 273 -1,270 315 321 -1,259 256 258 -1,260 337 256 -1,260 256 259 -1,268 269 270 -1,267 268 270 -1,263 260 261 -1,263 261 262 -1,263 331 337 -1,263 337 260 -1,266 267 270 -1,265 263 264 -1,265 270 321 -1,265 331 263 -1,265 266 270 -1,265 321 331 -1 ] solid TRUE } }