#VRML V2.0 utf8
# Dimensions are millimetres; case exercise envelope, not manufacturing geometry.
Shape { appearance Appearance { material Material { diffuseColor 0.06 0.26 0.55 } } geometry IndexedFaceSet { coord Coordinate { point [ -15.70000 -14.00000 6.00000,-15.70000 -14.00000 7.60000,-15.70000 14.00000 6.00000,-15.70000 14.00000 7.60000,15.70000 -14.00000 6.00000,15.70000 -14.00000 7.60000,15.70000 14.00000 6.00000,15.70000 14.00000 7.60000,-15.70000 -14.00000 6.00000,15.70000 -14.00000 6.00000,-15.70000 -14.00000 7.60000,15.70000 -14.00000 7.60000,-15.70000 14.00000 6.00000,15.70000 14.00000 6.00000,-15.70000 14.00000 7.60000,15.70000 14.00000 7.60000,-15.70000 -14.00000 6.00000,-15.70000 14.00000 6.00000,15.70000 -14.00000 6.00000,15.70000 14.00000 6.00000,-15.70000 -14.00000 7.60000,-15.70000 14.00000 7.60000,15.70000 -14.00000 7.60000,15.70000 14.00000 7.60000 ] } coordIndex [ 1 2 0 -1,1 3 2 -1,5 4 6 -1,5 6 7 -1,11 8 9 -1,11 10 8 -1,15 13 12 -1,15 12 14 -1,19 16 17 -1,19 18 16 -1,23 21 20 -1,23 20 22 -1 ] solid TRUE } }
Shape { appearance Appearance { material Material { diffuseColor 0.08 0.09 0.11 } } geometry IndexedFaceSet { coord Coordinate { point [ -13.50000 -10.95000 7.55000,-13.50000 -10.95000 10.45000,-13.50000 6.55000 7.55000,-13.50000 6.55000 10.45000,13.50000 -10.95000 7.55000,13.50000 -10.95000 10.45000,13.50000 6.55000 7.55000,13.50000 6.55000 10.45000,-13.50000 -10.95000 7.55000,13.50000 -10.95000 7.55000,-13.50000 -10.95000 10.45000,13.50000 -10.95000 10.45000,-13.50000 6.55000 7.55000,13.50000 6.55000 7.55000,-13.50000 6.55000 10.45000,13.50000 6.55000 10.45000,-13.50000 -10.95000 7.55000,-13.50000 6.55000 7.55000,13.50000 -10.95000 7.55000,13.50000 6.55000 7.55000,-13.50000 -10.95000 10.45000,-13.50000 6.55000 10.45000,13.50000 -10.95000 10.45000,13.50000 6.55000 10.45000,-10.16000 10.25000 0.00000,-10.16000 10.25000 6.05000,-10.16000 12.75000 0.00000,-10.16000 12.75000 6.05000,10.16000 10.25000 0.00000,10.16000 10.25000 6.05000,10.16000 12.75000 0.00000,10.16000 12.75000 6.05000,-10.16000 10.25000 0.00000,10.16000 10.25000 0.00000,-10.16000 10.25000 6.05000,10.16000 10.25000 6.05000,-10.16000 12.75000 0.00000,10.16000 12.75000 0.00000,-10.16000 12.75000 6.05000,10.16000 12.75000 6.05000,-10.16000 10.25000 0.00000,-10.16000 12.75000 0.00000,10.16000 10.25000 0.00000,10.16000 12.75000 0.00000,-10.16000 10.25000 6.05000,-10.16000 12.75000 6.05000,10.16000 10.25000 6.05000,10.16000 12.75000 6.05000 ] } coordIndex [ 1 2 0 -1,1 3 2 -1,5 4 6 -1,5 6 7 -1,11 8 9 -1,11 10 8 -1,15 13 12 -1,15 12 14 -1,19 16 17 -1,19 18 16 -1,23 21 20 -1,23 20 22 -1,25 26 24 -1,25 27 26 -1,29 28 30 -1,29 30 31 -1,35 32 33 -1,35 34 32 -1,39 37 36 -1,39 36 38 -1,43 40 41 -1,43 42 40 -1,47 45 44 -1,47 44 46 -1 ] solid TRUE } }
Shape { appearance Appearance { material Material { diffuseColor 0.05 0.45 0.7 } } geometry IndexedFaceSet { coord Coordinate { point [ -10.85000 -7.60000 10.40000,-10.85000 -7.60000 10.50000,-10.85000 3.20000 10.40000,-10.85000 3.20000 10.50000,10.85000 -7.60000 10.40000,10.85000 -7.60000 10.50000,10.85000 3.20000 10.40000,10.85000 3.20000 10.50000,-10.85000 -7.60000 10.40000,10.85000 -7.60000 10.40000,-10.85000 -7.60000 10.50000,10.85000 -7.60000 10.50000,-10.85000 3.20000 10.40000,10.85000 3.20000 10.40000,-10.85000 3.20000 10.50000,10.85000 3.20000 10.50000,-10.85000 -7.60000 10.40000,-10.85000 3.20000 10.40000,10.85000 -7.60000 10.40000,10.85000 3.20000 10.40000,-10.85000 -7.60000 10.50000,-10.85000 3.20000 10.50000,10.85000 -7.60000 10.50000,10.85000 3.20000 10.50000 ] } coordIndex [ 1 2 0 -1,1 3 2 -1,5 4 6 -1,5 6 7 -1,11 8 9 -1,11 10 8 -1,15 13 12 -1,15 12 14 -1,19 16 17 -1,19 18 16 -1,23 21 20 -1,23 20 22 -1 ] solid TRUE } }