mtllib LCD_ST7735.mtl
v -15.70000 -14.00000 6.00000
v -15.70000 -14.00000 7.60000
v -15.70000 14.00000 6.00000
v -15.70000 14.00000 7.60000
v 15.70000 -14.00000 6.00000
v 15.70000 -14.00000 7.60000
v 15.70000 14.00000 6.00000
v 15.70000 14.00000 7.60000
v -15.70000 -14.00000 6.00000
v 15.70000 -14.00000 6.00000
v -15.70000 -14.00000 7.60000
v 15.70000 -14.00000 7.60000
v -15.70000 14.00000 6.00000
v 15.70000 14.00000 6.00000
v -15.70000 14.00000 7.60000
v 15.70000 14.00000 7.60000
v -15.70000 -14.00000 6.00000
v -15.70000 14.00000 6.00000
v 15.70000 -14.00000 6.00000
v 15.70000 14.00000 6.00000
v -15.70000 -14.00000 7.60000
v -15.70000 14.00000 7.60000
v 15.70000 -14.00000 7.60000
v 15.70000 14.00000 7.60000
v -13.50000 -10.95000 7.55000
v -13.50000 -10.95000 10.45000
v -13.50000 6.55000 7.55000
v -13.50000 6.55000 10.45000
v 13.50000 -10.95000 7.55000
v 13.50000 -10.95000 10.45000
v 13.50000 6.55000 7.55000
v 13.50000 6.55000 10.45000
v -13.50000 -10.95000 7.55000
v 13.50000 -10.95000 7.55000
v -13.50000 -10.95000 10.45000
v 13.50000 -10.95000 10.45000
v -13.50000 6.55000 7.55000
v 13.50000 6.55000 7.55000
v -13.50000 6.55000 10.45000
v 13.50000 6.55000 10.45000
v -13.50000 -10.95000 7.55000
v -13.50000 6.55000 7.55000
v 13.50000 -10.95000 7.55000
v 13.50000 6.55000 7.55000
v -13.50000 -10.95000 10.45000
v -13.50000 6.55000 10.45000
v 13.50000 -10.95000 10.45000
v 13.50000 6.55000 10.45000
v -10.85000 -7.60000 10.40000
v -10.85000 -7.60000 10.50000
v -10.85000 3.20000 10.40000
v -10.85000 3.20000 10.50000
v 10.85000 -7.60000 10.40000
v 10.85000 -7.60000 10.50000
v 10.85000 3.20000 10.40000
v 10.85000 3.20000 10.50000
v -10.85000 -7.60000 10.40000
v 10.85000 -7.60000 10.40000
v -10.85000 -7.60000 10.50000
v 10.85000 -7.60000 10.50000
v -10.85000 3.20000 10.40000
v 10.85000 3.20000 10.40000
v -10.85000 3.20000 10.50000
v 10.85000 3.20000 10.50000
v -10.85000 -7.60000 10.40000
v -10.85000 3.20000 10.40000
v 10.85000 -7.60000 10.40000
v 10.85000 3.20000 10.40000
v -10.85000 -7.60000 10.50000
v -10.85000 3.20000 10.50000
v 10.85000 -7.60000 10.50000
v 10.85000 3.20000 10.50000
v -10.16000 10.25000 0.00000
v -10.16000 10.25000 6.05000
v -10.16000 12.75000 0.00000
v -10.16000 12.75000 6.05000
v 10.16000 10.25000 0.00000
v 10.16000 10.25000 6.05000
v 10.16000 12.75000 0.00000
v 10.16000 12.75000 6.05000
v -10.16000 10.25000 0.00000
v 10.16000 10.25000 0.00000
v -10.16000 10.25000 6.05000
v 10.16000 10.25000 6.05000
v -10.16000 12.75000 0.00000
v 10.16000 12.75000 0.00000
v -10.16000 12.75000 6.05000
v 10.16000 12.75000 6.05000
v -10.16000 10.25000 0.00000
v -10.16000 12.75000 0.00000
v 10.16000 10.25000 0.00000
v 10.16000 12.75000 0.00000
v -10.16000 10.25000 6.05000
v -10.16000 12.75000 6.05000
v 10.16000 10.25000 6.05000
v 10.16000 12.75000 6.05000
usemtl c0
f 2 3 1
f 2 4 3
f 6 5 7
f 6 7 8
f 12 9 10
f 12 11 9
f 16 14 13
f 16 13 15
f 20 17 18
f 20 19 17
f 24 22 21
f 24 21 23
usemtl c1
f 26 27 25
f 26 28 27
f 30 29 31
f 30 31 32
f 36 33 34
f 36 35 33
f 40 38 37
f 40 37 39
f 44 41 42
f 44 43 41
f 48 46 45
f 48 45 47
f 74 75 73
f 74 76 75
f 78 77 79
f 78 79 80
f 84 81 82
f 84 83 81
f 88 86 85
f 88 85 87
f 92 89 90
f 92 91 89
f 96 94 93
f 96 93 95
usemtl c2
f 50 51 49
f 50 52 51
f 54 53 55
f 54 55 56
f 60 57 58
f 60 59 57
f 64 62 61
f 64 61 63
f 68 65 66
f 68 67 65
f 72 70 69
f 72 69 71