mtllib MX_WITH_KEYCAP.mtl
v -7.90000 -7.90000 0.00000
v -7.90000 -7.90000 11.50000
v -7.90000 7.90000 0.00000
v -7.90000 7.90000 11.50000
v 7.90000 -7.90000 0.00000
v 7.90000 -7.90000 11.50000
v 7.90000 7.90000 0.00000
v 7.90000 7.90000 11.50000
v -7.90000 -7.90000 0.00000
v 7.90000 -7.90000 0.00000
v -7.90000 -7.90000 11.50000
v 7.90000 -7.90000 11.50000
v -7.90000 7.90000 0.00000
v 7.90000 7.90000 0.00000
v -7.90000 7.90000 11.50000
v 7.90000 7.90000 11.50000
v -7.90000 -7.90000 0.00000
v -7.90000 7.90000 0.00000
v 7.90000 -7.90000 0.00000
v 7.90000 7.90000 0.00000
v -7.90000 -7.90000 11.50000
v -7.90000 7.90000 11.50000
v 7.90000 -7.90000 11.50000
v 7.90000 7.90000 11.50000
v -9.10000 -9.10000 9.50000
v -9.10000 -9.10000 18.70000
v -9.10000 9.10000 9.50000
v -9.10000 9.10000 18.70000
v 9.10000 -9.10000 9.50000
v 9.10000 -9.10000 18.70000
v 9.10000 9.10000 9.50000
v 9.10000 9.10000 18.70000
v -9.10000 -9.10000 9.50000
v 9.10000 -9.10000 9.50000
v -9.10000 -9.10000 18.70000
v 9.10000 -9.10000 18.70000
v -9.10000 9.10000 9.50000
v 9.10000 9.10000 9.50000
v -9.10000 9.10000 18.70000
v 9.10000 9.10000 18.70000
v -9.10000 -9.10000 9.50000
v -9.10000 9.10000 9.50000
v 9.10000 -9.10000 9.50000
v 9.10000 9.10000 9.50000
v -9.10000 -9.10000 18.70000
v -9.10000 9.10000 18.70000
v 9.10000 -9.10000 18.70000
v 9.10000 9.10000 18.70000
v 1.90000 0.00000 -3.40000
v 1.90000 0.00000 0.10000
v 1.89469 0.14199 0.10000
v 1.87878 0.28318 0.10000
v 1.85236 0.42279 0.10000
v 1.81559 0.56003 0.10000
v 1.76866 0.69415 0.10000
v 1.71184 0.82438 0.10000
v 1.64545 0.95000 0.10000
v 1.56985 1.07031 0.10000
v 1.48548 1.18463 0.10000
v 1.39280 1.29233 0.10000
v 1.29233 1.39280 0.10000
v 1.18463 1.48548 0.10000
v 1.07031 1.56985 0.10000
v 0.95000 1.64545 0.10000
v 0.82438 1.71184 0.10000
v 0.69415 1.76866 0.10000
v 0.56003 1.81559 0.10000
v 0.42279 1.85236 0.10000
v 0.28318 1.87878 0.10000
v 0.14199 1.89469 0.10000
v -0.00000 1.90000 0.10000
v -0.14199 1.89469 0.10000
v -0.28318 1.87878 0.10000
v -0.42279 1.85236 0.10000
v -0.56003 1.81559 0.10000
v -0.69415 1.76866 0.10000
v -0.82438 1.71184 0.10000
v -0.95000 1.64545 0.10000
v -1.07031 1.56985 0.10000
v -1.18463 1.48548 0.10000
v -1.29233 1.39280 0.10000
v -1.39280 1.29233 0.10000
v -1.48548 1.18463 0.10000
v -1.56985 1.07031 0.10000
v -1.64545 0.95000 0.10000
v -1.71184 0.82438 0.10000
v -1.76866 0.69415 0.10000
v -1.81559 0.56003 0.10000
v -1.85236 0.42279 0.10000
v -1.87878 0.28318 0.10000
v -1.89469 0.14199 0.10000
v -1.90000 0.00000 0.10000
v -1.89469 -0.14199 0.10000
v -1.87878 -0.28318 0.10000
v -1.85236 -0.42279 0.10000
v -1.81559 -0.56003 0.10000
v -1.76866 -0.69415 0.10000
v -1.71184 -0.82438 0.10000
v -1.64545 -0.95000 0.10000
v -1.56985 -1.07031 0.10000
v -1.48548 -1.18463 0.10000
v -1.39280 -1.29233 0.10000
v -1.29233 -1.39280 0.10000
v -1.18463 -1.48548 0.10000
v -1.07031 -1.56985 0.10000
v -0.95000 -1.64545 0.10000
v -0.82438 -1.71184 0.10000
v -0.69415 -1.76866 0.10000
v -0.56003 -1.81559 0.10000
v -0.42279 -1.85236 0.10000
v -0.28318 -1.87878 0.10000
v -0.14199 -1.89469 0.10000
v -0.00000 -1.90000 0.10000
v 0.14199 -1.89469 0.10000
v 0.28318 -1.87878 0.10000
v 0.42279 -1.85236 0.10000
v 0.56003 -1.81559 0.10000
v 0.69415 -1.76866 0.10000
v 0.82438 -1.71184 0.10000
v 0.95000 -1.64545 0.10000
v 1.07031 -1.56985 0.10000
v 1.18463 -1.48548 0.10000
v 1.29233 -1.39280 0.10000
v 1.39280 -1.29233 0.10000
v 1.48548 -1.18463 0.10000
v 1.56985 -1.07031 0.10000
v 1.64545 -0.95000 0.10000
v 1.71184 -0.82438 0.10000
v 1.76866 -0.69415 0.10000
v 1.81559 -0.56003 0.10000
v 1.85236 -0.42279 0.10000
v 1.87878 -0.28318 0.10000
v 1.89469 -0.14199 0.10000
v 1.90000 0.00000 0.10000
v 1.90000 0.00000 -3.40000
v 1.89469 0.14199 -3.40000
v 1.87878 0.28318 -3.40000
v 1.85236 0.42279 -3.40000
v 1.81559 0.56003 -3.40000
v 1.76866 0.69415 -3.40000
v 1.71184 0.82438 -3.40000
v 1.64545 0.95000 -3.40000
v 1.56985 1.07031 -3.40000
v 1.48548 1.18463 -3.40000
v 1.39280 1.29233 -3.40000
v 1.29233 1.39280 -3.40000
v 1.18463 1.48548 -3.40000
v 1.07031 1.56985 -3.40000
v 0.95000 1.64545 -3.40000
v 0.82438 1.71184 -3.40000
v 0.69415 1.76866 -3.40000
v 0.56003 1.81559 -3.40000
v 0.42279 1.85236 -3.40000
v 0.28318 1.87878 -3.40000
v 0.14199 1.89469 -3.40000
v -0.00000 1.90000 -3.40000
v -0.14199 1.89469 -3.40000
v -0.28318 1.87878 -3.40000
v -0.42279 1.85236 -3.40000
v -0.56003 1.81559 -3.40000
v -0.69415 1.76866 -3.40000
v -0.82438 1.71184 -3.40000
v -0.95000 1.64545 -3.40000
v -1.07031 1.56985 -3.40000
v -1.18463 1.48548 -3.40000
v -1.29233 1.39280 -3.40000
v -1.39280 1.29233 -3.40000
v -1.48548 1.18463 -3.40000
v -1.56985 1.07031 -3.40000
v -1.64545 0.95000 -3.40000
v -1.71184 0.82438 -3.40000
v -1.76866 0.69415 -3.40000
v -1.81559 0.56003 -3.40000
v -1.85236 0.42279 -3.40000
v -1.87878 0.28318 -3.40000
v -1.89469 0.14199 -3.40000
v -1.90000 0.00000 -3.40000
v -1.89469 -0.14199 -3.40000
v -1.87878 -0.28318 -3.40000
v -1.85236 -0.42279 -3.40000
v -1.81559 -0.56003 -3.40000
v -1.76866 -0.69415 -3.40000
v -1.71184 -0.82438 -3.40000
v -1.64545 -0.95000 -3.40000
v -1.56985 -1.07031 -3.40000
v -1.48548 -1.18463 -3.40000
v -1.39280 -1.29233 -3.40000
v -1.29233 -1.39280 -3.40000
v -1.18463 -1.48548 -3.40000
v -1.07031 -1.56985 -3.40000
v -0.95000 -1.64545 -3.40000
v -0.82438 -1.71184 -3.40000
v -0.69415 -1.76866 -3.40000
v -0.56003 -1.81559 -3.40000
v -0.42279 -1.85236 -3.40000
v -0.28318 -1.87878 -3.40000
v -0.14199 -1.89469 -3.40000
v -0.00000 -1.90000 -3.40000
v 0.14199 -1.89469 -3.40000
v 0.28318 -1.87878 -3.40000
v 0.42279 -1.85236 -3.40000
v 0.56003 -1.81559 -3.40000
v 0.69415 -1.76866 -3.40000
v 0.82438 -1.71184 -3.40000
v 0.95000 -1.64545 -3.40000
v 1.07031 -1.56985 -3.40000
v 1.18463 -1.48548 -3.40000
v 1.29233 -1.39280 -3.40000
v 1.39280 -1.29233 -3.40000
v 1.48548 -1.18463 -3.40000
v 1.56985 -1.07031 -3.40000
v 1.64545 -0.95000 -3.40000
v 1.71184 -0.82438 -3.40000
v 1.76866 -0.69415 -3.40000
v 1.81559 -0.56003 -3.40000
v 1.85236 -0.42279 -3.40000
v 1.87878 -0.28318 -3.40000
v 1.89469 -0.14199 -3.40000
v 1.90000 0.00000 -3.40000
v 1.89469 0.14199 -3.40000
v 1.87878 0.28318 -3.40000
v 1.85236 0.42279 -3.40000
v 1.81559 0.56003 -3.40000
v 1.76866 0.69415 -3.40000
v 1.71184 0.82438 -3.40000
v 1.64545 0.95000 -3.40000
v 1.56985 1.07031 -3.40000
v 1.48548 1.18463 -3.40000
v 1.39280 1.29233 -3.40000
v 1.29233 1.39280 -3.40000
v 1.18463 1.48548 -3.40000
v 1.07031 1.56985 -3.40000
v 0.95000 1.64545 -3.40000
v 0.82438 1.71184 -3.40000
v 0.69415 1.76866 -3.40000
v 0.56003 1.81559 -3.40000
v 0.42279 1.85236 -3.40000
v 0.28318 1.87878 -3.40000
v 0.14199 1.89469 -3.40000
v -0.00000 1.90000 -3.40000
v -0.14199 1.89469 -3.40000
v -0.28318 1.87878 -3.40000
v -0.42279 1.85236 -3.40000
v -0.56003 1.81559 -3.40000
v -0.69415 1.76866 -3.40000
v -0.82438 1.71184 -3.40000
v -0.95000 1.64545 -3.40000
v -1.07031 1.56985 -3.40000
v -1.18463 1.48548 -3.40000
v -1.29233 1.39280 -3.40000
v -1.39280 1.29233 -3.40000
v -1.48548 1.18463 -3.40000
v -1.56985 1.07031 -3.40000
v -1.64545 0.95000 -3.40000
v -1.71184 0.82438 -3.40000
v -1.76866 0.69415 -3.40000
v -1.81559 0.56003 -3.40000
v -1.85236 0.42279 -3.40000
v -1.87878 0.28318 -3.40000
v -1.89469 0.14199 -3.40000
v -1.90000 0.00000 -3.40000
v -1.89469 -0.14199 -3.40000
v -1.87878 -0.28318 -3.40000
v -1.85236 -0.42279 -3.40000
v -1.81559 -0.56003 -3.40000
v -1.76866 -0.69415 -3.40000
v -1.71184 -0.82438 -3.40000
v -1.64545 -0.95000 -3.40000
v -1.56985 -1.07031 -3.40000
v -1.48548 -1.18463 -3.40000
v -1.39280 -1.29233 -3.40000
v -1.29233 -1.39280 -3.40000
v -1.18463 -1.48548 -3.40000
v -1.07031 -1.56985 -3.40000
v -0.95000 -1.64545 -3.40000
v -0.82438 -1.71184 -3.40000
v -0.69415 -1.76866 -3.40000
v -0.56003 -1.81559 -3.40000
v -0.42279 -1.85236 -3.40000
v -0.28318 -1.87878 -3.40000
v -0.14199 -1.89469 -3.40000
v -0.00000 -1.90000 -3.40000
v 0.14199 -1.89469 -3.40000
v 0.28318 -1.87878 -3.40000
v 0.42279 -1.85236 -3.40000
v 0.56003 -1.81559 -3.40000
v 0.69415 -1.76866 -3.40000
v 0.82438 -1.71184 -3.40000
v 0.95000 -1.64545 -3.40000
v 1.07031 -1.56985 -3.40000
v 1.18463 -1.48548 -3.40000
v 1.29233 -1.39280 -3.40000
v 1.39280 -1.29233 -3.40000
v 1.48548 -1.18463 -3.40000
v 1.56985 -1.07031 -3.40000
v 1.64545 -0.95000 -3.40000
v 1.71184 -0.82438 -3.40000
v 1.76866 -0.69415 -3.40000
v 1.81559 -0.56003 -3.40000
v 1.85236 -0.42279 -3.40000
v 1.87878 -0.28318 -3.40000
v 1.89469 -0.14199 -3.40000
v 1.90000 0.00000 0.10000
v 1.89469 0.14199 0.10000
v 1.87878 0.28318 0.10000
v 1.85236 0.42279 0.10000
v 1.81559 0.56003 0.10000
v 1.76866 0.69415 0.10000
v 1.71184 0.82438 0.10000
v 1.64545 0.95000 0.10000
v 1.56985 1.07031 0.10000
v 1.48548 1.18463 0.10000
v 1.39280 1.29233 0.10000
v 1.29233 1.39280 0.10000
v 1.18463 1.48548 0.10000
v 1.07031 1.56985 0.10000
v 0.95000 1.64545 0.10000
v 0.82438 1.71184 0.10000
v 0.69415 1.76866 0.10000
v 0.56003 1.81559 0.10000
v 0.42279 1.85236 0.10000
v 0.28318 1.87878 0.10000
v 0.14199 1.89469 0.10000
v -0.00000 1.90000 0.10000
v -0.14199 1.89469 0.10000
v -0.28318 1.87878 0.10000
v -0.42279 1.85236 0.10000
v -0.56003 1.81559 0.10000
v -0.69415 1.76866 0.10000
v -0.82438 1.71184 0.10000
v -0.95000 1.64545 0.10000
v -1.07031 1.56985 0.10000
v -1.18463 1.48548 0.10000
v -1.29233 1.39280 0.10000
v -1.39280 1.29233 0.10000
v -1.48548 1.18463 0.10000
v -1.56985 1.07031 0.10000
v -1.64545 0.95000 0.10000
v -1.71184 0.82438 0.10000
v -1.76866 0.69415 0.10000
v -1.81559 0.56003 0.10000
v -1.85236 0.42279 0.10000
v -1.87878 0.28318 0.10000
v -1.89469 0.14199 0.10000
v -1.90000 0.00000 0.10000
v -1.89469 -0.14199 0.10000
v -1.87878 -0.28318 0.10000
v -1.85236 -0.42279 0.10000
v -1.81559 -0.56003 0.10000
v -1.76866 -0.69415 0.10000
v -1.71184 -0.82438 0.10000
v -1.64545 -0.95000 0.10000
v -1.56985 -1.07031 0.10000
v -1.48548 -1.18463 0.10000
v -1.39280 -1.29233 0.10000
v -1.29233 -1.39280 0.10000
v -1.18463 -1.48548 0.10000
v -1.07031 -1.56985 0.10000
v -0.95000 -1.64545 0.10000
v -0.82438 -1.71184 0.10000
v -0.69415 -1.76866 0.10000
v -0.56003 -1.81559 0.10000
v -0.42279 -1.85236 0.10000
v -0.28318 -1.87878 0.10000
v -0.14199 -1.89469 0.10000
v -0.00000 -1.90000 0.10000
v 0.14199 -1.89469 0.10000
v 0.28318 -1.87878 0.10000
v 0.42279 -1.85236 0.10000
v 0.56003 -1.81559 0.10000
v 0.69415 -1.76866 0.10000
v 0.82438 -1.71184 0.10000
v 0.95000 -1.64545 0.10000
v 1.07031 -1.56985 0.10000
v 1.18463 -1.48548 0.10000
v 1.29233 -1.39280 0.10000
v 1.39280 -1.29233 0.10000
v 1.48548 -1.18463 0.10000
v 1.56985 -1.07031 0.10000
v 1.64545 -0.95000 0.10000
v 1.71184 -0.82438 0.10000
v 1.76866 -0.69415 0.10000
v 1.81559 -0.56003 0.10000
v 1.85236 -0.42279 0.10000
v 1.87878 -0.28318 0.10000
v 1.89469 -0.14199 0.10000
usemtl c0
f 2 3 1
f 2 4 3
f 6 5 7
f 6 7 8
f 12 9 10
f 12 11 9
f 16 14 13
f 16 13 15
f 20 17 18
f 20 19 17
f 24 22 21
f 24 21 23
f 136 50 49
f 136 51 50
f 137 52 51
f 137 51 136
f 138 53 52
f 138 54 53
f 138 52 137
f 139 54 138
f 140 55 54
f 140 54 139
f 141 56 55
f 141 55 140
f 142 57 56
f 142 58 57
f 142 56 141
f 143 58 142
f 144 59 58
f 144 58 143
f 145 60 59
f 145 59 144
f 146 61 60
f 146 60 145
f 147 62 61
f 147 61 146
f 148 63 62
f 148 62 147
f 149 64 63
f 149 63 148
f 150 65 64
f 150 64 149
f 151 66 65
f 151 65 150
f 152 67 66
f 152 66 151
f 153 68 67
f 153 67 152
f 154 69 68
f 154 68 153
f 155 70 69
f 155 69 154
f 156 71 70
f 156 70 155
f 157 72 71
f 157 73 72
f 157 71 156
f 158 73 157
f 159 74 73
f 159 73 158
f 160 75 74
f 160 74 159
f 161 76 75
f 161 77 76
f 161 75 160
f 162 77 161
f 163 78 77
f 163 77 162
f 164 79 78
f 164 78 163
f 165 80 79
f 165 79 164
f 166 81 80
f 166 80 165
f 167 81 166
f 167 82 81
f 168 82 167
f 168 83 82
f 169 83 168
f 169 84 83
f 170 84 169
f 170 85 84
f 171 85 170
f 171 86 85
f 171 87 86
f 172 87 171
f 173 87 172
f 173 88 87
f 174 88 173
f 174 89 88
f 175 89 174
f 175 90 89
f 175 91 90
f 176 91 175
f 177 91 176
f 177 92 91
f 178 93 92
f 178 94 93
f 178 92 177
f 179 94 178
f 180 95 94
f 180 96 95
f 180 94 179
f 181 96 180
f 182 97 96
f 182 98 97
f 182 96 181
f 183 98 182
f 184 99 98
f 184 98 183
f 185 100 99
f 185 99 184
f 186 101 100
f 186 102 101
f 186 100 185
f 187 103 102
f 187 102 186
f 188 104 103
f 188 103 187
f 189 104 188
f 190 105 104
f 190 106 105
f 190 104 189
f 191 106 190
f 192 106 191
f 192 107 106
f 193 107 192
f 193 108 107
f 194 108 193
f 194 109 108
f 194 110 109
f 195 110 194
f 195 111 110
f 196 111 195
f 197 111 196
f 197 112 111
f 198 112 197
f 198 113 112
f 199 113 198
f 199 114 113
f 200 114 199
f 200 115 114
f 201 115 200
f 201 116 115
f 201 117 116
f 202 117 201
f 203 117 202
f 203 118 117
f 204 118 203
f 204 119 118
f 204 120 119
f 205 120 204
f 205 121 120
f 206 121 205
f 207 121 206
f 207 122 121
f 207 123 122
f 208 123 207
f 209 123 208
f 209 124 123
f 210 124 209
f 210 125 124
f 210 126 125
f 211 126 210
f 212 126 211
f 212 127 126
f 212 128 127
f 213 129 128
f 213 128 212
f 214 129 213
f 215 130 129
f 215 131 130
f 215 129 214
f 216 131 215
f 217 132 131
f 217 131 216
f 218 132 217
f 218 133 132
f 218 134 133
f 135 134 218
f 269 271 270
f 269 272 271
f 269 273 272
f 277 276 275
f 266 268 267
f 279 278 277
f 283 281 280
f 283 282 281
f 260 262 261
f 260 263 262
f 260 264 263
f 260 265 264
f 260 266 265
f 260 269 268
f 260 268 266
f 285 284 283
f 257 259 258
f 257 260 259
f 287 285 283
f 287 286 285
f 289 288 287
f 253 255 254
f 253 256 255
f 290 283 280
f 290 287 283
f 290 289 287
f 290 280 279
f 291 290 279
f 251 253 252
f 251 257 256
f 251 256 253
f 293 292 291
f 249 251 250
f 296 293 291
f 296 294 293
f 296 295 294
f 246 248 247
f 246 249 248
f 299 298 297
f 300 299 297
f 300 297 296
f 242 244 243
f 302 300 296
f 302 301 300
f 240 242 241
f 219 302 296
f 221 220 219
f 237 239 238
f 222 221 219
f 235 237 236
f 224 222 219
f 224 223 222
f 234 237 235
f 234 240 239
f 234 245 244
f 234 246 245
f 234 244 242
f 234 242 240
f 234 239 237
f 226 225 224
f 226 224 219
f 232 234 233
f 232 246 234
f 229 227 226
f 229 228 227
f 230 277 275
f 230 219 296
f 230 232 231
f 230 279 277
f 230 226 219
f 230 251 249
f 230 269 260
f 230 260 257
f 230 246 232
f 230 291 279
f 230 274 273
f 230 275 274
f 230 257 251
f 230 249 246
f 230 296 291
f 230 229 226
f 230 273 269
f 353 354 355
f 353 355 356
f 353 356 357
f 361 359 360
f 350 351 352
f 363 361 362
f 367 364 365
f 367 365 366
f 344 345 346
f 344 346 347
f 344 347 348
f 344 348 349
f 344 349 350
f 344 352 353
f 344 350 352
f 369 367 368
f 341 342 343
f 341 343 344
f 371 367 369
f 371 369 370
f 373 371 372
f 337 338 339
f 337 339 340
f 374 364 367
f 374 367 371
f 374 371 373
f 374 363 364
f 375 363 374
f 335 336 337
f 335 340 341
f 335 337 340
f 377 375 376
f 333 334 335
f 380 375 377
f 380 377 378
f 380 378 379
f 330 331 332
f 330 332 333
f 383 381 382
f 384 381 383
f 384 380 381
f 326 327 328
f 386 380 384
f 386 384 385
f 324 325 326
f 303 380 386
f 305 303 304
f 321 322 323
f 306 303 305
f 319 320 321
f 308 303 306
f 308 306 307
f 318 319 321
f 318 323 324
f 318 328 329
f 318 329 330
f 318 326 328
f 318 324 326
f 318 321 323
f 310 308 309
f 310 303 308
f 316 317 318
f 316 318 330
f 313 310 311
f 313 311 312
f 314 359 361
f 314 380 303
f 314 315 316
f 314 361 363
f 314 303 310
f 314 333 335
f 314 344 353
f 314 341 344
f 314 316 330
f 314 363 375
f 314 357 358
f 314 358 359
f 314 335 341
f 314 330 333
f 314 375 380
f 314 310 313
f 314 353 357
usemtl c1
f 25 28 27
f 26 28 25
f 29 31 32
f 30 29 32
f 36 33 34
f 36 35 33
f 40 38 37
f 40 37 39
f 44 41 42
f 44 43 41
f 48 46 45
f 48 45 47