#VRML V2.0 utf8
# Dimensions are millimetres; case exercise envelope, not manufacturing geometry.
Shape { appearance Appearance { material Material { diffuseColor 0.08 0.09 0.11 } } geometry IndexedFaceSet { coord Coordinate { point [ -7.90000 -7.90000 0.00000,-7.90000 -7.90000 11.50000,-7.90000 7.90000 0.00000,-7.90000 7.90000 11.50000,7.90000 -7.90000 0.00000,7.90000 -7.90000 11.50000,7.90000 7.90000 0.00000,7.90000 7.90000 11.50000,-7.90000 -7.90000 0.00000,7.90000 -7.90000 0.00000,-7.90000 -7.90000 11.50000,7.90000 -7.90000 11.50000,-7.90000 7.90000 0.00000,7.90000 7.90000 0.00000,-7.90000 7.90000 11.50000,7.90000 7.90000 11.50000,-7.90000 -7.90000 0.00000,-7.90000 7.90000 0.00000,7.90000 -7.90000 0.00000,7.90000 7.90000 0.00000,-7.90000 -7.90000 11.50000,-7.90000 7.90000 11.50000,7.90000 -7.90000 11.50000,7.90000 7.90000 11.50000,1.90000 0.00000 -3.40000,1.90000 0.00000 0.10000,1.89469 0.14199 0.10000,1.87878 0.28318 0.10000,1.85236 0.42279 0.10000,1.81559 0.56003 0.10000,1.76866 0.69415 0.10000,1.71184 0.82438 0.10000,1.64545 0.95000 0.10000,1.56985 1.07031 0.10000,1.48548 1.18463 0.10000,1.39280 1.29233 0.10000,1.29233 1.39280 0.10000,1.18463 1.48548 0.10000,1.07031 1.56985 0.10000,0.95000 1.64545 0.10000,0.82438 1.71184 0.10000,0.69415 1.76866 0.10000,0.56003 1.81559 0.10000,0.42279 1.85236 0.10000,0.28318 1.87878 0.10000,0.14199 1.89469 0.10000,-0.00000 1.90000 0.10000,-0.14199 1.89469 0.10000,-0.28318 1.87878 0.10000,-0.42279 1.85236 0.10000,-0.56003 1.81559 0.10000,-0.69415 1.76866 0.10000,-0.82438 1.71184 0.10000,-0.95000 1.64545 0.10000,-1.07031 1.56985 0.10000,-1.18463 1.48548 0.10000,-1.29233 1.39280 0.10000,-1.39280 1.29233 0.10000,-1.48548 1.18463 0.10000,-1.56985 1.07031 0.10000,-1.64545 0.95000 0.10000,-1.71184 0.82438 0.10000,-1.76866 0.69415 0.10000,-1.81559 0.56003 0.10000,-1.85236 0.42279 0.10000,-1.87878 0.28318 0.10000,-1.89469 0.14199 0.10000,-1.90000 0.00000 0.10000,-1.89469 -0.14199 0.10000,-1.87878 -0.28318 0.10000,-1.85236 -0.42279 0.10000,-1.81559 -0.56003 0.10000,-1.76866 -0.69415 0.10000,-1.71184 -0.82438 0.10000,-1.64545 -0.95000 0.10000,-1.56985 -1.07031 0.10000,-1.48548 -1.18463 0.10000,-1.39280 -1.29233 0.10000,-1.29233 -1.39280 0.10000,-1.18463 -1.48548 0.10000,-1.07031 -1.56985 0.10000,-0.95000 -1.64545 0.10000,-0.82438 -1.71184 0.10000,-0.69415 -1.76866 0.10000,-0.56003 -1.81559 0.10000,-0.42279 -1.85236 0.10000,-0.28318 -1.87878 0.10000,-0.14199 -1.89469 0.10000,-0.00000 -1.90000 0.10000,0.14199 -1.89469 0.10000,0.28318 -1.87878 0.10000,0.42279 -1.85236 0.10000,0.56003 -1.81559 0.10000,0.69415 -1.76866 0.10000,0.82438 -1.71184 0.10000,0.95000 -1.64545 0.10000,1.07031 -1.56985 0.10000,1.18463 -1.48548 0.10000,1.29233 -1.39280 0.10000,1.39280 -1.29233 0.10000,1.48548 -1.18463 0.10000,1.56985 -1.07031 0.10000,1.64545 -0.95000 0.10000,1.71184 -0.82438 0.10000,1.76866 -0.69415 0.10000,1.81559 -0.56003 0.10000,1.85236 -0.42279 0.10000,1.87878 -0.28318 0.10000,1.89469 -0.14199 0.10000,1.90000 0.00000 0.10000,1.90000 0.00000 -3.40000,1.89469 0.14199 -3.40000,1.87878 0.28318 -3.40000,1.85236 0.42279 -3.40000,1.81559 0.56003 -3.40000,1.76866 0.69415 -3.40000,1.71184 0.82438 -3.40000,1.64545 0.95000 -3.40000,1.56985 1.07031 -3.40000,1.48548 1.18463 -3.40000,1.39280 1.29233 -3.40000,1.29233 1.39280 -3.40000,1.18463 1.48548 -3.40000,1.07031 1.56985 -3.40000,0.95000 1.64545 -3.40000,0.82438 1.71184 -3.40000,0.69415 1.76866 -3.40000,0.56003 1.81559 -3.40000,0.42279 1.85236 -3.40000,0.28318 1.87878 -3.40000,0.14199 1.89469 -3.40000,-0.00000 1.90000 -3.40000,-0.14199 1.89469 -3.40000,-0.28318 1.87878 -3.40000,-0.42279 1.85236 -3.40000,-0.56003 1.81559 -3.40000,-0.69415 1.76866 -3.40000,-0.82438 1.71184 -3.40000,-0.95000 1.64545 -3.40000,-1.07031 1.56985 -3.40000,-1.18463 1.48548 -3.40000,-1.29233 1.39280 -3.40000,-1.39280 1.29233 -3.40000,-1.48548 1.18463 -3.40000,-1.56985 1.07031 -3.40000,-1.64545 0.95000 -3.40000,-1.71184 0.82438 -3.40000,-1.76866 0.69415 -3.40000,-1.81559 0.56003 -3.40000,-1.85236 0.42279 -3.40000,-1.87878 0.28318 -3.40000,-1.89469 0.14199 -3.40000,-1.90000 0.00000 -3.40000,-1.89469 -0.14199 -3.40000,-1.87878 -0.28318 -3.40000,-1.85236 -0.42279 -3.40000,-1.81559 -0.56003 -3.40000,-1.76866 -0.69415 -3.40000,-1.71184 -0.82438 -3.40000,-1.64545 -0.95000 -3.40000,-1.56985 -1.07031 -3.40000,-1.48548 -1.18463 -3.40000,-1.39280 -1.29233 -3.40000,-1.29233 -1.39280 -3.40000,-1.18463 -1.48548 -3.40000,-1.07031 -1.56985 -3.40000,-0.95000 -1.64545 -3.40000,-0.82438 -1.71184 -3.40000,-0.69415 -1.76866 -3.40000,-0.56003 -1.81559 -3.40000,-0.42279 -1.85236 -3.40000,-0.28318 -1.87878 -3.40000,-0.14199 -1.89469 -3.40000,-0.00000 -1.90000 -3.40000,0.14199 -1.89469 -3.40000,0.28318 -1.87878 -3.40000,0.42279 -1.85236 -3.40000,0.56003 -1.81559 -3.40000,0.69415 -1.76866 -3.40000,0.82438 -1.71184 -3.40000,0.95000 -1.64545 -3.40000,1.07031 -1.56985 -3.40000,1.18463 -1.48548 -3.40000,1.29233 -1.39280 -3.40000,1.39280 -1.29233 -3.40000,1.48548 -1.18463 -3.40000,1.56985 -1.07031 -3.40000,1.64545 -0.95000 -3.40000,1.71184 -0.82438 -3.40000,1.76866 -0.69415 -3.40000,1.81559 -0.56003 -3.40000,1.85236 -0.42279 -3.40000,1.87878 -0.28318 -3.40000,1.89469 -0.14199 -3.40000,1.90000 0.00000 -3.40000,1.89469 0.14199 -3.40000,1.87878 0.28318 -3.40000,1.85236 0.42279 -3.40000,1.81559 0.56003 -3.40000,1.76866 0.69415 -3.40000,1.71184 0.82438 -3.40000,1.64545 0.95000 -3.40000,1.56985 1.07031 -3.40000,1.48548 1.18463 -3.40000,1.39280 1.29233 -3.40000,1.29233 1.39280 -3.40000,1.18463 1.48548 -3.40000,1.07031 1.56985 -3.40000,0.95000 1.64545 -3.40000,0.82438 1.71184 -3.40000,0.69415 1.76866 -3.40000,0.56003 1.81559 -3.40000,0.42279 1.85236 -3.40000,0.28318 1.87878 -3.40000,0.14199 1.89469 -3.40000,-0.00000 1.90000 -3.40000,-0.14199 1.89469 -3.40000,-0.28318 1.87878 -3.40000,-0.42279 1.85236 -3.40000,-0.56003 1.81559 -3.40000,-0.69415 1.76866 -3.40000,-0.82438 1.71184 -3.40000,-0.95000 1.64545 -3.40000,-1.07031 1.56985 -3.40000,-1.18463 1.48548 -3.40000,-1.29233 1.39280 -3.40000,-1.39280 1.29233 -3.40000,-1.48548 1.18463 -3.40000,-1.56985 1.07031 -3.40000,-1.64545 0.95000 -3.40000,-1.71184 0.82438 -3.40000,-1.76866 0.69415 -3.40000,-1.81559 0.56003 -3.40000,-1.85236 0.42279 -3.40000,-1.87878 0.28318 -3.40000,-1.89469 0.14199 -3.40000,-1.90000 0.00000 -3.40000,-1.89469 -0.14199 -3.40000,-1.87878 -0.28318 -3.40000,-1.85236 -0.42279 -3.40000,-1.81559 -0.56003 -3.40000,-1.76866 -0.69415 -3.40000,-1.71184 -0.82438 -3.40000,-1.64545 -0.95000 -3.40000,-1.56985 -1.07031 -3.40000,-1.48548 -1.18463 -3.40000,-1.39280 -1.29233 -3.40000,-1.29233 -1.39280 -3.40000,-1.18463 -1.48548 -3.40000,-1.07031 -1.56985 -3.40000,-0.95000 -1.64545 -3.40000,-0.82438 -1.71184 -3.40000,-0.69415 -1.76866 -3.40000,-0.56003 -1.81559 -3.40000,-0.42279 -1.85236 -3.40000,-0.28318 -1.87878 -3.40000,-0.14199 -1.89469 -3.40000,-0.00000 -1.90000 -3.40000,0.14199 -1.89469 -3.40000,0.28318 -1.87878 -3.40000,0.42279 -1.85236 -3.40000,0.56003 -1.81559 -3.40000,0.69415 -1.76866 -3.40000,0.82438 -1.71184 -3.40000,0.95000 -1.64545 -3.40000,1.07031 -1.56985 -3.40000,1.18463 -1.48548 -3.40000,1.29233 -1.39280 -3.40000,1.39280 -1.29233 -3.40000,1.48548 -1.18463 -3.40000,1.56985 -1.07031 -3.40000,1.64545 -0.95000 -3.40000,1.71184 -0.82438 -3.40000,1.76866 -0.69415 -3.40000,1.81559 -0.56003 -3.40000,1.85236 -0.42279 -3.40000,1.87878 -0.28318 -3.40000,1.89469 -0.14199 -3.40000,1.90000 0.00000 0.10000,1.89469 0.14199 0.10000,1.87878 0.28318 0.10000,1.85236 0.42279 0.10000,1.81559 0.56003 0.10000,1.76866 0.69415 0.10000,1.71184 0.82438 0.10000,1.64545 0.95000 0.10000,1.56985 1.07031 0.10000,1.48548 1.18463 0.10000,1.39280 1.29233 0.10000,1.29233 1.39280 0.10000,1.18463 1.48548 0.10000,1.07031 1.56985 0.10000,0.95000 1.64545 0.10000,0.82438 1.71184 0.10000,0.69415 1.76866 0.10000,0.56003 1.81559 0.10000,0.42279 1.85236 0.10000,0.28318 1.87878 0.10000,0.14199 1.89469 0.10000,-0.00000 1.90000 0.10000,-0.14199 1.89469 0.10000,-0.28318 1.87878 0.10000,-0.42279 1.85236 0.10000,-0.56003 1.81559 0.10000,-0.69415 1.76866 0.10000,-0.82438 1.71184 0.10000,-0.95000 1.64545 0.10000,-1.07031 1.56985 0.10000,-1.18463 1.48548 0.10000,-1.29233 1.39280 0.10000,-1.39280 1.29233 0.10000,-1.48548 1.18463 0.10000,-1.56985 1.07031 0.10000,-1.64545 0.95000 0.10000,-1.71184 0.82438 0.10000,-1.76866 0.69415 0.10000,-1.81559 0.56003 0.10000,-1.85236 0.42279 0.10000,-1.87878 0.28318 0.10000,-1.89469 0.14199 0.10000,-1.90000 0.00000 0.10000,-1.89469 -0.14199 0.10000,-1.87878 -0.28318 0.10000,-1.85236 -0.42279 0.10000,-1.81559 -0.56003 0.10000,-1.76866 -0.69415 0.10000,-1.71184 -0.82438 0.10000,-1.64545 -0.95000 0.10000,-1.56985 -1.07031 0.10000,-1.48548 -1.18463 0.10000,-1.39280 -1.29233 0.10000,-1.29233 -1.39280 0.10000,-1.18463 -1.48548 0.10000,-1.07031 -1.56985 0.10000,-0.95000 -1.64545 0.10000,-0.82438 -1.71184 0.10000,-0.69415 -1.76866 0.10000,-0.56003 -1.81559 0.10000,-0.42279 -1.85236 0.10000,-0.28318 -1.87878 0.10000,-0.14199 -1.89469 0.10000,-0.00000 -1.90000 0.10000,0.14199 -1.89469 0.10000,0.28318 -1.87878 0.10000,0.42279 -1.85236 0.10000,0.56003 -1.81559 0.10000,0.69415 -1.76866 0.10000,0.82438 -1.71184 0.10000,0.95000 -1.64545 0.10000,1.07031 -1.56985 0.10000,1.18463 -1.48548 0.10000,1.29233 -1.39280 0.10000,1.39280 -1.29233 0.10000,1.48548 -1.18463 0.10000,1.56985 -1.07031 0.10000,1.64545 -0.95000 0.10000,1.71184 -0.82438 0.10000,1.76866 -0.69415 0.10000,1.81559 -0.56003 0.10000,1.85236 -0.42279 0.10000,1.87878 -0.28318 0.10000,1.89469 -0.14199 0.10000 ] } coordIndex [ 1 2 0 -1,1 3 2 -1,5 4 6 -1,5 6 7 -1,11 8 9 -1,11 10 8 -1,15 13 12 -1,15 12 14 -1,19 16 17 -1,19 18 16 -1,23 21 20 -1,23 20 22 -1,111 25 24 -1,111 26 25 -1,112 27 26 -1,112 26 111 -1,113 28 27 -1,113 29 28 -1,113 27 112 -1,114 29 113 -1,115 30 29 -1,115 29 114 -1,116 31 30 -1,116 30 115 -1,117 32 31 -1,117 33 32 -1,117 31 116 -1,118 33 117 -1,119 34 33 -1,119 33 118 -1,120 35 34 -1,120 34 119 -1,121 36 35 -1,121 35 120 -1,122 37 36 -1,122 36 121 -1,123 38 37 -1,123 37 122 -1,124 39 38 -1,124 38 123 -1,125 40 39 -1,125 39 124 -1,126 41 40 -1,126 40 125 -1,127 42 41 -1,127 41 126 -1,128 43 42 -1,128 42 127 -1,129 44 43 -1,129 43 128 -1,130 45 44 -1,130 44 129 -1,131 46 45 -1,131 45 130 -1,132 47 46 -1,132 48 47 -1,132 46 131 -1,133 48 132 -1,134 49 48 -1,134 48 133 -1,135 50 49 -1,135 49 134 -1,136 51 50 -1,136 52 51 -1,136 50 135 -1,137 52 136 -1,138 53 52 -1,138 52 137 -1,139 54 53 -1,139 53 138 -1,140 55 54 -1,140 54 139 -1,141 56 55 -1,141 55 140 -1,142 56 141 -1,142 57 56 -1,143 57 142 -1,143 58 57 -1,144 58 143 -1,144 59 58 -1,145 59 144 -1,145 60 59 -1,146 60 145 -1,146 61 60 -1,146 62 61 -1,147 62 146 -1,148 62 147 -1,148 63 62 -1,149 63 148 -1,149 64 63 -1,150 64 149 -1,150 65 64 -1,150 66 65 -1,151 66 150 -1,152 66 151 -1,152 67 66 -1,153 68 67 -1,153 69 68 -1,153 67 152 -1,154 69 153 -1,155 70 69 -1,155 71 70 -1,155 69 154 -1,156 71 155 -1,157 72 71 -1,157 73 72 -1,157 71 156 -1,158 73 157 -1,159 74 73 -1,159 73 158 -1,160 75 74 -1,160 74 159 -1,161 76 75 -1,161 77 76 -1,161 75 160 -1,162 78 77 -1,162 77 161 -1,163 79 78 -1,163 78 162 -1,164 79 163 -1,165 80 79 -1,165 81 80 -1,165 79 164 -1,166 81 165 -1,167 81 166 -1,167 82 81 -1,168 82 167 -1,168 83 82 -1,169 83 168 -1,169 84 83 -1,169 85 84 -1,170 85 169 -1,170 86 85 -1,171 86 170 -1,172 86 171 -1,172 87 86 -1,173 87 172 -1,173 88 87 -1,174 88 173 -1,174 89 88 -1,175 89 174 -1,175 90 89 -1,176 90 175 -1,176 91 90 -1,176 92 91 -1,177 92 176 -1,178 92 177 -1,178 93 92 -1,179 93 178 -1,179 94 93 -1,179 95 94 -1,180 95 179 -1,180 96 95 -1,181 96 180 -1,182 96 181 -1,182 97 96 -1,182 98 97 -1,183 98 182 -1,184 98 183 -1,184 99 98 -1,185 99 184 -1,185 100 99 -1,185 101 100 -1,186 101 185 -1,187 101 186 -1,187 102 101 -1,187 103 102 -1,188 104 103 -1,188 103 187 -1,189 104 188 -1,190 105 104 -1,190 106 105 -1,190 104 189 -1,191 106 190 -1,192 107 106 -1,192 106 191 -1,193 107 192 -1,193 108 107 -1,193 109 108 -1,110 109 193 -1,244 246 245 -1,244 247 246 -1,244 248 247 -1,252 251 250 -1,241 243 242 -1,254 253 252 -1,258 256 255 -1,258 257 256 -1,235 237 236 -1,235 238 237 -1,235 239 238 -1,235 240 239 -1,235 241 240 -1,235 244 243 -1,235 243 241 -1,260 259 258 -1,232 234 233 -1,232 235 234 -1,262 260 258 -1,262 261 260 -1,264 263 262 -1,228 230 229 -1,228 231 230 -1,265 258 255 -1,265 262 258 -1,265 264 262 -1,265 255 254 -1,266 265 254 -1,226 228 227 -1,226 232 231 -1,226 231 228 -1,268 267 266 -1,224 226 225 -1,271 268 266 -1,271 269 268 -1,271 270 269 -1,221 223 222 -1,221 224 223 -1,274 273 272 -1,275 274 272 -1,275 272 271 -1,217 219 218 -1,277 275 271 -1,277 276 275 -1,215 217 216 -1,194 277 271 -1,196 195 194 -1,212 214 213 -1,197 196 194 -1,210 212 211 -1,199 197 194 -1,199 198 197 -1,209 212 210 -1,209 215 214 -1,209 220 219 -1,209 221 220 -1,209 219 217 -1,209 217 215 -1,209 214 212 -1,201 200 199 -1,201 199 194 -1,207 209 208 -1,207 221 209 -1,204 202 201 -1,204 203 202 -1,205 252 250 -1,205 194 271 -1,205 207 206 -1,205 254 252 -1,205 201 194 -1,205 226 224 -1,205 244 235 -1,205 235 232 -1,205 221 207 -1,205 266 254 -1,205 249 248 -1,205 250 249 -1,205 232 226 -1,205 224 221 -1,205 271 266 -1,205 204 201 -1,205 248 244 -1,328 329 330 -1,328 330 331 -1,328 331 332 -1,336 334 335 -1,325 326 327 -1,338 336 337 -1,342 339 340 -1,342 340 341 -1,319 320 321 -1,319 321 322 -1,319 322 323 -1,319 323 324 -1,319 324 325 -1,319 327 328 -1,319 325 327 -1,344 342 343 -1,316 317 318 -1,316 318 319 -1,346 342 344 -1,346 344 345 -1,348 346 347 -1,312 313 314 -1,312 314 315 -1,349 339 342 -1,349 342 346 -1,349 346 348 -1,349 338 339 -1,350 338 349 -1,310 311 312 -1,310 315 316 -1,310 312 315 -1,352 350 351 -1,308 309 310 -1,355 350 352 -1,355 352 353 -1,355 353 354 -1,305 306 307 -1,305 307 308 -1,358 356 357 -1,359 356 358 -1,359 355 356 -1,301 302 303 -1,361 355 359 -1,361 359 360 -1,299 300 301 -1,278 355 361 -1,280 278 279 -1,296 297 298 -1,281 278 280 -1,294 295 296 -1,283 278 281 -1,283 281 282 -1,293 294 296 -1,293 298 299 -1,293 303 304 -1,293 304 305 -1,293 301 303 -1,293 299 301 -1,293 296 298 -1,285 283 284 -1,285 278 283 -1,291 292 293 -1,291 293 305 -1,288 285 286 -1,288 286 287 -1,289 334 336 -1,289 355 278 -1,289 290 291 -1,289 336 338 -1,289 278 285 -1,289 308 310 -1,289 319 328 -1,289 316 319 -1,289 291 305 -1,289 338 350 -1,289 332 333 -1,289 333 334 -1,289 310 316 -1,289 305 308 -1,289 350 355 -1,289 285 288 -1,289 328 332 -1 ] solid TRUE } }
Shape { appearance Appearance { material Material { diffuseColor 0.9 0.9 0.84 } } geometry IndexedFaceSet { coord Coordinate { point [ -9.10000 -9.10000 9.50000,-9.10000 -9.10000 18.70000,-9.10000 9.10000 9.50000,-9.10000 9.10000 18.70000,9.10000 -9.10000 9.50000,9.10000 -9.10000 18.70000,9.10000 9.10000 9.50000,9.10000 9.10000 18.70000,-9.10000 -9.10000 9.50000,9.10000 -9.10000 9.50000,-9.10000 -9.10000 18.70000,9.10000 -9.10000 18.70000,-9.10000 9.10000 9.50000,9.10000 9.10000 9.50000,-9.10000 9.10000 18.70000,9.10000 9.10000 18.70000,-9.10000 -9.10000 9.50000,-9.10000 9.10000 9.50000,9.10000 -9.10000 9.50000,9.10000 9.10000 9.50000,-9.10000 -9.10000 18.70000,-9.10000 9.10000 18.70000,9.10000 -9.10000 18.70000,9.10000 9.10000 18.70000 ] } coordIndex [ 0 3 2 -1,1 3 0 -1,4 6 7 -1,5 4 7 -1,11 8 9 -1,11 10 8 -1,15 13 12 -1,15 12 14 -1,19 16 17 -1,19 18 16 -1,23 21 20 -1,23 20 22 -1 ] solid TRUE } }