mtllib RP2040_ZERO.mtl
v -9.00000 -11.75000 5.00000
v -9.00000 -11.75000 6.00000
v -9.00000 11.75000 5.00000
v -9.00000 11.75000 6.00000
v 9.00000 -11.75000 5.00000
v 9.00000 -11.75000 6.00000
v 9.00000 11.75000 5.00000
v 9.00000 11.75000 6.00000
v -9.00000 -11.75000 5.00000
v 9.00000 -11.75000 5.00000
v -9.00000 -11.75000 6.00000
v 9.00000 -11.75000 6.00000
v -9.00000 11.75000 5.00000
v 9.00000 11.75000 5.00000
v -9.00000 11.75000 6.00000
v 9.00000 11.75000 6.00000
v -9.00000 -11.75000 5.00000
v -9.00000 11.75000 5.00000
v 9.00000 -11.75000 5.00000
v 9.00000 11.75000 5.00000
v -9.00000 -11.75000 6.00000
v -9.00000 11.75000 6.00000
v 9.00000 -11.75000 6.00000
v 9.00000 11.75000 6.00000
v -4.40000 6.30000 6.00000
v -4.40000 6.30000 8.70000
v -4.40000 13.30000 6.00000
v -4.40000 13.30000 8.70000
v 4.40000 6.30000 6.00000
v 4.40000 6.30000 8.70000
v 4.40000 13.30000 6.00000
v 4.40000 13.30000 8.70000
v -4.40000 6.30000 6.00000
v 4.40000 6.30000 6.00000
v -4.40000 6.30000 8.70000
v 4.40000 6.30000 8.70000
v -4.40000 13.30000 6.00000
v 4.40000 13.30000 6.00000
v -4.40000 13.30000 8.70000
v 4.40000 13.30000 8.70000
v -4.40000 6.30000 6.00000
v -4.40000 13.30000 6.00000
v 4.40000 6.30000 6.00000
v 4.40000 13.30000 6.00000
v -4.40000 6.30000 8.70000
v -4.40000 13.30000 8.70000
v 4.40000 6.30000 8.70000
v 4.40000 13.30000 8.70000
v -2.75000 -5.75000 6.00000
v -2.75000 -5.75000 6.90000
v -2.75000 -0.25000 6.00000
v -2.75000 -0.25000 6.90000
v 2.75000 -5.75000 6.00000
v 2.75000 -5.75000 6.90000
v 2.75000 -0.25000 6.00000
v 2.75000 -0.25000 6.90000
v -2.75000 -5.75000 6.00000
v 2.75000 -5.75000 6.00000
v -2.75000 -5.75000 6.90000
v 2.75000 -5.75000 6.90000
v -2.75000 -0.25000 6.00000
v 2.75000 -0.25000 6.00000
v -2.75000 -0.25000 6.90000
v 2.75000 -0.25000 6.90000
v -2.75000 -5.75000 6.00000
v -2.75000 -0.25000 6.00000
v 2.75000 -5.75000 6.00000
v 2.75000 -0.25000 6.00000
v -2.75000 -5.75000 6.90000
v -2.75000 -0.25000 6.90000
v 2.75000 -5.75000 6.90000
v 2.75000 -0.25000 6.90000
v -8.87000 -10.25000 0.00000
v -8.87000 -10.25000 5.05000
v -8.87000 10.25000 0.00000
v -8.87000 10.25000 5.05000
v -6.37000 -10.25000 0.00000
v -6.37000 -10.25000 5.05000
v -6.37000 10.25000 0.00000
v -6.37000 10.25000 5.05000
v -8.87000 -10.25000 0.00000
v -6.37000 -10.25000 0.00000
v -8.87000 -10.25000 5.05000
v -6.37000 -10.25000 5.05000
v -8.87000 10.25000 0.00000
v -6.37000 10.25000 0.00000
v -8.87000 10.25000 5.05000
v -6.37000 10.25000 5.05000
v -8.87000 -10.25000 0.00000
v -8.87000 10.25000 0.00000
v -6.37000 -10.25000 0.00000
v -6.37000 10.25000 0.00000
v -8.87000 -10.25000 5.05000
v -8.87000 10.25000 5.05000
v -6.37000 -10.25000 5.05000
v -6.37000 10.25000 5.05000
v 6.37000 -10.25000 0.00000
v 6.37000 -10.25000 5.05000
v 6.37000 10.25000 0.00000
v 6.37000 10.25000 5.05000
v 8.87000 -10.25000 0.00000
v 8.87000 -10.25000 5.05000
v 8.87000 10.25000 0.00000
v 8.87000 10.25000 5.05000
v 6.37000 -10.25000 0.00000
v 8.87000 -10.25000 0.00000
v 6.37000 -10.25000 5.05000
v 8.87000 -10.25000 5.05000
v 6.37000 10.25000 0.00000
v 8.87000 10.25000 0.00000
v 6.37000 10.25000 5.05000
v 8.87000 10.25000 5.05000
v 6.37000 -10.25000 0.00000
v 6.37000 10.25000 0.00000
v 8.87000 -10.25000 0.00000
v 8.87000 10.25000 0.00000
v 6.37000 -10.25000 5.05000
v 6.37000 10.25000 5.05000
v 8.87000 -10.25000 5.05000
v 8.87000 10.25000 5.05000
usemtl c0
f 2 3 1
f 2 4 3
f 6 5 7
f 6 7 8
f 10 11 9
f 12 11 10
f 14 13 15
f 16 14 15
f 20 17 18
f 20 19 17
f 24 22 21
f 24 21 23
usemtl c1
f 26 27 25
f 26 28 27
f 30 29 31
f 30 31 32
f 36 33 34
f 36 35 33
f 40 38 37
f 40 37 39
f 44 41 42
f 44 43 41
f 48 46 45
f 48 45 47
usemtl c2
f 50 51 49
f 50 52 51
f 54 53 55
f 54 55 56
f 60 57 58
f 60 59 57
f 64 62 61
f 64 61 63
f 68 65 66
f 68 67 65
f 72 70 69
f 72 69 71
f 74 75 73
f 74 76 75
f 78 77 79
f 78 79 80
f 84 81 82
f 84 83 81
f 88 86 85
f 88 85 87
f 90 91 89
f 92 91 90
f 94 93 95
f 96 94 95
f 98 99 97
f 98 100 99
f 102 101 103
f 102 103 104
f 108 105 106
f 108 107 105
f 112 110 109
f 112 109 111
f 114 115 113
f 116 115 114
f 118 117 119
f 120 118 119