#VRML V2.0 utf8
# Dimensions are millimetres; case exercise envelope, not manufacturing geometry.
Shape { appearance Appearance { material Material { diffuseColor 0.06 0.26 0.55 } } geometry IndexedFaceSet { coord Coordinate { point [ -9.00000 -11.75000 5.00000,-9.00000 -11.75000 6.00000,-9.00000 11.75000 5.00000,-9.00000 11.75000 6.00000,9.00000 -11.75000 5.00000,9.00000 -11.75000 6.00000,9.00000 11.75000 5.00000,9.00000 11.75000 6.00000,-9.00000 -11.75000 5.00000,9.00000 -11.75000 5.00000,-9.00000 -11.75000 6.00000,9.00000 -11.75000 6.00000,-9.00000 11.75000 5.00000,9.00000 11.75000 5.00000,-9.00000 11.75000 6.00000,9.00000 11.75000 6.00000,-9.00000 -11.75000 5.00000,-9.00000 11.75000 5.00000,9.00000 -11.75000 5.00000,9.00000 11.75000 5.00000,-9.00000 -11.75000 6.00000,-9.00000 11.75000 6.00000,9.00000 -11.75000 6.00000,9.00000 11.75000 6.00000 ] } coordIndex [ 1 2 0 -1,1 3 2 -1,5 4 6 -1,5 6 7 -1,9 10 8 -1,11 10 9 -1,13 12 14 -1,15 13 14 -1,19 16 17 -1,19 18 16 -1,23 21 20 -1,23 20 22 -1 ] solid TRUE } }
Shape { appearance Appearance { material Material { diffuseColor 0.65 0.68 0.72 } } geometry IndexedFaceSet { coord Coordinate { point [ -4.40000 6.30000 6.00000,-4.40000 6.30000 8.70000,-4.40000 13.30000 6.00000,-4.40000 13.30000 8.70000,4.40000 6.30000 6.00000,4.40000 6.30000 8.70000,4.40000 13.30000 6.00000,4.40000 13.30000 8.70000,-4.40000 6.30000 6.00000,4.40000 6.30000 6.00000,-4.40000 6.30000 8.70000,4.40000 6.30000 8.70000,-4.40000 13.30000 6.00000,4.40000 13.30000 6.00000,-4.40000 13.30000 8.70000,4.40000 13.30000 8.70000,-4.40000 6.30000 6.00000,-4.40000 13.30000 6.00000,4.40000 6.30000 6.00000,4.40000 13.30000 6.00000,-4.40000 6.30000 8.70000,-4.40000 13.30000 8.70000,4.40000 6.30000 8.70000,4.40000 13.30000 8.70000 ] } coordIndex [ 1 2 0 -1,1 3 2 -1,5 4 6 -1,5 6 7 -1,11 8 9 -1,11 10 8 -1,15 13 12 -1,15 12 14 -1,19 16 17 -1,19 18 16 -1,23 21 20 -1,23 20 22 -1 ] solid TRUE } }
Shape { appearance Appearance { material Material { diffuseColor 0.08 0.09 0.11 } } geometry IndexedFaceSet { coord Coordinate { point [ -2.75000 -5.75000 6.00000,-2.75000 -5.75000 6.90000,-2.75000 -0.25000 6.00000,-2.75000 -0.25000 6.90000,2.75000 -5.75000 6.00000,2.75000 -5.75000 6.90000,2.75000 -0.25000 6.00000,2.75000 -0.25000 6.90000,-2.75000 -5.75000 6.00000,2.75000 -5.75000 6.00000,-2.75000 -5.75000 6.90000,2.75000 -5.75000 6.90000,-2.75000 -0.25000 6.00000,2.75000 -0.25000 6.00000,-2.75000 -0.25000 6.90000,2.75000 -0.25000 6.90000,-2.75000 -5.75000 6.00000,-2.75000 -0.25000 6.00000,2.75000 -5.75000 6.00000,2.75000 -0.25000 6.00000,-2.75000 -5.75000 6.90000,-2.75000 -0.25000 6.90000,2.75000 -5.75000 6.90000,2.75000 -0.25000 6.90000,-8.87000 -10.25000 0.00000,-8.87000 -10.25000 5.05000,-8.87000 10.25000 0.00000,-8.87000 10.25000 5.05000,-6.37000 -10.25000 0.00000,-6.37000 -10.25000 5.05000,-6.37000 10.25000 0.00000,-6.37000 10.25000 5.05000,-8.87000 -10.25000 0.00000,-6.37000 -10.25000 0.00000,-8.87000 -10.25000 5.05000,-6.37000 -10.25000 5.05000,-8.87000 10.25000 0.00000,-6.37000 10.25000 0.00000,-8.87000 10.25000 5.05000,-6.37000 10.25000 5.05000,-8.87000 -10.25000 0.00000,-8.87000 10.25000 0.00000,-6.37000 -10.25000 0.00000,-6.37000 10.25000 0.00000,-8.87000 -10.25000 5.05000,-8.87000 10.25000 5.05000,-6.37000 -10.25000 5.05000,-6.37000 10.25000 5.05000,6.37000 -10.25000 0.00000,6.37000 -10.25000 5.05000,6.37000 10.25000 0.00000,6.37000 10.25000 5.05000,8.87000 -10.25000 0.00000,8.87000 -10.25000 5.05000,8.87000 10.25000 0.00000,8.87000 10.25000 5.05000,6.37000 -10.25000 0.00000,8.87000 -10.25000 0.00000,6.37000 -10.25000 5.05000,8.87000 -10.25000 5.05000,6.37000 10.25000 0.00000,8.87000 10.25000 0.00000,6.37000 10.25000 5.05000,8.87000 10.25000 5.05000,6.37000 -10.25000 0.00000,6.37000 10.25000 0.00000,8.87000 -10.25000 0.00000,8.87000 10.25000 0.00000,6.37000 -10.25000 5.05000,6.37000 10.25000 5.05000,8.87000 -10.25000 5.05000,8.87000 10.25000 5.05000 ] } coordIndex [ 1 2 0 -1,1 3 2 -1,5 4 6 -1,5 6 7 -1,11 8 9 -1,11 10 8 -1,15 13 12 -1,15 12 14 -1,19 16 17 -1,19 18 16 -1,23 21 20 -1,23 20 22 -1,25 26 24 -1,25 27 26 -1,29 28 30 -1,29 30 31 -1,35 32 33 -1,35 34 32 -1,39 37 36 -1,39 36 38 -1,41 42 40 -1,43 42 41 -1,45 44 46 -1,47 45 46 -1,49 50 48 -1,49 51 50 -1,53 52 54 -1,53 54 55 -1,59 56 57 -1,59 58 56 -1,63 61 60 -1,63 60 62 -1,65 66 64 -1,67 66 65 -1,69 68 70 -1,71 69 70 -1 ] solid TRUE } }